<?xml version="1.0" standalone="no"?>
<!DOCTYPE svg PUBLIC "-//W3C//DTD SVG 20010904//EN"
 "http://www.w3.org/TR/2001/REC-SVG-20010904/DTD/svg10.dtd">
<svg version="1.0" xmlns="http://www.w3.org/2000/svg"
 width="1869.000000pt" height="754.000000pt" viewBox="0 0 1869.000000 754.000000"
 preserveAspectRatio="xMidYMid meet">
<metadata>
Created by potrace 1.16, written by Peter Selinger 2001-2019
</metadata>
<g transform="translate(0.000000,754.000000) scale(0.100000,-0.100000)"
fill="#000000" stroke="none">
<path d="M2448 7381 l-3 -69 -514 -518 c-282 -286 -759 -765 -1058 -1065
l-545 -546 645 -649 c354 -357 645 -653 644 -659 0 -5 -112 -125 -249 -265
l-248 -255 236 -236 236 -237 -236 -233 c-130 -128 -235 -237 -234 -241 2 -4
183 -188 403 -408 l399 -400 24 23 23 22 81 -84 c69 -70 80 -86 70 -100 -7 -9
-15 -22 -19 -30 -4 -8 64 -83 195 -214 l201 -201 24 22 23 22 84 -85 84 -84
-25 -20 -24 -20 372 -373 373 -373 128 128 127 127 71 0 c62 0 73 -3 94 -25
l23 -25 3396 2 c1868 2 3217 4 2999 5 l-398 3 0 50 c0 38 -4 50 -15 50 -13 0
-15 43 -15 325 l0 325 1726 0 1727 0 227 -232 c141 -144 225 -237 219 -243 -5
-5 -9 -69 -9 -142 l0 -133 -1532 -3 c-1482 -2 -1465 -2 488 -5 l2021 -2 23 25
c21 22 32 25 94 25 l71 0 128 -127 128 -128 301 305 c165 168 329 335 366 372
57 58 64 69 52 83 -12 14 -3 27 70 100 75 75 86 83 100 70 14 -13 38 8 220
190 180 180 202 206 190 220 -12 14 -4 26 68 97 71 72 83 80 97 68 15 -12 62
33 421 391 l404 404 -237 238 -238 237 238 238 237 238 -237 237 -238 237 508
507 507 508 0 1133 0 1132 28 0 c21 0 50 23 130 102 l102 101 0 69 0 68 -7885
0 -7884 0 -3 -69z m15752 -6 l0 -55 -7865 0 -7865 0 0 55 0 55 7865 0 7865 0
0 -55z m-15490 -115 l0 -40 -160 1 c-88 0 -160 2 -160 4 0 3 17 20 38 40 l37
34 123 1 122 0 0 -40z m15390 -45 c-72 -72 -90 -85 -117 -85 l-33 0 0 -145 0
-145 -40 0 -40 0 0 230 0 230 157 0 158 0 -85 -85z m-14022 69 c-7 -6 -1340
-5 -1347 1 -2 3 301 5 674 5 373 0 676 -3 673 -6z m122 -29 l0 -35 -50 0 -50
0 0 35 0 35 50 0 50 0 0 -35z m550 -140 l0 -175 5190 0 5190 0 0 175 0 175
123 -2 c67 -1 95 -3 62 -5 -116 -6 -105 16 -105 -218 l0 -205 -5270 0 -5270 0
-2 208 -3 207 -225 5 -225 6 268 2 267 2 0 -175z m2152 138 l3 -38 73 -3 72
-3 0 41 0 40 1075 0 1075 0 0 -40 0 -40 70 0 70 0 0 40 0 40 1075 0 1075 0 0
-40 0 -40 70 0 70 0 0 40 0 40 1070 0 1070 0 0 -40 0 -40 75 0 75 0 0 40 0 40
595 0 595 0 0 -165 0 -165 -552 0 -553 0 0 62 0 63 -357 3 -358 2 0 -65 0 -65
-4265 0 -4265 0 0 165 0 165 1069 0 1070 0 3 -37z m128 2 l0 -35 -55 0 -55 0
0 35 0 35 55 0 55 0 0 -35z m2290 -1 l0 -35 -52 3 c-50 3 -51 4 -52 36 l-1 32
53 0 52 0 0 -36z m2290 1 l0 -35 -50 0 -50 0 0 35 0 35 50 0 50 0 0 -35z
m2298 3 c-3 -33 -4 -33 -60 -36 l-58 -3 0 36 0 35 61 0 60 0 -3 -32z m1592 -3
l0 -35 -60 0 -60 0 0 35 0 35 60 0 60 0 0 -35z m2218 30 c-6 -7 -2189 -7
-2196 0 -3 3 491 5 1098 5 607 0 1101 -2 1098 -5z m132 -30 l0 -35 -55 0 -55
0 0 35 0 35 55 0 55 0 0 -35z m-13910 -249 c0 -140 4 -257 9 -260 5 -3 27 -7
48 -9 22 -2 55 -11 73 -20 40 -20 170 -23 188 -5 19 19 15 -17 -7 -61 -31 -60
-91 -107 -155 -122 -31 -7 -56 -15 -56 -19 0 -4 20 -10 45 -12 79 -9 162 -83
181 -162 6 -26 5 -27 -14 -17 -11 6 -52 11 -91 11 -55 0 -72 -4 -79 -17 -6
-10 -23 -17 -45 -17 -20 -1 -39 -5 -43 -9 -4 -4 -18 -7 -31 -7 l-23 0 0 -470
c0 -392 -2 -470 -14 -470 -15 0 -29 -51 -20 -75 4 -8 1 -15 -5 -15 -7 0 -11
-37 -11 -114 0 -73 -4 -117 -11 -122 -6 -3 -9 -19 -5 -34 5 -27 4 -28 -25 -20
-47 14 -114 56 -143 91 -51 61 -70 109 -71 181 0 38 -3 68 -7 68 -5 0 -8 9 -8
20 0 19 -7 20 -95 20 l-94 0 -3 63 -3 62 -126 3 -126 3 -751 -756 c-413 -415
-755 -755 -759 -755 -4 0 -48 42 -98 93 -49 50 -316 320 -594 599 l-504 506
1019 1026 1019 1026 113 0 112 0 0 25 0 25 605 0 605 0 0 -254z m78 7 l-3
-248 -22 -3 -23 -3 0 250 0 251 25 0 25 0 -2 -247z m62 222 c0 -24 2 -25 70
-25 68 0 70 1 70 25 l0 25 215 0 215 0 2 -207 3 -208 1073 -3 1072 -2 0 -2525
0 -2525 -955 0 -955 0 -2 247 -3 248 -142 3 -143 3 0 36 c0 34 1 35 18 20 45
-41 131 -28 157 24 48 91 -44 191 -133 145 -17 -9 -32 -21 -35 -28 -3 -7 -6
177 -6 410 l-1 423 26 -20 c33 -26 91 -27 120 -3 70 56 53 154 -31 182 -28 9
-41 8 -70 -5 -19 -10 -35 -22 -35 -29 0 -8 -2 -8 -8 1 -7 11 -109 16 -324 14
l-98 -1 0 -85 0 -85 -75 0 -75 0 0 1474 c0 1357 1 1475 17 1487 11 10 52 15
130 17 l113 4 0 31 c-1 70 -68 165 -139 194 l-35 15 32 15 c62 30 102 76 132
152 36 87 36 95 9 88 -12 -3 -30 0 -40 6 -15 9 -24 9 -39 -1 -25 -15 -121 -16
-155 0 l-25 11 0 239 0 238 25 0 c20 0 25 -5 25 -25z m11290 0 c0 -24 2 -25
75 -25 73 0 75 1 75 25 l0 25 175 0 175 0 0 -709 0 -709 -22 -14 c-24 -16 -20
-44 8 -55 12 -4 25 3 41 23 21 27 23 37 23 167 l0 137 39 0 c35 0 39 3 45 31
3 17 7 73 7 123 2 165 -4 164 137 16 76 -80 122 -136 122 -149 0 -18 6 -21 41
-21 40 0 40 -1 34 -30 -6 -26 -3 -31 20 -40 14 -5 68 -10 119 -10 52 0 108 -3
126 -6 l32 -7 -123 -123 c-68 -68 -131 -124 -139 -124 -29 0 -39 -21 -33 -68
l6 -44 -602 -602 -601 -601 -3 -338 -2 -338 -147 -140 c-82 -78 -148 -145
-148 -150 0 -5 9 -9 20 -9 11 0 20 -4 20 -10 0 -5 14 -10 30 -10 17 0 30 5 30
10 0 6 38 10 95 10 57 0 95 -4 95 -10 0 -5 -7 -10 -15 -10 -13 0 -15 -24 -15
-155 l0 -155 26 0 c16 0 23 -4 18 -12 -5 -8 2 -9 24 -5 19 4 32 2 32 -3 0 -6
64 -10 164 -10 130 0 166 -3 176 -14 12 -16 9 -20 -237 -246 -62 -56 -110
-106 -108 -111 3 -4 38 -20 78 -36 l72 -28 -72 -3 c-40 -2 -73 -7 -73 -13 0
-5 -11 -7 -25 -3 -15 4 -25 2 -25 -5 0 -6 -11 -11 -25 -11 -21 0 -25 -5 -25
-29 0 -16 -7 -42 -15 -57 -10 -20 -15 -60 -15 -126 0 -59 -4 -98 -10 -98 -5 0
-10 -10 -10 -22 -1 -21 -4 -19 -37 17 -20 22 -74 79 -120 127 -45 48 -83 92
-83 97 0 6 -6 11 -12 11 -7 1 -181 1 -385 0 l-373 -1 0 1091 0 1090 85 0 c86
0 103 8 73 38 -9 9 -7 13 5 18 13 5 17 19 17 65 l0 60 30 -16 c33 -17 60 -61
60 -100 0 -14 5 -25 10 -25 6 0 10 13 10 28 0 83 67 207 139 256 67 47 190 81
152 43 -14 -14 -14 -57 -1 -57 6 0 10 -48 10 -125 0 -75 4 -125 10 -125 5 0 7
-13 4 -30 l-6 -30 93 0 93 0 416 413 c228 226 416 417 419 422 2 6 19 26 38
46 22 23 31 39 24 43 -6 4 -11 23 -11 42 0 19 -4 34 -9 34 -15 0 -23 -18 -11
-25 19 -12 10 -44 -22 -74 -18 -17 -36 -31 -40 -31 -3 0 -85 -80 -182 -177
-164 -166 -175 -176 -170 -143 7 47 -23 94 -71 110 -31 10 -41 9 -75 -8 l-40
-19 0 98 0 99 125 0 125 0 0 805 0 805 -60 0 -60 0 0 40 0 40 70 0 c68 0 70
-1 70 -25z m2350 0 c0 -24 2 -25 65 -25 l65 0 0 -210 0 -210 -35 0 -35 0 0
-200 0 -200 35 0 35 0 0 -115 0 -115 -788 0 -788 0 -135 144 c-73 79 -142 145
-151 145 -21 1 -22 -7 -18 -171 l2 -118 -26 0 -26 0 0 550 0 550 900 0 900 0
0 -25z m-15250 -33 c0 -4 -189 -196 -420 -427 l-420 -420 -27 28 -28 27 400
400 400 400 47 0 c27 0 48 -3 48 -8z m12868 -189 l3 -153 -56 0 -55 0 0 156 0
155 53 -3 52 -3 3 -152z m-1378 -18 l0 -35 -310 0 -310 0 0 35 0 35 310 0 310
0 0 -35z m1378 -302 l3 -153 -121 0 -120 0 0 150 0 149 58 4 c31 2 84 3 117 3
l60 -1 3 -152z m-8478 -1668 l0 -1815 226 0 225 0 -3 -22 c-3 -23 -3 -23 -225
-26 l-223 -2 0 -305 0 -305 225 0 225 0 0 -25 0 -25 -128 0 c-100 0 -136 4
-162 17 -32 15 -37 15 -81 0 -26 -9 -54 -17 -63 -17 -14 0 -16 -38 -16 -390
l0 -390 -1077 2 -1078 3 -3 23 -3 22 1060 0 1061 0 0 2535 c0 2528 0 2535 20
2535 20 0 20 -7 20 -1815z m1670 10 l0 -1805 -367 -2 -368 -3 -3 -22 c-2 -13
-8 -23 -13 -23 -6 0 -7 -9 -4 -21 4 -12 3 -24 -1 -28 -33 -24 -49 -182 -22
-209 19 -19 -17 -15 -61 8 -67 34 -121 114 -121 180 0 46 -14 36 -28 -22 -21
-91 -88 -162 -162 -173 -19 -3 -29 -3 -22 1 28 13 9 214 -21 214 -5 0 -5 5 -2
10 4 6 4 29 0 50 l-7 40 -219 0 -219 0 0 46 0 45 26 -20 c66 -52 164 -5 164
78 0 88 -106 138 -168 81 l-22 -21 0 902 0 902 23 -21 c16 -16 36 -22 66 -22
114 0 141 152 35 196 -36 15 -73 7 -106 -23 -17 -15 -18 20 -18 725 l0 742
820 0 820 0 0 -1805z m70 96 c0 -1549 1 -1709 16 -1715 9 -3 137 -6 285 -6
262 0 269 0 269 -20 0 -20 -7 -20 -285 -20 l-285 0 0 -80 c0 -79 0 -80 25 -80
20 0 25 -5 25 -25 l0 -25 -417 2 -418 3 -3 23 -3 22 370 0 371 0 0 1815 0
1815 25 0 25 0 0 -1709z m5359 937 c0 -438 -4 -761 -9 -745 -12 39 -29 58 -67
74 -28 11 -38 11 -65 0 -74 -32 -97 -110 -49 -161 l24 -26 -70 0 c-45 0 -74 5
-81 13 -15 18 -18 245 -3 260 15 15 14 32 -4 47 -11 9 -12 16 -5 25 18 22 -4
25 -69 10 -81 -19 -133 -47 -182 -96 -39 -39 -99 -148 -99 -179 0 -8 -8 -1
-19 15 -10 17 -37 39 -59 49 -57 26 -70 13 -74 -72 l-3 -67 -753 -3 -754 -2
21 26 c25 32 28 90 5 123 -9 13 -32 29 -50 37 -93 39 -182 -89 -113 -162 l22
-24 -1087 0 -1087 0 20 26 c25 32 27 90 5 123 -9 13 -32 29 -50 37 -64 27
-134 -24 -134 -97 0 -22 8 -47 21 -63 l20 -26 -295 0 -296 0 0 815 0 815 2670
0 2670 0 -1 -772z m61 -338 l0 -1110 -22 0 -23 0 0 1110 0 1110 23 0 22 0 0
-1110z m1060 215 c0 -590 -3 -895 -10 -895 -7 0 -10 305 -10 895 0 590 3 895
10 895 7 0 10 -305 10 -895z m-904 874 c3 -6 3 -76 -1 -155 l-7 -144 -59 0
-59 0 0 148 c0 82 3 152 7 155 11 11 111 8 119 -4z m344 -69 l0 -80 -160 0
-160 0 0 80 0 80 160 0 160 0 0 -80z m330 0 l0 -80 -155 0 -155 0 0 80 0 80
155 0 155 0 0 -80z m188 -7 l3 -83 -81 0 -80 0 0 85 0 86 78 -3 77 -3 3 -82z
m2839 -420 c-1 -93 -3 -17 -3 167 0 184 2 260 3 168 2 -93 2 -243 0 -335z m43
322 c0 -110 -4 -175 -10 -175 -6 0 -10 65 -10 175 0 110 4 175 10 175 6 0 10
-65 10 -175z m30 0 c0 -110 -4 -175 -10 -175 -6 0 -10 65 -10 175 0 110 4 175
10 175 6 0 10 -65 10 -175z m-100 -55 l0 -180 -25 0 -25 0 0 180 0 180 25 0
25 0 0 -180z m-2937 63 l137 -6 0 -811 0 -811 -117 -117 -118 -118 -59 0 c-44
0 -62 4 -72 18 -16 21 -20 242 -4 242 12 0 13 47 1 54 -4 3 -6 17 -3 31 4 25
-11 35 -23 15 -3 -5 -21 -10 -39 -10 -51 0 -149 -55 -200 -111 -27 -30 -54
-75 -67 -109 l-21 -59 -25 30 c-31 36 -76 61 -97 53 -14 -6 -16 78 -16 855 l0
861 293 0 c162 0 355 -3 430 -7z m425 -280 l3 -153 -121 0 -120 0 0 155 0 156
118 -3 117 -3 3 -152z m-1166 -23 l-3 -150 -60 0 -59 0 0 150 0 150 63 0 62 0
-3 -150z m3748 -80 c0 -113 -4 -180 -10 -180 -6 0 -10 67 -10 180 0 113 4 180
10 180 6 0 10 -67 10 -180z m30 0 c0 -113 -4 -180 -10 -180 -6 0 -10 67 -10
180 0 113 4 180 10 180 6 0 10 -67 10 -180z m-16392 13 l-62 -63 -28 27 -28
27 62 63 62 63 28 -27 28 -27 -62 -63z m2645 20 c-18 -2 -48 -2 -65 0 -18 2
-4 4 32 4 36 0 50 -2 33 -4z m25 -20 c-26 -2 -71 -2 -100 0 -29 2 -8 3 47 3
55 0 79 -1 53 -3z m-220 -25 c9 -9 12 -356 12 -1500 l0 -1488 80 0 80 0 0
-745 c0 -672 2 -745 16 -753 9 -5 14 -18 12 -28 -2 -14 -13 -20 -41 -22 l-37
-3 0 331 c0 323 -1 332 -20 337 -26 7 -26 39 0 46 20 5 20 12 18 399 l-3 393
-77 3 -78 3 0 1023 c0 1015 0 1024 -20 1029 -12 3 -20 14 -20 26 0 14 6 21 20
21 20 0 20 7 20 470 0 485 1 495 38 458z m-2548 -23 l24 -26 -259 -261 c-143
-144 -261 -264 -263 -267 -4 -7 -52 41 -52 52 0 11 510 527 520 527 4 0 17
-11 30 -25z m13878 -182 l3 -153 -121 0 -120 0 0 155 0 156 118 -3 117 -3 3
-152z m-1166 -23 l-3 -150 -60 0 -59 0 0 150 0 150 63 0 62 0 -3 -150z m3678
61 c0 -6 -15 -11 -32 -13 l-33 -3 -3 -197 -2 -198 35 0 35 0 0 -170 0 -170
-65 0 -65 0 0 -75 0 -75 65 0 65 0 0 -148 0 -147 -310 -310 -309 -309 -26 24
-26 24 -139 -139 -140 -139 25 -26 25 -26 -39 -38 c-27 -26 -43 -35 -53 -30
-7 5 -70 68 -140 139 l-127 131 112 112 111 112 -399 400 c-220 220 -402 405
-404 411 -2 6 85 99 193 208 l196 197 0 56 0 56 146 141 c147 141 166 170 112
172 -13 1 -76 0 -140 -1 -114 -2 -118 -1 -118 19 l0 21 725 0 c444 0 725 -4
725 -9z m27 -563 c-1 -106 -2 -20 -2 192 0 212 1 298 2 193 2 -106 2 -280 0
-385z m43 367 c0 -110 -4 -175 -10 -175 -6 0 -10 65 -10 175 0 110 4 175 10
175 6 0 10 -65 10 -175z m30 0 c0 -110 -4 -175 -10 -175 -6 0 -10 65 -10 175
0 110 4 175 10 175 6 0 10 -65 10 -175z m-100 -15 l0 -180 -25 0 -25 0 0 180
0 180 25 0 25 0 0 -180z m-2512 -147 l3 -153 -121 0 -120 0 0 155 0 156 118
-3 117 -3 3 -152z m-1166 -23 l-3 -150 -60 0 -59 0 0 150 0 150 63 0 62 0 -3
-150z m-13255 -12 c13 -12 23 -26 23 -33 0 -6 -25 -35 -55 -65 l-55 -54 -27
26 -27 27 55 60 c30 32 56 59 58 60 3 0 15 -9 28 -21z m17003 -172 c0 -106 -4
-177 -10 -181 -7 -4 -10 57 -10 174 0 114 4 181 10 181 6 0 10 -65 10 -174z
m30 -6 c0 -113 -4 -180 -10 -180 -6 0 -10 67 -10 180 0 113 4 180 10 180 6 0
10 -67 10 -180z m-17140 14 c0 -6 -83 -93 -185 -192 l-184 -181 67 -65 c64
-62 66 -66 49 -83 -17 -17 -21 -14 -110 75 l-92 92 205 205 204 204 23 -21
c13 -12 23 -27 23 -34z m15500 33 c0 -1 -60 -61 -132 -132 l-133 -130 130 133
c120 123 135 137 135 129z m-2728 -29 c-15 -15 -16 -54 -2 -63 6 -4 10 -58 10
-130 0 -90 3 -124 13 -128 9 -3 9 -7 0 -18 -11 -14 -2 -48 12 -41 3 1 82 2
175 2 l170 0 0 -887 c-1 -746 -3 -883 -14 -858 -7 17 -22 37 -32 46 -76 65
-195 -12 -164 -107 31 -94 156 -101 196 -10 13 30 13 28 14 -41 l0 -73 -602
-2 c-528 -3 -603 -5 -603 -18 0 -8 -4 -20 -8 -27 -4 -6 -4 -19 -1 -28 4 -9 3
-20 -2 -24 -33 -23 -50 -181 -22 -209 24 -24 -28 -12 -74 17 -53 34 -97 101
-105 161 -6 43 -23 55 -23 16 0 -62 -46 -140 -104 -176 -42 -26 -106 -46 -88
-28 16 16 16 185 0 190 -7 3 -12 21 -12 41 0 20 -3 37 -7 37 -4 0 -9 10 -11
23 -2 14 -11 23 -25 25 l-23 3 0 277 c0 152 -4 283 -9 291 -5 8 -16 11 -29 7
-13 -4 -22 -1 -26 9 -4 12 -27 15 -129 15 -84 0 -127 4 -135 12 -10 10 -17 10
-33 0 -28 -18 -30 -13 -18 34 34 126 149 225 279 241 55 6 68 23 19 23 -24 0
-41 10 -73 43 l-41 42 60 3 c32 2 65 7 71 13 6 5 18 7 27 3 34 -13 37 27 37
475 l0 441 448 2 c246 0 453 1 460 1 8 -1 12 9 11 26 -5 68 2 161 12 161 6 0
29 -17 50 -39 29 -28 39 -47 39 -70 0 -17 5 -31 10 -31 6 0 10 10 10 22 0 80
63 199 135 254 52 40 191 86 157 52z m25 -50 c-2 -13 -4 -3 -4 22 0 25 2 35 4
23 2 -13 2 -33 0 -45z m565 -93 l-3 -145 -60 0 -59 0 0 145 0 145 63 0 62 0
-3 -145z m-10764 -67 l-2 -123 -5 115 -6 115 -100 3 -99 3 -758 -758 c-417
-417 -758 -754 -758 -749 0 4 336 347 748 762 l747 753 118 0 117 1 -2 -122z
m12102 119 c0 -1 -66 -67 -147 -147 l-148 -145 145 148 c134 137 150 152 150
144z m-12268 -88 c-2 -33 -1 -71 2 -85 6 -22 11 -24 70 -24 l63 0 2 -332 1
-333 -81 80 c-44 44 -157 160 -252 258 l-171 178 160 160 c121 121 165 159
184 159 24 0 25 -2 22 -61z m138 -14 l0 -75 -60 0 -60 0 0 75 0 75 60 0 60 0
0 -75z m3639 30 c32 -16 41 -33 41 -76 0 -44 -15 -66 -54 -79 -64 -21 -124 30
-112 95 12 62 69 90 125 60z m2290 0 c33 -16 41 -33 41 -81 0 -62 -62 -99
-119 -70 -39 21 -54 50 -47 91 12 62 69 90 125 60z m2290 0 c33 -16 41 -33 41
-81 0 -91 -124 -110 -160 -24 -11 27 -11 37 3 66 25 51 67 65 116 39z m2290 0
c16 -8 34 -28 41 -45 18 -42 -5 -91 -51 -110 -28 -12 -36 -11 -68 6 -63 34
-64 119 -1 151 32 16 45 16 79 -2z m1352 -14 c56 -56 22 -145 -56 -145 -79 0
-115 97 -54 148 40 34 74 33 110 -3z m-11638 -50 c3 -11 2 -22 -1 -25 -3 -3
-43 -6 -89 -6 -82 0 -83 0 -83 25 0 25 1 25 84 25 74 0 84 -2 89 -19z m14247
-41 l0 -60 -55 0 -55 0 0 60 0 60 55 0 55 0 0 -60z m98 -175 l2 -230 -327
-328 -327 -327 -28 27 -27 28 315 315 314 315 0 218 0 218 38 -3 37 -3 3 -230z
m-3988 155 c0 -36 -2 -40 -26 -40 l-25 0 20 26 c12 15 21 33 21 40 0 8 2 14 5
14 3 0 5 -18 5 -40z m-10355 -8 c6 -4 11 -22 13 -41 4 -52 35 -114 83 -166 46
-49 89 -76 154 -94 35 -9 42 -8 62 11 l23 21 0 -86 0 -87 -255 0 -255 0 0 75
0 74 43 11 c23 6 47 13 54 15 20 7 10 79 -12 89 -31 14 -85 109 -85 150 l0 36
83 0 c45 0 87 -4 92 -8z m10570 -162 l0 -150 -62 0 -63 0 0 150 0 150 63 0 62
0 0 -150z m1002 120 l44 -5 -61 -60 -60 -59 0 78 c0 71 2 77 16 65 9 -7 36
-16 61 -19z m-11240 -132 c-2 -29 -3 -6 -3 52 0 58 1 81 3 53 2 -29 2 -77 0
-105z m12340 -345 l-107 -108 -195 195 -195 195 107 107 108 108 195 -195 195
-195 -108 -107z m-12870 285 c-2 -29 -3 -6 -3 52 0 58 1 81 3 53 2 -29 2 -77
0 -105z m8793 -277 l0 -430 -22 -15 c-13 -10 -43 -16 -73 -16 -68 0 -79 -12
-53 -59 12 -20 32 -46 46 -57 l24 -22 -38 -12 c-22 -6 -62 -28 -91 -47 -83
-56 -124 -120 -147 -229 -14 -64 -13 -66 6 -61 11 3 21 0 25 -9 7 -19 49 -18
57 1 4 12 27 15 113 15 165 0 153 23 153 -296 l0 -264 -320 0 -320 0 0 24 c0
18 7 25 30 29 36 8 70 58 70 104 0 41 -40 88 -81 97 -34 7 -94 -16 -103 -40
-5 -12 -157 -14 -1059 -14 l-1054 0 -22 24 c-30 32 -75 40 -116 20 -19 -8 -36
-22 -39 -30 -4 -12 -53 -14 -286 -14 l-280 0 0 865 0 865 1790 0 1790 0 0
-429z m3010 416 c0 -1 -87 -88 -192 -192 l-193 -190 190 193 c176 178 195 197
195 189z m-553 -254 c-1 -43 -3 -8 -3 77 0 85 2 120 3 78 2 -43 2 -113 0 -155z
m-11202 187 c8 -16 14 -33 14 -37 -4 -17 14 -43 29 -43 25 0 1 -17 -35 -25
l-33 -7 0 71 c0 39 2 71 5 71 2 0 11 -13 20 -30z m-333 -257 l258 -258 0 -121
0 -120 -58 -60 c-31 -32 -179 -182 -327 -332 l-269 -273 87 -87 87 -87 0 -87
c0 -74 3 -87 18 -91 9 -3 4 -5 -13 -6 l-30 -1 3 92 3 93 -96 95 c-52 52 -95
99 -95 105 0 6 144 154 320 330 l320 319 0 106 0 105 -234 236 -234 236 -544
-544 c-299 -299 -544 -545 -545 -547 -2 -1 103 -110 231 -242 l235 -239 -90
-90 c-85 -86 -89 -89 -106 -72 -11 11 -14 20 -8 25 6 4 39 38 75 75 l64 68
-214 214 c-118 118 -219 215 -225 215 -5 0 -28 -18 -50 -40 -38 -37 -43 -39
-55 -25 -12 14 18 48 246 278 638 645 979 987 984 987 3 0 121 -116 262 -257z
m-2403 55 c68 -71 120 -128 115 -128 -11 0 -254 242 -254 253 0 16 14 3 139
-125z m15534 -376 c279 -279 507 -512 507 -517 0 -5 -229 219 -510 500 -485
485 -511 509 -527 492 -17 -16 7 -42 489 -525 l506 -507 -316 -322 -317 -323
-399 0 c-220 0 -397 2 -394 5 3 3 178 5 389 5 l384 0 148 147 c99 99 144 150
137 157 -16 16 -11 30 6 15 13 -11 38 10 180 152 l164 164 -130 130 -130 130
-170 -170 c-93 -93 -170 -165 -170 -160 0 5 74 84 165 175 l165 165 -135 135
-135 135 -162 -162 c-160 -160 -162 -162 -143 -183 10 -11 13 -20 8 -20 -6 0
-16 7 -23 16 -12 13 -25 4 -102 -73 l-88 -88 -2 -170 -2 -170 -6 170 -5 170
175 177 174 177 -22 24 -22 23 80 79 c44 44 79 84 78 90 0 5 -86 93 -190 195
l-188 185 -255 -255 -255 -255 0 -110 c0 -73 -4 -115 -12 -123 -9 -9 -9 -12 0
-12 7 0 12 -31 14 -92 l3 -93 35 -6 35 -6 -37 -2 -38 -1 0 -85 c0 -78 -2 -85
-20 -85 -20 0 -20 7 -20 319 l0 319 281 286 c155 157 284 286 288 286 3 0 234
-228 514 -508z m-15439 229 c-6 -7 -254 241 -254 254 0 5 58 -49 130 -120 71
-71 127 -131 124 -134z m2118 192 l67 -68 -36 -92 -35 -91 -54 -4 -54 -3 0
144 c0 120 3 147 17 163 9 10 19 18 22 18 4 0 36 -30 73 -67z m13804 -960 c-8
-8 -995 985 -996 1002 0 5 226 -216 502 -492 276 -276 499 -506 494 -510z
m-13936 832 l0 -134 -30 -16 c-16 -9 -30 -13 -30 -11 0 3 -11 46 -25 98 l-25
93 52 52 c29 29 54 53 55 53 2 0 3 -61 3 -135z m606 -1692 c-2 -2 -10 -1 -19
3 -12 4 -16 24 -19 89 -3 73 -1 85 15 89 14 3 17 16 17 84 l0 81 -32 3 -33 3
-3 395 -2 396 35 34 35 34 2 305 c2 169 4 -103 5 -603 2 -500 1 -911 -1 -913z
m10801 1740 c-2 -16 -4 -3 -4 27 0 30 2 43 4 28 2 -16 2 -40 0 -55z m-29 10
l-3 -58 -62 -3 -63 -3 0 61 0 60 65 0 66 0 -3 -57z m1724 -130 c158 -159 176
-180 164 -195 -7 -10 -17 -18 -22 -18 -6 0 -34 25 -64 55 -59 60 -82 67 -111
33 -45 -53 -44 -54 22 -123 61 -63 62 -65 44 -85 -17 -19 -17 -20 4 -37 21
-18 20 -19 -140 -185 -116 -121 -167 -168 -184 -168 -29 0 -35 -29 -35 -156 0
-56 -4 -94 -10 -94 -12 0 -13 -32 -2 -45 5 -6 -48 48 -117 119 -76 77 -127
138 -129 152 -3 21 -9 24 -48 24 l-44 0 0 40 0 40 68 0 c40 0 73 5 80 12 18
18 16 163 -3 182 -8 8 -12 22 -9 30 8 21 -19 21 -36 1 -8 -9 -30 -15 -56 -15
l-44 0 0 58 0 57 130 135 130 135 25 -28 c15 -17 32 -27 40 -23 22 8 18 22
-10 40 -14 9 -25 22 -25 29 0 11 189 207 200 207 3 0 85 -80 182 -177z
m-12827 -52 l-54 -55 -38 22 c-44 25 -44 26 0 130 l30 73 59 -58 58 -58 -55
-54z m13525 -56 l195 -195 -108 -107 -107 -108 -197 197 -198 198 105 105 c58
58 107 105 110 105 3 0 93 -88 200 -195z m-13902 106 c12 -43 22 -87 22 -98 0
-24 -67 -90 -79 -77 -21 23 -91 124 -91 131 0 9 112 123 121 123 3 0 16 -35
27 -79z m977 47 c-4 -13 -128 -553 -204 -888 l-40 -175 0 538 -1 537 125 0
c95 0 123 -3 120 -12z m264 -520 l-1 -533 -68 305 c-38 168 -92 404 -119 526
-28 121 -51 223 -51 227 0 4 54 7 120 7 l120 0 -1 -532z m10204 515 c-18 -2
-48 -2 -65 0 -18 2 -4 4 32 4 36 0 50 -2 33 -4z m640 0 c-18 -2 -48 -2 -65 0
-18 2 -4 4 32 4 36 0 50 -2 33 -4z m-13679 -282 c-6 -7 -254 241 -254 254 0 5
58 -49 130 -120 71 -71 127 -131 124 -134z m2711 -307 c69 -308 125 -562 125
-566 0 -5 -115 -8 -256 -8 l-256 0 5 28 c4 15 56 248 117 517 61 270 116 514
122 543 6 29 13 51 15 48 2 -2 60 -255 128 -562z m-2725 281 c0 -5 -58 49
-130 120 -71 71 -130 134 -130 140 0 5 59 -49 130 -120 72 -71 130 -134 130
-140z m2124 186 l69 -69 -99 -32 c-59 -19 -100 -27 -102 -21 -2 5 -14 25 -26
43 l-23 33 56 58 c30 31 56 57 56 57 0 0 31 -31 69 -69z m-630 -45 c25 -36 46
-69 46 -74 0 -4 -11 -19 -25 -32 l-26 -24 -62 62 -61 62 34 35 c19 19 37 35
41 35 4 0 28 -29 53 -64z m326 44 c0 -17 -72 -190 -81 -196 -10 -6 -13 189 -2
199 10 11 83 8 83 -3z m61 -17 c16 -10 29 -20 29 -23 0 -3 -29 -35 -65 -70
-36 -35 -65 -60 -65 -55 0 14 61 165 67 165 3 0 18 -8 34 -17z m-172 -100 l-1
-108 -25 95 c-23 89 -23 95 -7 107 10 7 21 13 26 13 4 0 8 -48 7 -107z m11191
-74 c0 -97 -4 -148 -10 -144 -6 4 -10 65 -10 151 0 89 4 144 10 144 6 0 10
-57 10 -151z m40 1 c0 -93 -4 -150 -10 -150 -6 0 -10 57 -10 150 0 93 4 150
10 150 6 0 10 -57 10 -150z m-11270 37 c18 -66 20 -91 12 -99 -7 -7 -13 -10
-15 -7 -2 2 -25 35 -52 72 l-48 68 34 35 c18 19 36 31 40 27 4 -5 17 -48 29
-96z m13180 78 l23 -25 -21 0 c-15 0 -22 -6 -22 -20 0 -24 -8 -25 -32 -3 -22
20 -23 31 -1 55 21 23 25 23 53 -7z m-12895 -21 c9 -20 15 -38 12 -40 -6 -6
-149 -54 -161 -54 -6 0 19 29 54 65 35 36 67 65 71 65 4 0 14 -16 24 -36z
m-540 -34 l59 -60 -27 -27 -27 -28 -62 62 -62 62 24 26 c13 14 26 25 30 25 3
0 32 -27 65 -60z m813 -23 c2 -40 -1 -59 -10 -62 -7 -2 -59 -5 -116 -7 l-103
-3 3 39 3 39 85 28 c47 15 96 27 110 26 23 -2 25 -6 28 -60z m12662 28 c0 -8
-4 -15 -10 -15 -5 0 -10 7 -10 15 0 8 5 15 10 15 6 0 10 -7 10 -15z m10 -50
c-44 -46 -60 -34 -18 14 19 22 37 34 42 29 6 -5 -3 -22 -24 -43z m-13548 -22
l58 -57 -27 -28 -27 -28 -58 57 c-32 32 -58 62 -58 67 0 13 31 46 44 46 6 0
36 -26 68 -57z m260 -12 c43 -63 45 -69 30 -85 -15 -15 -21 -12 -79 46 l-63
62 22 23 c12 13 26 23 32 23 6 -1 32 -32 58 -69z m13250 47 c-9 -9 -15 -9 -24
0 -9 9 -7 12 12 12 19 0 21 -3 12 -12z m-12882 -28 c0 -17 -6 -32 -12 -35 -29
-9 -188 -10 -185 0 3 9 156 62 185 64 7 1 12 -11 12 -29z m-1696 -239 c-6 -7
-254 241 -254 254 0 5 58 -49 130 -120 71 -71 127 -131 124 -134z m14814 226
l22 -23 -54 -53 c-64 -63 -71 -82 -44 -116 43 -55 54 -53 124 16 l64 63 50
-49 c27 -27 50 -54 50 -59 0 -13 -131 -146 -143 -146 -5 0 -4 7 3 15 28 33 2
38 -174 32 l-171 -7 -30 25 -30 25 150 150 c82 82 152 150 156 150 3 0 15 -10
27 -23z m-14828 -254 c0 -4 -58 51 -130 122 -71 71 -130 134 -130 140 1 11
260 -251 260 -262z m1473 225 c-23 -24 -129 -133 -236 -243 -107 -110 -198
-197 -201 -194 -7 6 455 479 469 479 5 0 -10 -19 -32 -42z m-458 -28 l59 -60
-29 -30 -29 -30 -58 57 c-32 32 -58 62 -58 67 0 11 40 56 50 56 3 0 32 -27 65
-60z m298 -92 l-27 -28 -58 57 c-32 32 -58 62 -58 67 0 5 10 20 22 33 l22 24
63 -63 63 -62 -27 -28z m647 89 c0 -25 -9 -42 -39 -71 l-39 -38 -85 22 c-111
29 -110 29 -89 72 19 40 20 40 195 46 l57 2 0 -33z m-260 18 c0 -15 -32 -65
-41 -65 -25 0 -179 45 -179 52 0 6 48 11 173 16 26 1 47 0 47 -3z m13188 -38
c41 -42 31 -56 -12 -17 -17 17 -35 30 -39 30 -5 0 -5 5 -2 10 10 16 19 12 53
-23z m-13943 -47 l59 -60 -22 -22 -22 -22 0 22 c0 12 -4 22 -10 22 -5 0 -10
-10 -10 -22 0 -20 -8 -15 -56 34 l-57 56 24 25 c13 14 26 26 29 26 3 1 32 -26
65 -59z m270 0 l59 -60 -27 -27 -27 -28 -62 62 -62 62 24 26 c13 14 26 25 30
25 3 0 32 -27 65 -60z m366 20 l67 -20 -35 -35 -35 -35 -64 45 c-71 51 -85 82
-32 71 17 -3 62 -15 99 -26z m13274 10 c-3 -5 -13 -10 -21 -10 -8 0 -12 5 -9
10 3 6 13 10 21 10 8 0 12 -4 9 -10z m25 -25 c0 -8 -4 -15 -10 -15 -5 0 -10 7
-10 15 0 8 5 15 10 15 6 0 10 -7 10 -15z m-13460 -21 c0 -22 -2 -25 -15 -14
-12 10 -13 16 -4 26 16 20 19 18 19 -12z m13396 11 c-4 -10 1 -15 14 -15 25 0
25 -12 0 -35 -36 -33 -78 9 -45 45 21 24 40 26 31 5z m-13293 -49 c37 -27 37
-27 20 -51 -23 -32 -34 -31 -66 3 -20 21 -27 38 -27 67 0 35 1 37 18 24 9 -8
34 -27 55 -43z m-485 -243 l-32 -33 138 -139 139 -139 -105 -184 c-86 -151
-109 -183 -129 -186 -20 -2 -77 51 -319 293 l-295 295 190 190 190 190 127
-127 128 -127 -32 -33z m115 229 l57 -58 -30 -29 -30 -29 -60 59 -60 59 27 28
c15 15 29 28 33 28 3 0 31 -26 63 -58z m621 36 c44 -12 83 -23 85 -25 6 -5
-111 -123 -122 -123 -7 0 -107 69 -131 91 -12 11 51 79 72 79 8 0 51 -10 96
-22z m14068 5 c18 -16 14 -22 -109 -145 -120 -121 -128 -127 -145 -111 -18 16
-13 23 104 143 68 70 125 128 127 129 3 0 13 -7 23 -16z m-14422 -98 l0 -59
-45 44 c-25 24 -45 49 -45 54 0 5 10 20 21 32 21 22 23 22 45 6 20 -14 23 -26
24 -77z m11240 -465 l0 -560 -620 0 -620 0 0 25 0 25 598 2 597 3 0 533 0 532
23 0 22 0 0 -560z m1222 520 c-2 -16 -6 -30 -8 -30 -2 0 -4 14 -4 30 0 17 4
30 8 30 5 0 7 -13 4 -30z m116 -57 l-3 -68 -47 -3 c-37 -2 -48 0 -48 12 0 26
12 46 27 46 8 0 13 6 10 13 -2 6 -11 11 -18 9 -8 -2 -1 10 15 27 17 17 38 31
48 31 17 0 19 -7 16 -67z m19 -35 c-2 -18 -4 -4 -4 32 0 36 2 50 4 33 2 -18 2
-48 0 -65z m1871 79 c9 -10 -13 -37 -93 -117 -91 -91 -106 -102 -120 -90 -14
12 -5 25 87 117 56 57 106 103 109 103 4 0 11 -6 17 -13z m-14805 -55 l57 -58
-28 -27 -28 -27 -54 55 c-47 48 -51 55 -32 55 13 0 20 4 17 10 -3 6 -15 10
-27 10 -19 0 -19 1 3 20 13 10 26 19 29 20 3 0 31 -26 63 -58z m877 -331 l0
-390 -37 -3 -38 -3 0 -55 c0 -46 -3 -56 -19 -60 -14 -4 -25 -25 -39 -80 -11
-41 -22 -77 -24 -79 -2 -3 -11 5 -19 18 -9 12 -22 20 -28 18 -14 -6 -156 98
-156 113 0 6 -11 10 -25 10 -25 0 -25 1 -25 83 l0 83 -82 83 -81 82 284 285
c156 156 285 284 286 284 2 0 3 -175 3 -389z m-593 317 c29 -29 53 -58 53 -65
0 -8 -13 -14 -32 -14 -25 -1 -27 -3 -10 -6 22 -4 26 -23 6 -30 -5 -2 -36 24
-69 57 l-59 60 24 25 c13 14 26 25 29 25 3 0 29 -23 58 -52z m288 5 c36 -26
65 -49 65 -53 0 -3 -16 -21 -35 -40 l-35 -34 -62 61 -62 62 24 26 c13 14 27
25 32 25 4 0 37 -21 73 -47z m-1371 -222 c-6 -7 -254 241 -254 254 0 5 58 -49
130 -120 71 -71 127 -131 124 -134z m1194 236 l22 -23 -25 -24 -25 -23 0 46
c0 26 1 47 3 47 2 0 13 -10 25 -23z m13669 -59 c35 -34 63 -67 63 -73 0 -6
-25 -35 -55 -65 -30 -30 -55 -62 -55 -71 0 -15 62 -79 76 -79 3 0 35 28 70 62
35 33 64 57 64 52 0 -5 -67 -76 -148 -157 l-149 -148 -17 26 c-15 22 -17 50
-15 198 2 175 -3 195 -36 167 -8 -7 -15 -9 -15 -4 0 9 141 154 149 154 3 0 34
-28 68 -62z m-14997 -73 c68 -68 121 -128 117 -132 -8 -7 -230 208 -248 240
-22 39 13 11 131 -108z m13790 54 l55 -6 -62 -1 -63 -2 1 33 c1 29 2 30 8 7 6
-22 14 -26 61 -31z m-12631 -13 c28 -30 51 -59 51 -64 0 -5 -11 -19 -25 -32
l-26 -24 -61 62 -62 61 24 26 c13 14 29 25 35 25 7 0 35 -24 64 -54z m268 -3
c29 -32 53 -61 53 -64 0 -3 -11 -16 -25 -29 l-26 -24 -61 62 -62 61 24 26 c13
14 28 25 34 25 5 0 34 -26 63 -57z m12913 12 c22 -23 25 -24 46 -10 18 12 56
15 163 15 l139 0 -5 -22 c-4 -13 -37 -56 -75 -96 -37 -39 -68 -76 -68 -82 0
-5 15 -23 33 -40 43 -41 66 -34 142 40 33 32 70 61 82 64 21 7 21 7 16 -136
-2 -79 -10 -154 -16 -167 -9 -19 -8 -25 6 -36 9 -7 17 -16 17 -21 0 -6 -24
-33 -53 -62 l-53 -52 -49 50 c-27 27 -56 50 -64 50 -22 0 -131 -111 -131 -133
0 -10 20 -40 45 -66 25 -26 45 -51 45 -55 0 -3 -42 -6 -92 -5 -66 0 -86 3 -70
9 12 5 22 13 22 16 0 4 -58 63 -130 132 l-130 124 0 181 0 182 72 72 c40 40
75 73 79 73 3 0 16 -11 29 -25z m-13200 -140 c0 -5 -12 -18 -26 -29 l-26 -18
-59 58 -59 58 27 28 27 28 58 -57 c32 -32 58 -62 58 -68z m253 -27 l-27 -28
-33 32 c-29 29 -33 38 -33 87 l0 55 60 -59 60 -59 -27 -28z m-123 96 c0 -22
-2 -25 -15 -14 -12 10 -13 16 -4 26 16 20 19 18 19 -12z m13390 -49 c-30 -30
-59 -55 -64 -55 -6 0 16 27 49 60 32 33 61 57 64 54 3 -2 -20 -29 -49 -59z
m440 13 c42 -47 37 -56 -8 -17 -21 19 -37 37 -35 42 7 12 12 9 43 -25z m440
-22 c0 -7 -36 -47 -80 -91 l-81 -80 -56 59 -56 58 -221 -221 -221 -221 85 -85
c75 -75 83 -87 69 -100 -13 -13 -26 -4 -114 85 l-100 100 252 252 253 253 45
-45 45 -44 67 66 67 67 23 -21 c13 -12 23 -26 23 -32z m-14493 -103 l-27 -27
-55 54 c-30 30 -55 59 -55 64 0 5 10 20 22 33 l22 24 60 -61 61 -60 -28 -27z
m203 127 c15 -15 20 -33 20 -77 l0 -57 -45 44 c-25 24 -45 49 -45 54 0 9 39
56 47 56 2 0 12 -9 23 -20z m13450 -55 c-30 -30 -59 -55 -64 -55 -6 0 14 25
44 55 30 30 59 55 64 55 6 0 -14 -25 -44 -55z m370 35 c0 -5 -7 -10 -15 -10
-8 0 -15 5 -15 10 0 6 7 10 15 10 8 0 15 -4 15 -10z m-17 -53 c21 5 20 4 -5
-23 l-28 -28 -22 22 -22 22 25 26 24 26 3 -25 c3 -20 7 -24 25 -20z m41 22
c-3 -5 -10 -7 -15 -3 -5 3 -7 10 -3 15 3 5 10 7 15 3 5 -3 7 -10 3 -15z
m-1149 -145 c77 -79 143 -145 147 -144 4 0 9 12 11 28 2 16 5 9 6 -21 1 -41 4
-49 26 -57 39 -15 231 -204 211 -208 -9 -2 -16 -8 -16 -13 0 -5 -35 -9 -79 -9
-97 0 -141 -8 -141 -26 0 -11 -32 -14 -165 -14 l-165 0 0 60 0 60 -45 0 c-32
0 -45 4 -45 14 0 19 -44 26 -169 27 -58 0 -100 3 -93 6 18 7 14 23 -6 23 -13
0 23 41 103 120 81 80 128 120 143 120 13 0 22 6 22 15 0 8 7 15 15 15 12 0
15 16 15 81 l0 82 43 -7 c38 -6 54 -19 182 -152z m-12728 94 c58 -57 64 -75
33 -103 -21 -19 -22 -18 -83 43 l-61 61 24 26 c13 14 26 25 29 25 3 0 29 -23
58 -52z m12890 -90 c-2 -29 -3 -8 -3 47 0 55 1 79 3 53 2 -26 2 -71 0 -100z
m-13957 107 c-7 -9 -15 -13 -18 -10 -3 2 1 11 8 20 7 9 15 13 18 10 3 -2 -1
-11 -8 -20z m1178 2 l22 -23 -25 -24 -25 -23 0 46 c0 26 1 47 3 47 2 0 13 -10
25 -23z m14206 -286 c225 -225 257 -261 248 -277 -6 -11 -99 -107 -206 -214
-186 -185 -197 -194 -213 -177 -17 16 -7 27 187 222 l205 205 -188 188 -188
187 -200 -205 -199 -205 -62 63 -63 62 205 205 c113 113 207 205 210 205 3 0
121 -116 264 -259z m-14379 189 l59 -60 -27 -27 -27 -28 -62 62 -62 62 24 26
c13 14 26 25 30 25 3 0 32 -27 65 -60z m-780 -150 l-25 -26 102 -102 101 -103
27 26 c26 24 27 25 43 7 16 -17 14 -21 -33 -67 l-50 -49 -202 202 -203 202
-182 -182 c-101 -101 -182 -186 -181 -190 2 -4 90 -94 196 -201 105 -106 192
-198 192 -203 0 -6 -5 -15 -12 -22 -10 -10 -56 31 -215 190 -112 112 -203 207
-203 213 0 5 111 121 247 257 l248 248 87 -87 88 -87 -25 -26z m-478 -78
c-119 -119 -217 -219 -217 -222 1 -3 97 -104 215 -225 144 -147 211 -223 205
-229 -7 -7 -87 66 -240 219 l-230 230 232 232 c155 155 236 229 242 223 7 -7
-62 -83 -207 -228z m15983 -224 c0 -13 -443 -458 -456 -458 -8 0 -14 6 -14 12
0 7 98 111 217 230 l218 218 -219 219 c-143 143 -216 223 -211 231 5 8 83 -64
236 -216 126 -126 229 -232 229 -236z m-5453 446 c-3 -3 -12 -4 -19 -1 -8 3
-5 6 6 6 11 1 17 -2 13 -5z m-10282 -84 c3 -5 -1 -10 -10 -10 -9 0 -13 5 -10
10 3 6 8 10 10 10 2 0 7 -4 10 -10z m148 -168 c75 -76 137 -143 137 -149 0 -6
-7 -16 -15 -23 -8 -7 -12 -17 -9 -22 8 -13 -176 -199 -189 -191 -5 3 -28 -14
-52 -37 -24 -23 -48 -41 -53 -39 -17 7 -292 278 -292 288 0 18 300 311 318
311 10 0 80 -62 155 -138z m15257 -17 l154 -156 -144 -144 c-80 -80 -151 -145
-159 -145 -7 0 -31 18 -53 40 -22 22 -43 38 -47 35 -11 -6 -194 182 -187 193
3 5 -1 15 -9 22 -8 7 -15 17 -15 23 0 17 273 287 290 287 9 0 85 -70 170 -155z
m-14982 -72 c-11 -11 -29 3 -102 76 -79 80 -88 92 -76 106 13 15 23 7 102 -76
73 -76 86 -95 76 -106z m567 187 c-9 -14 4 -50 18 -50 7 0 48 -70 92 -156 44
-85 85 -158 90 -162 6 -3 33 -7 62 -8 45 -2 61 -8 117 -50 36 -26 63 -51 61
-54 -8 -13 19 -28 55 -32 l35 -3 18 70 19 70 69 3 69 3 0 -77 c0 -61 -3 -79
-17 -90 -22 -16 -338 -20 -348 -4 -3 6 -15 10 -26 10 -10 0 -19 -4 -19 -10 0
-5 -7 -10 -15 -10 -37 0 -2 -41 180 -211 107 -99 195 -184 195 -188 0 -8 -132
-61 -153 -61 -9 0 -24 -11 -33 -25 -16 -24 -16 -27 2 -40 22 -17 60 -19 69 -5
9 14 108 13 140 -2 19 -9 25 -19 25 -45 l0 -33 -489 0 -489 0 -63 -65 c-34
-36 -68 -65 -73 -65 -6 0 -48 37 -93 82 l-82 82 -20 -25 -20 -24 -112 112
c-108 107 -112 113 -96 131 9 10 17 23 17 28 0 4 -28 37 -62 71 l-62 63 62 63
c34 34 62 67 62 73 0 6 -9 19 -20 29 -21 19 -20 20 87 127 59 59 112 108 117
108 5 0 19 -9 31 -20 l21 -20 84 85 83 86 67 -66 c53 -53 74 -67 100 -68 27
-2 34 2 43 30 18 46 191 353 200 353 5 0 5 -5 2 -10z m142 -92 l72 -73 3 -78
c2 -46 -1 -76 -7 -74 -9 3 -154 274 -155 290 0 18 20 2 87 -65z m1158 -165 l0
-188 83 -3 82 -3 0 -176 c0 -170 -1 -176 -18 -160 -27 24 -37 21 -74 -21 -90
-104 -321 -352 -327 -352 -9 0 -61 128 -61 150 0 8 -7 24 -16 35 -11 15 -18
17 -31 9 -30 -19 -39 -42 -25 -64 14 -23 16 -128 2 -150 -8 -13 -10 -12 -10 3
0 14 -10 17 -60 17 l-60 0 0 50 c0 56 -9 64 -67 64 -18 0 -33 4 -33 8 0 4 -32
8 -71 8 -38 0 -68 3 -66 8 3 4 35 18 71 32 36 13 66 29 66 35 0 5 -81 84 -179
175 -132 122 -176 168 -169 178 8 9 56 12 179 12 93 0 169 4 169 8 0 4 15 8
33 8 70 0 67 -13 67 259 l0 245 258 0 257 0 0 -187z m12208 128 c9 -12 17 -27
17 -35 0 -17 -40 -28 -56 -15 -16 13 -31 -8 -16 -23 12 -12 4 -45 -13 -52 -7
-2 -28 11 -46 30 l-33 34 49 50 c51 52 62 53 98 11z m38 -64 c-13 -12 -21 -15
-17 -7 3 8 9 23 12 33 5 13 10 15 17 8 8 -8 5 -18 -12 -34z m-11460 3 c28 -15
51 -65 43 -95 -12 -49 -77 -79 -129 -59 -19 8 -45 55 -45 84 0 12 13 35 29 51
31 30 67 37 102 19z m2304 -15 c52 -52 19 -145 -51 -145 -46 0 -63 9 -79 41
-22 42 -18 67 14 100 38 37 82 39 116 4z m2290 0 c54 -53 19 -145 -54 -145
-40 1 -62 14 -79 47 -19 35 -14 63 17 94 38 37 82 39 116 4z m2290 0 c53 -52
18 -145 -53 -145 -45 1 -69 17 -83 58 -8 24 -7 37 5 61 30 56 90 68 131 26z
m2296 -4 c36 -36 37 -70 3 -110 -37 -44 -91 -44 -129 1 -71 84 48 186 126 109z
m2586 -179 l24 22 109 -109 110 -109 -22 -23 -22 -24 70 -70 69 -70 -68 -66
-68 -66 23 -24 22 -24 -112 -112 -112 -112 -22 23 -22 22 -73 -72 -73 -72 -57
56 c-52 50 -63 56 -111 61 -48 6 -54 4 -62 -16 -4 -12 -54 -101 -109 -197 -76
-132 -101 -168 -101 -146 0 18 -6 29 -18 33 -11 2 -50 67 -101 166 l-84 162
-52 1 c-60 2 -198 51 -214 75 -7 12 -6 28 2 54 13 44 12 45 -107 87 -43 15
-81 29 -83 32 -2 2 51 55 119 117 68 63 158 149 202 191 72 71 77 78 62 93
-23 23 -65 29 -72 10 -5 -12 -31 -15 -157 -15 -180 0 -187 3 -187 87 l0 53
443 0 442 0 88 88 88 88 106 -108 107 -108 23 22z m-12131 161 c-6 -31 -104
-638 -135 -838 -11 -71 -22 -141 -24 -155 -2 -14 -5 210 -6 498 l-1 522 86 0
86 0 -6 -27z m193 -495 c-1 -288 -4 -512 -6 -498 -2 14 -22 140 -44 280 -22
140 -58 361 -80 491 -21 130 -39 240 -39 243 0 3 38 6 85 6 l85 0 -1 -522z
m-1179 442 l0 -70 -60 0 -60 0 0 70 0 70 60 0 60 0 0 -70z m11770 -10 c0 -64
3 -80 15 -80 12 0 15 -14 15 -65 0 -63 -1 -65 -25 -65 l-25 0 0 145 c0 90 4
145 10 145 6 0 10 -33 10 -80z m120 10 l0 -70 -50 0 -50 0 0 70 0 70 50 0 50
0 0 -70z m-12945 -5 c34 -36 56 -65 50 -65 -12 0 -125 111 -125 123 0 17 19 3
75 -58z m-360 46 c3 -5 2 -12 -3 -15 -5 -3 -9 1 -9 9 0 17 3 19 12 6z m14618
-6 c-3 -9 -8 -14 -10 -11 -3 3 -2 9 2 15 9 16 15 13 8 -4z m-5127 -15 c0 -20
-7 -20 -1043 -20 -1036 0 -1043 0 -1043 20 0 20 7 20 1043 20 1036 0 1043 0
1043 -20z m4654 -15 c-13 -16 -40 -21 -40 -7 0 8 42 30 49 25 2 -1 -2 -9 -9
-18z m-14795 5 c3 -5 1 -10 -4 -10 -6 0 -11 5 -11 10 0 6 2 10 4 10 3 0 8 -4
11 -10z m567 -123 c-67 -67 -125 -118 -129 -114 -9 10 228 248 240 240 5 -3
-45 -60 -111 -126z m14908 -110 c0 -21 -33 6 -137 114 -62 64 -110 119 -106
123 7 7 243 -223 243 -237z m445 234 c3 -5 1 -12 -5 -16 -5 -3 -10 1 -10 9 0
18 6 21 15 7z m-12807 -268 c108 -690 123 -789 129 -810 l5 -23 -182 0 -182 0
5 28 c3 15 43 262 89 549 46 288 86 523 89 523 3 0 24 -120 47 -267z m-2511
99 c-64 -64 -120 -113 -124 -109 -4 4 47 62 112 127 66 66 122 115 124 109 2
-6 -49 -64 -112 -127z m14830 -109 c-10 -9 -248 228 -240 240 3 5 60 -45 126
-111 67 -67 118 -125 114 -129z m-7549 207 c42 -41 101 -42 141 -2 l28 27
1046 0 1047 0 0 -52 0 -53 -1420 0 -1420 0 0 55 0 55 274 0 274 0 30 -30z
m6605 23 c-23 -2 -64 -2 -90 0 -26 2 -7 3 42 3 50 0 71 -1 48 -3z m-4273 -88
l0 -35 376 0 375 0 -3 -22 -3 -23 -392 -3 -393 -2 0 70 c0 68 1 70 20 60 14
-8 20 -21 20 -45z m-2410 -45 c0 -5 -9 -10 -20 -10 -11 0 -20 -7 -20 -15 0
-13 -27 -15 -185 -15 -158 0 -185 2 -185 15 0 8 -7 15 -15 15 -8 0 -15 5 -15
10 0 6 80 10 220 10 140 0 220 -4 220 -10z m190 -15 c0 -25 -1 -25 -85 -25
-84 0 -85 0 -85 25 0 25 1 25 85 25 84 0 85 0 85 -25z m2150 20 c0 -3 -9 -14
-20 -25 -18 -18 -33 -20 -195 -20 -149 0 -175 2 -175 15 0 10 -10 15 -30 15
-20 0 -30 -5 -30 -15 0 -13 -27 -15 -180 -15 -151 0 -182 2 -186 15 -4 8 -16
15 -29 15 -13 0 -25 -7 -29 -15 -4 -13 -35 -15 -185 -15 -150 0 -180 2 -185
15 -3 8 -17 15 -31 15 -16 0 -25 -6 -25 -15 0 -13 -27 -15 -179 -15 -150 0
-180 2 -185 15 -3 8 -17 15 -31 15 -14 0 -28 -7 -31 -15 -5 -13 -35 -15 -185
-15 -152 0 -179 2 -179 15 0 8 -7 15 -15 15 -8 0 -15 5 -15 10 0 7 360 10
1060 10 583 0 1060 -2 1060 -5z m-4155 -85 c19 -37 20 -127 1 -146 -14 -13
-11 -54 4 -54 4 0 5 -12 2 -27 -4 -23 -2 -25 14 -19 10 5 41 15 67 23 57 17
118 69 145 123 l20 40 12 -29 c29 -72 128 -140 203 -141 l37 0 0 114 c0 63 3
121 6 130 5 14 52 16 426 16 400 0 425 -1 502 -22 44 -12 88 -26 96 -32 19
-14 88 -14 115 1 53 28 178 53 272 53 93 0 214 -24 268 -53 27 -15 95 -15 120
0 11 6 48 19 83 29 54 14 71 15 116 5 30 -7 69 -20 88 -30 38 -19 102 -21 133
-4 11 6 50 19 85 28 70 18 132 11 210 -23 42 -18 109 -22 130 -6 8 6 46 19 84
29 67 17 72 17 140 0 39 -10 78 -23 86 -29 20 -16 87 -12 130 6 85 37 134 43
207 23 37 -10 74 -23 81 -28 19 -15 104 -16 122 -2 8 7 51 22 96 34 76 20 104
21 471 21 347 0 392 -2 397 -16 11 -28 6 -144 -6 -164 -10 -16 -10 -24 0 -40
6 -11 12 -29 12 -41 0 -16 4 -19 18 -14 9 4 38 13 65 21 57 18 109 61 144 121
l26 45 14 -34 c28 -66 120 -138 178 -138 l25 0 0 -149 c0 -147 0 -149 -23
-155 -58 -14 -138 -17 -207 -7 -57 8 -94 8 -152 -2 -68 -11 -80 -16 -101 -44
-13 -17 -69 -79 -125 -137 -74 -77 -102 -101 -102 -86 0 11 -4 20 -10 20 -6 0
-10 38 -10 94 0 52 -4 106 -10 120 l-9 26 -456 0 -456 0 -9 -26 c-6 -14 -10
-68 -10 -120 0 -56 -4 -94 -10 -94 -5 0 -10 -10 -10 -22 0 -18 -21 0 -97 82
-54 57 -111 120 -126 139 -26 33 -36 37 -105 49 -60 9 -95 10 -159 1 -63 -9
-99 -9 -154 0 -57 9 -90 9 -147 0 -57 -9 -92 -9 -155 0 -59 8 -99 9 -142 1
-33 -5 -94 -10 -135 -10 -41 0 -82 -4 -90 -10 -11 -7 -16 -42 -21 -142 -4 -73
-4 -137 -1 -143 3 -5 3 -8 1 -5 -3 3 -41 43 -85 90 -43 47 -103 111 -132 143
l-53 57 -186 5 c-120 2 -188 8 -193 15 -5 8 -27 7 -79 -1 -57 -10 -90 -10
-149 0 -59 9 -94 9 -154 -1 -61 -9 -96 -9 -157 1 -59 9 -96 9 -143 1 -37 -6
-167 -10 -318 -8 l-255 3 -3 117 c-3 117 -3 118 -28 124 -61 15 -172 -55 -209
-132 l-17 -36 -20 41 c-26 53 -74 94 -134 116 -27 9 -57 21 -66 26 -27 14 -31
11 -26 -16 3 -14 2 -25 -2 -25 -15 0 -18 -41 -4 -54 18 -19 18 -125 0 -148
-12 -16 -35 -18 -215 -18 l-201 0 0 290 0 290 200 0 199 0 16 -30z m1585 20
c0 -10 -86 -7 -97 4 -3 3 17 6 45 6 29 0 52 -4 52 -10z m100 0 c-18 -11 -80
-10 -80 2 0 4 21 8 48 8 33 0 43 -3 32 -10z m550 0 c0 -10 -86 -7 -97 4 -3 3
17 6 45 6 29 0 52 -4 52 -10z m118 5 c-8 -9 -98 -23 -98 -15 0 15 15 20 58 20
25 0 43 -2 40 -5z m312 -11 c0 -10 -4 -12 -12 -7 -7 4 -20 6 -29 5 -8 -1 -26
2 -40 7 -20 8 -16 10 29 10 41 1 52 -2 52 -15z m117 10 c-11 -11 -97 -14 -97
-4 0 6 23 10 52 10 28 0 48 -3 45 -6z m303 -2 c0 -12 -62 -13 -80 -2 -11 7 -1
10 33 10 26 0 47 -4 47 -8z m117 2 c-11 -11 -97 -14 -97 -4 0 6 23 10 52 10
28 0 48 -3 45 -6z m303 -3 c0 -10 -77 -8 -87 3 -3 3 15 6 40 6 26 0 47 -4 47
-9z m110 -1 c-18 -11 -80 -10 -80 2 0 4 21 8 48 8 33 0 43 -3 32 -10z m320 0
c0 -10 -86 -7 -97 4 -3 3 17 6 45 6 29 0 52 -4 52 -10z m117 4 c-11 -11 -97
-14 -97 -4 0 6 23 10 52 10 28 0 48 -3 45 -6z m2612 2 c-2 -3 -240 -59 -529
-126 -289 -66 -558 -129 -597 -140 l-73 -18 0 119 c0 68 5 129 12 144 l11 25
590 0 c325 0 588 -2 586 -4z m61 -292 l0 -286 -22 6 c-13 3 -279 65 -593 136
-313 72 -578 134 -588 138 -12 5 160 49 470 120 268 62 538 126 598 141 61 16
116 29 123 30 9 1 12 -62 12 -285z m1483 269 c-51 -2 -136 -2 -190 0 -54 1
-12 3 92 3 105 0 149 -2 98 -3z m-7726 -160 c-2 -32 -3 -8 -3 52 0 61 1 87 3
58 2 -29 2 -78 0 -110z m-450 -5 c-2 -29 -3 -6 -3 52 0 58 1 81 3 53 2 -29 2
-77 0 -105z m9590 106 c-3 -3 -12 -4 -19 -1 -8 3 -5 6 6 6 11 1 17 -2 13 -5z
m-15182 -115 l-70 -70 70 -64 c67 -61 69 -65 52 -82 -17 -17 -21 -14 -99 65
l-83 82 85 85 c75 75 86 83 99 70 14 -13 8 -23 -54 -86z m15100 -149 c-81 -81
-101 -93 -112 -64 -4 11 15 36 57 79 l64 64 -63 71 c-53 60 -61 73 -50 86 11
13 24 4 98 -70 l86 -86 -80 -80z m-15440 -170 l-220 -220 210 -210 c166 -166
207 -212 197 -222 -14 -14 -83 51 -314 295 l-132 138 229 229 c153 153 233
226 239 220 7 -7 -63 -84 -209 -230z m15983 -221 c-2 -4 -99 -104 -216 -224
-164 -169 -215 -216 -225 -206 -9 9 36 59 198 221 l210 210 -219 219 c-143
143 -216 223 -211 231 5 8 84 -64 236 -216 126 -126 228 -232 227 -235z
m-13321 399 c-2 -13 -4 -5 -4 17 -1 22 1 32 4 23 2 -10 2 -28 0 -40z m8969
-27 c137 -33 391 -91 564 -131 173 -39 324 -75 335 -80 31 -13 -592 -12 -725
2 -63 6 -133 11 -155 10 -22 0 -83 -2 -135 -4 -52 -2 -107 0 -122 5 l-28 7 0
125 c0 69 4 125 8 125 4 0 120 -27 258 -59z m-11368 26 c8 -9 -39 -63 -188
-217 -110 -113 -200 -207 -200 -209 0 -2 82 -86 183 -187 l182 -183 202 201
203 202 47 -44 c26 -25 50 -46 52 -47 2 -2 -4 -12 -13 -22 -18 -20 -19 -20
-44 10 l-25 31 -103 -103 -103 -102 25 -30 25 -30 -87 -88 -88 -89 -144 143
c-79 78 -191 193 -249 255 l-106 113 204 205 c112 112 207 204 210 204 4 0 11
-6 17 -13z m2382 -172 c0 -89 3 -165 8 -169 4 -4 7 -18 8 -29 2 -71 4 -77 24
-77 20 0 20 -7 20 -330 l0 -330 40 0 c29 0 42 -5 50 -19 14 -27 13 -127 -2
-151 -10 -15 -10 -24 -1 -39 6 -10 9 -29 6 -41 -5 -18 -3 -21 13 -17 10 4 33
9 49 13 77 18 146 74 174 142 l14 33 29 -51 c32 -56 92 -105 148 -120 66 -18
70 -12 70 110 0 60 3 115 6 124 6 14 111 16 1095 16 l1089 0 0 337 c0 306 1
335 15 316 22 -32 80 -40 120 -18 43 23 59 54 52 104 l-5 41 128 0 128 0 6 35
c4 20 4 40 0 46 -4 6 -3 14 2 18 23 16 34 57 34 125 0 41 -5 78 -10 81 -6 4
-8 11 -5 16 8 12 94 -33 127 -68 33 -35 67 -109 68 -145 0 -16 5 -28 10 -28 6
0 10 15 10 33 0 78 66 166 153 202 33 14 53 6 27 -10 -26 -16 -4 -205 23 -205
5 0 6 -13 2 -30 -4 -19 -3 -30 4 -30 6 0 11 -9 11 -20 0 -19 7 -20 215 -20
l215 0 0 -680 0 -680 -1488 0 -1487 0 -240 -240 -240 -240 -77 0 -78 0 0 -110
0 -110 -530 0 -531 0 1 795 1 795 145 136 c79 75 144 140 144 144 0 10 -57 40
-77 40 -7 0 -13 -4 -13 -10 0 -6 -38 -10 -95 -10 -52 0 -95 4 -95 9 0 5 -3 16
-6 25 -4 11 0 16 14 16 15 0 21 9 26 34 4 18 4 40 1 49 -4 8 -2 18 4 22 6 3
11 38 11 77 0 39 3 68 7 64 4 -4 20 -37 34 -74 15 -36 30 -67 35 -69 5 -2 83
78 173 177 130 142 167 178 178 169 10 -9 13 -50 13 -174z m13050 -20 c112
-112 202 -206 200 -209 -3 -2 -116 -117 -252 -253 l-247 -249 -88 88 -88 88
28 27 27 28 -102 102 -102 103 -28 -27 c-27 -25 -29 -26 -45 -10 -16 16 -15
20 27 62 24 25 49 45 55 45 5 0 99 -89 208 -198 l197 -197 185 185 c102 101
185 185 185 185 0 0 -90 93 -199 205 -147 152 -196 208 -189 218 6 6 13 12 17
12 3 0 98 -92 211 -205z m-12990 13 c0 -117 -4 -177 -10 -167 -5 8 -10 86 -10
172 -2 140 2 177 16 177 2 0 4 -82 4 -182z m3227 20 c-2 -29 -3 -6 -3 52 0 58
1 81 3 53 2 -29 2 -77 0 -105z m450 0 c-2 -29 -3 -6 -3 52 0 58 1 81 3 53 2
-29 2 -77 0 -105z m-6153 54 c3 -5 -1 -9 -9 -9 -8 0 -12 4 -9 9 3 4 7 8 9 8 2
0 6 -4 9 -8z m15290 0 c3 -5 -1 -9 -9 -9 -8 0 -12 4 -9 9 3 4 7 8 9 8 2 0 6
-4 9 -8z m-15240 -71 c17 -17 35 -31 41 -31 6 0 53 -43 105 -95 52 -52 91 -95
87 -95 -4 0 0 -12 9 -26 l17 -25 -144 -145 c-79 -79 -148 -144 -153 -144 -12
0 -294 278 -308 304 -8 16 11 39 135 163 159 159 152 156 211 94z m15394 -104
c113 -115 132 -138 124 -154 -16 -29 -297 -303 -311 -303 -16 0 -110 89 -213
203 -80 86 -80 87 -64 112 9 14 13 25 9 25 -4 0 35 43 87 95 52 52 99 95 104
95 5 0 28 18 52 40 35 32 48 39 62 31 9 -5 77 -70 150 -144z m-15159 28 c101
-105 124 -135 104 -135 -13 0 -233 224 -233 237 0 26 20 10 129 -102z m1678
78 c-3 -10 -5 -4 -5 12 0 17 2 24 5 18 2 -7 2 -21 0 -30z m13043 -97 c-98
-100 -140 -133 -140 -110 0 3 53 60 117 125 74 76 120 116 126 110 6 -6 -31
-52 -103 -125z m-14755 -27 c64 -66 114 -123 111 -127 -7 -6 -246 227 -246
240 0 21 26 -1 135 -113z m13475 112 c0 -5 10 -11 22 -14 28 -8 16 -21 -20
-22 -23 0 -27 -5 -33 -38 -3 -20 -8 -40 -11 -43 -3 -3 -31 -8 -62 -11 l-56 -6
0 61 c0 48 4 63 18 71 21 13 142 14 142 2z m1312 -124 c-67 -67 -125 -118
-129 -114 -9 10 228 248 240 240 5 -3 -45 -60 -111 -126z m-1492 58 c0 -51 -3
-65 -15 -65 -12 0 -15 -16 -15 -85 l0 -85 30 0 30 0 0 -398 0 -398 -30 -29
-30 -29 0 -278 c0 -179 -4 -278 -10 -278 -7 0 -10 292 -10 855 l0 855 25 0
c24 0 25 -2 25 -65z m-11770 -25 l0 -50 60 0 60 0 0 -70 0 -70 -65 0 -65 0 0
75 c0 60 -3 75 -15 75 -11 0 -15 11 -15 38 0 41 6 52 27 52 9 0 13 -15 13 -50z
m4880 -695 c0 -708 0 -715 -20 -715 -20 0 -20 7 -20 690 l0 690 -220 0 c-207
0 -220 1 -220 18 0 10 3 22 7 25 3 4 111 7 240 7 l233 0 0 -715z m310 655 l0
-60 -140 0 -140 0 0 60 0 60 140 0 140 0 0 -60z m300 0 l0 -60 -140 0 -140 0
0 60 0 60 140 0 140 0 0 -60z m150 0 l0 -60 -65 0 -65 0 0 60 0 60 65 0 65 0
0 -60z m160 43 c0 -10 -9 -29 -20 -43 -11 -14 -20 -33 -20 -42 0 -15 -9 -18
-50 -18 l-50 0 0 60 0 60 70 0 c60 0 70 -2 70 -17z m670 -43 l0 -60 -35 0 -35
0 0 60 0 60 35 0 35 0 0 -60z m290 0 l0 -60 -140 0 -140 0 0 60 0 60 140 0
140 0 0 -60z m310 0 l0 -60 -145 0 -145 0 0 60 0 60 145 0 145 0 0 -60z m300
0 l0 -60 -140 0 -140 0 0 60 0 60 140 0 140 0 0 -60z m610 0 l0 -60 -145 0
-145 0 0 60 0 60 145 0 145 0 0 -60z m298 -2 c2 -47 0 -58 -13 -58 -8 0 -15 7
-15 15 0 8 -13 29 -29 47 -23 26 -37 33 -68 33 -51 0 -92 -28 -100 -65 -4 -25
-10 -30 -34 -30 -28 0 -29 1 -29 53 0 30 3 57 7 61 4 3 68 5 142 4 l136 -3 3
-57z m302 2 l0 -60 -145 0 -145 0 0 60 0 60 145 0 145 0 0 -60z m600 0 l0 -60
-140 0 -140 0 0 60 0 60 140 0 140 0 0 -60z m310 0 l0 -60 -145 0 -145 0 0 60
0 60 145 0 145 0 0 -60z m300 0 l0 -60 -140 0 -140 0 0 60 0 60 140 0 140 0 0
-60z m50 0 c0 -53 -2 -60 -20 -60 -18 0 -20 7 -20 60 0 53 2 60 20 60 18 0 20
-7 20 -60z m2153 34 c26 6 148 -41 166 -65 7 -11 22 -19 32 -19 17 0 19 -8 19
-82 l0 -82 80 -82 c44 -45 80 -86 80 -90 0 -5 -124 -133 -275 -284 l-275 -275
0 388 0 387 30 0 c30 0 30 0 30 58 0 50 3 59 23 67 16 7 23 20 25 45 5 56 9
64 28 45 10 -9 26 -14 37 -11z m-5809 -144 c76 -83 144 -150 151 -150 8 0 16
12 18 28 2 15 5 -190 6 -455 l1 -483 -165 0 -165 0 0 -65 0 -65 168 -2 c92 -1
150 -3 130 -5 -21 -2 -38 -8 -38 -14 0 -5 -16 -9 -35 -9 l-35 0 0 -200 0 -200
35 0 35 0 0 -170 0 -170 -186 0 -185 0 20 26 c23 29 28 83 11 115 -6 10 -24
26 -40 34 -75 39 -150 -5 -150 -87 0 -31 6 -51 20 -66 l21 -22 -191 0 -190 0
0 169 0 170 38 3 37 3 0 195 0 195 -37 3 c-21 2 -38 7 -38 12 0 6 -109 11
-257 13 -196 2 -161 3 145 5 l402 2 0 65 0 65 -400 0 c-393 0 -400 0 -400 20
0 18 7 20 70 20 l70 0 0 455 0 455 -70 0 -70 0 0 70 0 70 70 0 70 0 0 -65 0
-65 355 0 355 0 0 53 c1 40 3 48 11 34 12 -21 61 -47 88 -47 56 0 101 49 101
111 0 22 -10 41 -34 65 l-34 34 77 0 76 -1 139 -149z m173 -2 c-2 -29 -3 -6
-3 52 0 58 1 81 3 53 2 -29 2 -77 0 -105z m4027 133 c-79 -48 -57 -170 33
-187 68 -13 123 35 123 107 0 22 -10 41 -34 65 l-34 34 462 0 461 0 152 -157
152 -158 1 -667 0 -666 -42 -7 c-54 -9 -81 -23 -72 -37 4 -6 8 -20 9 -32 4
-35 4 -36 20 -36 8 0 31 -25 50 -55 l35 -54 0 -121 0 -120 -435 0 -435 0 0 64
c0 36 -5 68 -10 71 -6 4 -78 6 -160 6 l-150 0 0 39 0 40 -78 0 -78 0 -149 153
c-333 339 -331 336 -317 357 16 25 18 1215 2 1225 -5 3 -10 40 -10 81 l0 74
268 0 267 0 -31 -19z m-2703 -281 c5 0 9 7 9 15 0 8 6 24 12 35 10 16 10 24 0
40 -6 11 -12 36 -12 56 l0 37 63 -8 c34 -4 69 -8 77 -7 8 0 60 4 115 7 l100 7
16 -36 16 -35 -31 -3 -31 -3 -3 -487 -2 -488 60 0 60 0 0 -52 0 -53 -200 3
-200 3 0 -41 0 -40 -240 0 -240 0 0 40 0 40 -195 0 -195 0 0 -40 0 -40 -230 0
-230 0 0 75 0 75 60 0 60 0 0 480 0 480 385 0 385 0 0 59 0 60 48 3 47 3 3 55
3 55 140 -148 c78 -81 145 -147 150 -147z m1622 182 l417 -2 0 -540 0 -540 60
0 60 0 0 -75 0 -75 -225 0 -225 0 0 40 0 40 -195 0 -195 0 0 -40 0 -40 -210 0
-210 0 0 40 0 40 -194 0 -195 0 -4 -42 c-2 -24 -4 -1 -5 50 l-2 92 60 0 60 0
0 490 0 490 -46 0 c-40 0 -44 2 -30 15 8 8 18 25 21 36 7 21 11 21 94 14 113
-9 107 -9 179 0 l62 8 0 -37 c0 -20 -6 -45 -12 -56 -10 -16 -10 -24 0 -40 6
-11 12 -27 12 -35 0 -8 4 -15 9 -15 5 0 72 66 148 146 l138 146 5 -54 5 -53
418 -3z m2394 -49 c-2 -32 -3 -8 -3 52 0 61 1 87 3 58 2 -29 2 -78 0 -110z
m-10376 137 c28 -15 51 -65 43 -95 -8 -34 -50 -65 -86 -65 -38 0 -88 48 -88
85 0 57 79 102 131 75z m2304 -15 c36 -35 35 -96 -1 -124 -15 -12 -40 -21 -56
-21 -38 0 -88 48 -88 85 0 16 12 38 29 56 38 37 82 39 116 4z m2290 0 c52 -51
16 -145 -55 -145 -40 0 -90 47 -90 85 0 16 12 38 29 56 38 37 82 39 116 4z
m2290 0 c52 -51 16 -145 -54 -145 -75 0 -113 98 -57 147 36 30 80 30 111 -2z
m2289 3 c15 -13 29 -37 32 -55 5 -27 1 -37 -24 -63 -21 -21 -40 -30 -62 -30
-22 0 -41 9 -62 30 -25 26 -29 36 -24 63 8 40 48 77 86 77 16 0 40 -10 54 -22z
m2531 -97 l-75 -76 237 -237 c210 -211 236 -239 223 -253 -14 -13 -53 23 -346
316 -181 181 -328 332 -325 334 17 18 54 -2 113 -61 l65 -65 73 75 c70 73 74
75 92 59 18 -16 16 -20 -57 -92z m-14278 12 l83 -88 -253 -252 -252 -253 -67
67 c-70 69 -80 89 -52 100 12 4 32 -9 66 -45 27 -29 52 -51 56 -50 4 0 104 99
222 220 l214 218 -72 73 c-57 57 -70 75 -60 85 7 7 16 12 22 12 5 0 47 -39 93
-87z m1088 67 c4 -7 -141 -10 -427 -10 l-434 0 -64 -65 c-35 -35 -66 -62 -69
-59 -3 2 26 36 64 74 l69 70 428 0 c274 0 429 -4 433 -10z m135 -60 l0 -70
-60 0 -60 0 0 63 c0 35 3 67 7 70 3 4 30 7 60 7 l53 0 0 -70z m11890 0 l0 -70
-50 0 -50 0 0 70 0 70 50 0 50 0 0 -70z m381 -26 l-3 -97 103 -103 104 -104
-323 -323 -322 -322 0 -110 0 -110 250 -250 c242 -242 250 -252 232 -268 -18
-17 -28 -8 -270 238 l-252 255 0 133 1 132 321 324 320 323 -86 87 -86 86 0
93 c0 55 -4 92 -10 92 -5 0 -10 5 -10 10 0 6 8 10 18 10 15 0 17 -10 13 -96z
m-12691 -9 l0 -65 -95 0 c-57 0 -95 4 -95 10 0 6 -13 10 -30 10 -16 0 -30 -4
-30 -10 0 -5 -9 -10 -20 -10 -11 0 -20 -6 -20 -13 0 -7 65 -75 145 -151 l145
-138 0 -336 0 -336 -156 -155 -155 -156 -415 420 -414 420 112 115 c62 63 189
193 283 288 l170 172 287 0 288 0 0 -65z m30 10 c0 -30 -4 -55 -10 -55 -5 0
-10 25 -10 55 0 30 5 55 10 55 6 0 10 -25 10 -55z m255 -2 l0 -58 119 -3 c99
-2 121 -6 132 -20 10 -14 35 -18 141 -23 70 -3 124 -7 118 -8 -5 -2 0 -6 12
-9 18 -6 6 -21 -104 -122 -69 -63 -130 -117 -136 -119 -7 -2 -22 -13 -34 -24
-22 -19 -23 -28 -23 -154 l0 -133 -77 1 -78 0 -134 145 c-74 79 -138 144 -143
144 -4 0 -8 -9 -8 -19 0 -11 -4 -23 -10 -26 -6 -4 -10 7 -10 25 0 22 -6 33
-22 39 -13 5 -77 61 -143 125 -98 93 -116 115 -97 115 13 1 20 5 17 11 -4 6
30 10 94 10 55 0 111 4 125 10 25 9 26 14 26 80 l0 70 118 0 117 0 0 -57z
m12515 -88 c41 -79 72 -146 69 -150 -3 -3 -40 30 -82 72 l-77 78 0 73 c0 39 3
72 8 72 4 0 41 -65 82 -145z m683 -153 l298 -298 -188 -193 -188 -192 -130
130 -129 131 32 33 32 33 -139 142 -139 142 105 185 c85 149 110 185 127 185
14 0 115 -94 319 -298z m-12886 256 c-3 -7 -5 -2 -5 12 0 14 2 19 5 13 2 -7 2
-19 0 -25z m5191 -45 l3 -53 -130 0 -131 0 0 48 c0 27 3 52 7 56 4 3 61 5 127
4 l121 -3 3 -52z m390 0 l3 -53 -180 0 -181 0 0 55 0 55 178 -2 177 -3 3 -52z
m782 7 l0 -50 -55 0 -55 0 0 50 0 50 55 0 55 0 0 -50z m390 0 l0 -50 -190 0
-190 0 0 50 0 50 190 0 190 0 0 -50z m380 0 l0 -50 -185 0 -185 0 0 50 0 50
185 0 185 0 0 -50z m2560 -145 l0 -195 -55 0 -55 0 0 195 0 195 55 0 55 0 0
-195z m-4773 108 c-2 -16 -4 -3 -4 27 0 30 2 43 4 28 2 -16 2 -40 0 -55z m290
0 c-2 -16 -4 -3 -4 27 0 30 2 43 4 28 2 -16 2 -40 0 -55z m390 0 c-2 -16 -4
-3 -4 27 0 30 2 43 4 28 2 -16 2 -40 0 -55z m8078 68 c3 -5 1 -12 -5 -16 -5
-3 -10 1 -10 9 0 18 6 21 15 7z m-15915 -11 c0 -5 -2 -10 -4 -10 -3 0 -8 5
-11 10 -3 6 -1 10 4 10 6 0 11 -4 11 -10z m650 -21 c0 -5 -4 -9 -8 -9 -5 0 -9
7 -9 15 0 8 4 12 9 9 4 -3 8 -9 8 -15z m14614 -5 c3 -8 2 -12 -4 -9 -6 3 -10
10 -10 16 0 14 7 11 14 -7z m-5044 -169 l0 -135 -55 0 -55 0 0 135 0 135 55 0
55 0 0 -135z m27 -768 c-1 -166 -2 -30 -2 303 0 333 1 469 2 302 2 -166 2
-438 0 -605z m133 768 l0 -135 -55 0 -55 0 0 135 0 135 55 0 55 0 0 -135z
m-9699 11 c-72 -72 -93 -88 -103 -78 -18 18 160 196 180 180 11 -9 -4 -29 -77
-102z m14563 25 c81 -81 98 -111 63 -111 -7 0 -50 38 -96 84 -58 58 -82 89
-78 100 4 9 10 16 14 16 5 0 48 -40 97 -89z m-6644 -66 l0 -135 -55 0 -55 0 0
135 0 135 55 0 55 0 0 -135z m-5241 -177 c-1 -258 -3 -285 -20 -310 -22 -31
-27 -166 -7 -186 20 -20 2 -24 -38 -7 -74 31 -144 120 -144 184 0 50 -16 43
-29 -13 -16 -73 -60 -129 -127 -162 -30 -15 -58 -23 -62 -19 -4 4 -1 10 6 12
8 3 12 30 12 84 0 70 -10 112 -31 129 -4 3 -6 14 -6 25 1 54 -4 75 -18 75 -13
0 -15 33 -15 235 l0 235 241 0 240 0 -2 -282z m101 167 l0 -115 -40 0 -40 0 0
115 0 115 40 0 40 0 0 -115z m90 8 c0 -83 -3 -104 -12 -95 -20 20 -32 13 -13
-8 18 -20 17 -20 -18 -20 l-37 0 0 115 0 115 40 0 40 0 0 -107z m3580 97 c0
-6 -27 -10 -60 -10 -33 0 -60 4 -60 10 0 6 27 10 60 10 33 0 60 -4 60 -10z
m-2 -147 l-3 -128 -57 -3 -58 -3 0 131 0 130 60 0 61 0 -3 -127z m7484 -100
l58 -57 -27 -28 -27 -28 -58 57 c-32 32 -58 62 -58 67 0 12 32 45 45 45 5 1
35 -25 67 -56z m963 39 c-3 -3 -11 0 -18 7 -9 10 -8 11 6 5 10 -3 15 -9 12
-12z m-5355 -192 l0 -180 -55 0 -55 0 0 180 0 180 55 0 55 0 0 -180z m160 0
l0 -180 -55 0 -55 0 0 180 0 180 55 0 55 0 0 -180z m-6920 50 l0 -110 -40 0
-40 0 0 110 0 110 40 0 40 0 0 -110z m60 95 c-17 -20 -5 -32 15 -15 13 11 15
1 15 -89 l0 -101 -40 0 -40 0 0 110 0 110 31 0 c27 0 30 -2 19 -15z m5080
-180 l0 -185 -55 0 -55 0 0 185 0 185 55 0 55 0 0 -185z m3330 0 l0 -185 -55
0 -55 0 0 185 0 185 55 0 55 0 0 -185z m2614 118 l55 -58 -27 -28 -27 -28 -32
35 c-28 30 -33 43 -33 86 0 27 2 50 4 50 2 0 29 -26 60 -57z m-12874 1 c0 -27
-4 -43 -10 -39 -5 3 -10 24 -10 46 0 21 5 39 10 39 6 0 10 -21 10 -46z m13947
30 c4 -11 -10 -31 -40 -62 -44 -44 -48 -46 -64 -29 -16 16 -15 19 27 62 47 48
67 55 77 29z m-13407 -779 l0 -785 60 0 c48 0 60 -3 60 -16 0 -8 -53 -69 -119
-135 l-118 -119 -354 355 c-195 196 -355 359 -357 363 -1 5 9 19 23 32 l25 24
173 -172 172 -172 75 0 75 0 0 -77 0 -78 123 -3 122 -3 0 478 c0 263 0 616 0
786 -1 302 0 307 20 307 20 0 20 -3 20 -785z m12250 760 c0 -26 -14 -33 -25
-15 -9 14 1 40 15 40 5 0 10 -11 10 -25z m-7357 8 c-18 -2 -48 -2 -65 0 -18 2
-4 4 32 4 36 0 50 -2 33 -4z m27 -138 l0 -125 -60 0 -60 0 0 125 0 125 60 0
60 0 0 -125z m-5130 -142 c0 -9 22 -13 75 -13 l75 0 0 -95 0 -95 -61 0 c-95 0
-99 -5 -99 -111 0 -71 3 -91 15 -95 11 -5 13 -10 5 -19 -20 -24 10 -29 34 -6
15 14 35 21 64 21 l42 0 0 -115 c0 -83 -3 -115 -12 -115 -7 0 -25 -12 -40 -27
l-28 -27 0 -198 0 -198 -148 0 -147 0 -118 118 -117 117 60 60 c33 33 60 67
60 76 0 15 -62 79 -76 79 -3 0 -35 -28 -70 -62 l-65 -62 -44 44 -45 44 165
166 165 165 0 168 c0 157 1 167 19 167 25 0 31 26 31 143 0 58 4 97 10 97 6 0
10 8 10 18 1 19 239 -225 240 -245z m12437 235 c19 -17 23 -32 23 -77 l0 -56
-52 52 -52 52 24 26 c29 30 28 30 57 3z m340 -125 l-27 -27 -60 59 -60 59 27
28 27 29 60 -61 61 -60 -28 -27z m-13067 22 c0 -57 -4 -95 -10 -95 -6 0 -10
38 -10 95 0 57 4 95 10 95 6 0 10 -38 10 -95z m-202 -630 l-163 -160 153 156
154 156 -2 269 c0 149 3 273 7 278 4 4 9 -115 11 -265 l2 -274 -162 -160z
m12932 540 l-26 -25 -59 60 -59 60 24 25 24 26 60 -61 61 -60 -25 -25z m67 68
l-27 -28 0 55 0 55 27 -28 28 -27 -28 -27z m200 -70 l-27 -27 -60 59 -60 59
27 28 27 29 60 -61 61 -60 -28 -27z m-14074 -65 l-27 -28 -88 87 -88 87 27 28
27 28 88 -87 88 -87 -27 -28z m14750 60 c-83 -83 -88 -87 -105 -71 -18 16 -15
21 69 105 83 83 88 87 105 71 18 -16 15 -21 -69 -105z m-1040 24 l57 -58 -28
-27 -28 -27 -59 60 -59 60 24 25 c13 14 26 25 30 25 3 0 31 -26 63 -58z m270
0 l57 -58 -28 -27 -28 -27 -54 55 c-37 38 -49 55 -37 55 9 0 17 5 17 10 0 6
-7 10 -17 10 -14 0 -14 2 2 20 10 11 21 20 24 20 4 0 32 -26 64 -58z m-13
-177 c-129 -129 -239 -235 -245 -235 -5 0 96 106 225 235 129 129 239 235 245
235 5 0 -96 -106 -225 -235z m-296 24 l-30 -29 -64 46 c-36 26 -67 49 -69 51
-3 2 12 21 33 42 l37 38 61 -59 61 -60 -29 -29z m268 -2 l-27 -28 -32 35 c-29
31 -33 43 -33 88 l0 52 60 -59 60 -59 -28 -29z m-117 75 c-12 -13 -24 22 -12
37 10 12 13 11 15 -8 2 -13 1 -26 -3 -29z m375 -7 c51 -51 53 -55 30 -56 -23
-1 -23 -2 3 -8 l29 -6 -26 -25 -27 -24 -61 62 -62 61 24 26 c13 14 26 25 30
25 3 0 30 -25 60 -55z m-12707 38 c-18 -2 -48 -2 -65 0 -18 2 -4 4 32 4 36 0
50 -2 33 -4z m4975 -20 c-15 -2 -42 -2 -60 0 -18 2 -6 4 27 4 33 0 48 -2 33
-4z m7362 -102 l0 -55 -50 49 -50 49 27 28 27 28 23 -22 c19 -17 23 -32 23
-77z m-7330 -36 l0 -125 -60 0 -60 0 0 125 0 125 60 0 60 0 0 -125z m3090 -10
l0 -135 -55 0 -55 0 0 135 0 135 55 0 55 0 0 -135z m160 0 l0 -135 -55 0 -55
0 0 135 0 135 55 0 55 0 0 -135z m3863 35 c16 -15 15 -18 -22 -54 l-39 -38
-78 22 c-44 12 -85 23 -93 26 -10 3 5 25 49 69 l64 64 50 -36 c28 -20 59 -44
69 -53z m577 -34 c0 -5 -10 -20 -22 -33 l-22 -24 -63 63 -63 62 27 28 27 28
58 -57 c32 -32 58 -62 58 -67z m-6222 -33 l-3 -138 -52 -3 -53 -3 0 140 0 141
55 0 56 0 -3 -137z m3330 0 l-3 -138 -50 0 -50 0 -3 138 -3 137 56 0 56 0 -3
-137z m2480 50 c29 -32 52 -60 52 -64 0 -4 -7 -12 -15 -19 -11 -9 -26 -3 -80
35 -36 26 -65 49 -65 53 0 8 42 52 50 52 4 0 30 -26 58 -57z m107 27 c18 -20
18 -21 -8 -48 l-27 -27 0 48 c0 52 8 57 35 27z m223 -137 c-12 -13 -26 -23
-32 -23 -13 0 -116 101 -116 114 0 5 10 20 22 33 l22 24 63 -63 63 -62 -22
-23z m173 97 c5 0 9 8 9 17 0 12 17 0 55 -37 l55 -54 -22 -23 c-12 -13 -26
-23 -33 -23 -6 0 -35 24 -64 54 l-53 54 18 25 c17 23 19 23 22 6 2 -10 8 -19
13 -19z m-559 -47 c51 -35 65 -49 57 -59 -8 -10 -28 -7 -97 12 -48 13 -91 24
-96 24 -6 0 5 16 24 35 19 19 36 35 39 35 3 0 36 -21 73 -47z m283 -33 l59
-60 -27 -27 -27 -28 -62 62 -62 62 24 26 c13 14 26 25 30 25 3 0 32 -27 65
-60z m302 -87 l-27 -27 -60 59 -60 59 27 28 27 29 60 -61 61 -60 -28 -27z
m-857 115 c47 -12 86 -22 87 -23 1 0 -5 -17 -15 -37 -16 -33 -21 -36 -76 -42
-32 -3 -83 -6 -112 -6 l-54 0 0 32 c0 22 10 42 32 65 18 18 37 33 42 33 6 0
49 -10 96 -22z m-12873 -395 l-27 -28 -191 191 -190 190 27 28 28 27 190 -190
191 -191 -28 -27z m13706 165 c-173 -174 -210 -202 -220 -172 -2 6 80 98 183
203 180 183 188 190 206 174 18 -16 12 -24 -169 -205z m-12764 180 c-1 -22 -3
-26 -6 -13 -3 11 -10 26 -15 33 -8 9 -6 12 6 12 12 0 16 -9 15 -32z m12226
-29 c6 -1 -15 -5 -45 -9 -67 -10 -170 -12 -170 -5 0 4 7 19 15 35 l15 29 87
-25 c49 -13 93 -24 98 -25z m-12255 21 c0 -10 -9 -24 -20 -30 -25 -13 -26 -30
-3 -30 13 0 8 -9 -19 -37 -31 -31 -39 -35 -52 -24 -16 14 -23 120 -9 134 3 4
28 7 55 7 41 0 48 -3 48 -20z m12445 -40 l59 -60 -23 -24 c-13 -14 -27 -23
-32 -21 -4 3 -28 35 -54 71 -38 53 -44 68 -35 79 7 8 15 15 19 15 4 0 33 -27
66 -60z m302 -87 l-27 -27 -60 59 -60 59 27 28 27 29 60 -61 61 -60 -28 -27z
m-359 34 l51 -74 -34 -33 c-19 -19 -36 -32 -39 -29 -2 2 -15 44 -29 94 -19 64
-23 93 -15 102 6 7 12 13 13 13 1 0 25 -33 53 -73z m-163 35 c-6 -5 -46 -21
-90 -37 -44 -16 -86 -30 -92 -33 -9 -3 -13 7 -13 31 l0 36 73 4 c39 1 85 4
102 5 16 1 25 -2 20 -6z m427 -49 l58 -57 -27 -28 -27 -28 -63 62 -63 62 22
23 c12 13 26 23 32 23 6 0 36 -26 68 -57z m-642 9 l0 -38 -98 -32 c-54 -18
-103 -32 -110 -32 -8 0 -12 21 -12 65 l0 64 73 4 c39 1 89 4 110 5 37 2 37 2
37 -36z m319 -67 l21 -80 -21 -17 c-49 -41 -58 -10 -42 142 7 72 13 66 42 -45z
m-12299 60 c0 -26 -4 -35 -17 -35 -13 0 -14 3 -5 12 7 7 12 22 12 35 0 13 2
23 5 23 3 0 5 -16 5 -35z m12120 -50 c-35 -36 -68 -65 -72 -65 -10 0 -43 68
-37 74 5 6 149 53 164 55 5 1 -20 -28 -55 -64z m118 -35 l-3 -100 -32 0 c-18
0 -33 3 -33 6 0 9 51 177 57 187 11 19 14 -1 11 -93z m-12273 71 c-3 -6 -11
-11 -17 -11 -6 0 -6 6 2 15 14 17 26 13 15 -4z m4902 -63 c-2 -18 -4 -6 -4 27
0 33 2 48 4 33 2 -15 2 -42 0 -60z m373 27 l0 -55 -180 0 -180 0 0 55 0 55
180 0 180 0 0 -55z m17 -27 c-2 -18 -4 -6 -4 27 0 33 2 48 4 33 2 -15 2 -42 0
-60z m363 27 l0 -55 -175 0 -175 0 0 55 0 55 175 0 175 0 0 -55z m17 -27 c-2
-18 -4 -6 -4 27 0 33 2 48 4 33 2 -15 2 -42 0 -60z m363 27 c0 -30 -4 -55 -10
-55 -5 0 -10 25 -10 55 0 30 5 55 10 55 6 0 10 -25 10 -55z m260 0 l0 -55
-125 0 -125 0 0 55 0 55 125 0 125 0 0 -55z m5914 -47 l-27 -86 -28 10 c-59
20 -58 34 11 103 35 36 65 63 67 61 2 -2 -9 -41 -23 -88z m399 -70 c-20 -21
-40 -35 -44 -30 -27 31 -89 124 -89 133 0 7 10 23 22 36 l22 24 63 -63 63 -62
-37 -38z m-566 74 l23 -47 -55 -55 -55 -55 -65 65 c-36 35 -65 67 -65 70 0 5
173 67 190 69 3 0 15 -21 27 -47z m-5167 8 l0 -30 150 0 150 0 0 30 c0 23 4
30 20 30 16 0 20 -7 20 -35 l0 -35 -185 0 -185 0 0 35 c0 24 5 35 15 35 10 0
15 -10 15 -30z m870 0 l0 -30 149 0 150 0 3 27 c2 17 10 29 21 31 14 3 17 -4
17 -32 l0 -36 -180 0 -180 0 0 35 c0 19 5 35 10 35 6 0 10 -13 10 -30z m470 0
l0 -30 150 0 150 0 0 30 c0 17 5 30 10 30 6 0 10 -16 10 -35 l0 -35 -180 0
-180 0 0 35 c0 28 4 35 20 35 16 0 20 -7 20 -30z m800 0 l0 -30 150 0 150 0 0
30 c0 23 4 30 20 30 16 0 20 -7 20 -35 l0 -35 -185 0 -185 0 0 35 c0 24 5 35
15 35 10 0 15 -10 15 -30z m3489 -62 l51 -72 -62 -63 c-34 -34 -63 -61 -64
-60 -1 1 -11 36 -22 77 -11 41 -23 82 -27 90 -3 10 9 32 31 58 19 23 37 42 39
42 2 0 26 -32 54 -72z m-6169 -369 l0 -369 -25 0 -25 0 0 374 0 373 25 -5 25
-4 0 -369z m1770 354 l0 -23 -865 0 c-856 0 -865 0 -865 20 0 19 8 20 228 22
125 2 514 3 864 3 l638 0 0 -22z m1488 17 c215 0 222 -1 222 -20 0 -20 -7 -20
-830 -20 l-830 0 0 23 0 22 607 -2 c335 -2 708 -3 831 -3z m-4208 -370 l0
-370 -25 0 -25 0 0 350 0 350 -225 0 c-218 0 -225 1 -225 20 0 19 7 20 250 20
l250 0 0 -370z m6770 -55 c0 -6 -33 -43 -73 -83 l-72 -72 -138 0 -137 0 0 40
c0 26 -5 40 -13 40 -17 0 -93 119 -89 141 2 9 -7 24 -18 32 -21 15 -19 16 37
27 32 7 64 14 71 16 9 2 12 41 12 146 l0 143 210 -210 c116 -115 210 -214 210
-220z m-54 404 c3 -6 21 -17 40 -25 l33 -14 -14 -47 c-8 -27 -22 -72 -32 -101
l-18 -52 -70 70 -69 70 54 55 c57 58 64 62 76 44z m-6646 -9 c0 -5 -13 -10
-30 -10 -16 0 -30 5 -30 10 0 6 14 10 30 10 17 0 30 -4 30 -10z m810 0 c0 -5
-11 -10 -25 -10 -14 0 -25 5 -25 10 0 6 11 10 25 10 14 0 25 -4 25 -10z m6125
-95 l25 -90 -70 -70 -70 -70 1 105 c1 160 7 187 49 208 19 9 36 15 37 12 2 -3
14 -45 28 -95z m-10555 55 c-20 -13 -33 -13 -25 0 3 6 14 10 23 10 15 0 15 -2
2 -10z m3490 0 c0 -13 -11 -13 -30 0 -12 8 -11 10 8 10 12 0 22 -4 22 -10z
m1060 0 c-19 -13 -30 -13 -30 0 0 6 10 10 23 10 18 0 19 -2 7 -10z m3475 0 c7
-12 -2 -12 -30 0 -19 8 -19 9 2 9 12 1 25 -3 28 -9z m2399 -150 c-3 -85 -9
-158 -13 -162 -4 -4 -32 18 -64 50 l-56 57 30 95 c16 52 31 100 33 105 2 6 20
10 40 10 l37 0 -7 -155z m-6972 -194 c-2 -313 -3 -324 -22 -329 -16 -4 -20
-14 -20 -51 l0 -46 -1925 0 -1925 0 0 133 c0 90 -4 137 -12 145 -9 9 40 64
217 242 l230 230 1730 0 1730 0 -3 -324z m35 102 c-1 -40 -3 -8 -3 72 0 80 2
112 3 73 2 -40 2 -106 0 -145z m-5310 134 l-27 -28 0 -267 c0 -160 -4 -267 -9
-267 -6 0 -8 105 -4 273 5 256 7 273 26 295 11 12 25 22 31 22 5 0 -2 -13 -17
-28z m-512 -12 c18 -20 18 -21 -5 -45 -24 -25 -43 -25 -33 0 3 10 -2 15 -16
15 -25 0 -26 7 -4 32 21 23 36 23 58 -2z m535 -270 c0 -242 -2 -280 -15 -280
-13 0 -15 36 -15 268 0 250 4 292 27 292 2 0 3 -126 3 -280z m-624 203 c-10
-10 -19 5 -10 18 6 11 8 11 12 0 2 -7 1 -15 -2 -18z m20 -60 c-8 -9 -66 47
-66 64 0 8 16 -2 37 -22 20 -19 33 -38 29 -42z m24 47 c0 -5 -7 -10 -15 -10
-8 0 -15 5 -15 10 0 6 7 10 15 10 8 0 15 -4 15 -10z m12892 -102 c-59 -60 -63
-62 -79 -45 -17 17 -15 20 46 78 58 55 66 59 80 44 14 -14 10 -21 -47 -77z
m-6892 7 c0 -10 -10 -15 -30 -15 -20 0 -30 5 -30 15 0 10 10 15 30 15 20 0 30
-5 30 -15z m810 0 c0 -9 -9 -15 -25 -15 -16 0 -25 6 -25 15 0 9 9 15 25 15 16
0 25 -6 25 -15z m-943 -277 c-1 -40 -3 -8 -3 72 0 80 2 112 3 73 2 -40 2 -106
0 -145z m6883 177 l24 -26 -269 -269 -270 -270 -117 117 c-65 65 -118 125
-118 135 0 15 14 18 118 20 l117 3 3 113 c4 149 22 147 22 -3 l0 -115 70 0 70
0 0 80 0 80 78 0 77 0 80 80 c44 44 82 80 86 80 3 0 16 -11 29 -25z m-10838
-67 c-7 -7 -12 -8 -12 -2 0 14 12 26 19 19 2 -3 -1 -11 -7 -17z m8948 1 c0 -6
-4 -7 -10 -4 -5 3 -10 11 -10 16 0 6 5 7 10 4 6 -3 10 -11 10 -16z m-9002
-106 l3 -103 -61 0 -60 0 0 105 0 106 58 -3 57 -3 3 -102z m9160 0 l3 -103
-61 0 -60 0 0 105 0 106 58 -3 57 -3 3 -102z m-9114 72 c13 -19 16 -51 16
-150 l0 -125 -472 0 c-471 0 -472 0 -495 22 -13 12 -23 30 -23 40 0 17 22 18
470 18 l470 0 0 110 c0 61 4 110 9 110 5 0 16 -11 25 -25z m9451 -195 c362 0
475 -3 475 -12 0 -7 -12 -25 -27 -40 l-27 -28 -468 0 -468 0 0 132 c0 111 3
134 18 151 16 18 17 15 20 -92 l3 -111 474 0z m-4917 167 c51 -47 12 -147 -58
-147 -37 0 -90 47 -90 79 0 36 24 74 55 87 35 15 61 10 93 -19z m-5948 -77 l0
-70 -60 0 -60 0 0 70 0 70 60 0 60 0 0 -70z m11890 0 l0 -70 -50 0 -50 0 0 70
0 70 50 0 50 0 0 -70z m-1284 14 l59 -26 -59 -24 c-33 -13 -61 -24 -63 -24 -2
0 -3 23 -3 50 0 28 2 50 4 50 2 0 30 -12 62 -26z m134 5 c-44 -20 -44 -20 -95
0 l-50 20 95 0 95 0 -45 -20z m90 -33 l0 -44 -54 21 c-30 12 -52 24 -50 27 7
6 86 39 97 39 4 1 7 -19 7 -43z m-95 -26 l50 -19 -90 0 -90 0 40 19 c22 10 40
19 40 19 0 1 23 -8 50 -19z m-4285 -90 l0 -40 -565 0 -565 0 0 40 0 40 565 0
565 0 0 -40z"/>
<path d="M2607 6134 c-13 -14 -7 -31 16 -43 l22 -12 -23 5 c-15 3 -22 0 -19
-7 5 -15 67 -22 67 -8 0 6 7 11 15 11 8 0 15 -4 15 -10 0 -5 18 -10 40 -10 22
0 40 5 40 10 0 14 28 12 33 -2 2 -7 7 -10 11 -7 4 4 0 24 -9 45 -16 37 -17 38
-31 20 -8 -11 -14 -26 -14 -33 0 -7 -7 -13 -15 -13 -10 0 -15 10 -15 30 0 38
-20 40 -21 3 l-1 -28 -11 28 c-14 34 -25 34 -37 1 -9 -23 -12 -25 -28 -13 -27
21 -28 23 -9 16 13 -5 17 -3 15 5 -5 15 -31 22 -41 12z"/>
<path d="M2850 6100 c0 -36 3 -40 24 -40 31 0 37 10 30 49 -5 24 -12 31 -30
31 -21 0 -24 -5 -24 -40z"/>
<path d="M4664 5403 c-12 -2 -34 -17 -50 -34 -63 -66 -18 -169 74 -169 35 0
49 6 73 29 71 71 3 193 -97 174z m65 -28 c62 -31 57 -130 -6 -153 -66 -22
-118 13 -118 80 0 31 6 45 28 64 32 28 56 30 96 9z"/>
<path d="M5387 4494 c-13 -14 -7 -33 13 -39 11 -4 18 -10 15 -15 -3 -5 -13 -6
-22 -3 -11 4 -14 3 -9 -5 9 -15 66 -16 66 -2 0 6 7 10 15 10 8 0 15 -4 15 -10
0 -5 18 -10 40 -10 22 0 40 5 40 10 0 14 28 12 33 -2 2 -7 7 -10 11 -7 7 7
-19 79 -28 79 -3 0 -12 -16 -21 -36 -18 -43 -38 -40 -44 7 l-4 34 -7 -30 -7
-30 -11 28 c-12 28 -32 29 -32 2 0 -22 -13 -25 -35 -8 -18 14 -18 15 -2 9 13
-4 17 -2 15 6 -5 15 -31 22 -41 12z"/>
<path d="M5640 4473 c-6 -15 -13 -34 -15 -40 -6 -17 7 -17 23 -1 10 10 15 10
22 -2 15 -25 23 -2 10 30 -18 42 -28 46 -40 13z"/>
<path d="M15420 6363 c0 -40 2 -43 28 -43 15 0 33 5 40 12 7 7 12 8 12 2 0 -6
18 -11 40 -12 24 -1 40 3 40 9 0 8 4 8 14 0 18 -15 166 -13 166 3 0 6 4 5 9
-3 15 -23 41 -5 41 28 0 33 -14 48 -33 34 -7 -5 -21 -8 -32 -6 -11 1 -39 5
-63 9 -49 7 -85 -2 -63 -15 10 -6 11 -13 3 -27 -10 -17 -11 -16 -17 9 -8 31
-20 35 -30 10 -6 -16 -8 -15 -16 5 -11 28 -27 28 -38 0 -6 -18 -9 -19 -14 -5
-9 24 -25 21 -30 -5 l-4 -23 -2 23 c-1 22 -21 32 -21 10 0 -6 -7 -3 -15 8 -13
18 -14 16 -15 -23z m126 -3 c0 -11 -4 -20 -8 -20 -10 0 -11 24 -1 33 9 9 9 10
9 -13z m143 11 c8 -5 11 -16 8 -26 -9 -21 -28 -10 -21 13 4 12 0 10 -13 -6
-21 -26 -38 -19 -22 9 11 21 26 24 48 10z m111 -17 c0 -8 -4 -14 -10 -14 -5 0
-10 9 -10 21 0 11 5 17 10 14 6 -3 10 -13 10 -21z"/>
<path d="M15440 6234 c0 -33 1 -34 17 -19 16 16 17 16 25 -4 8 -22 32 -28 43
-11 3 5 13 6 22 3 13 -5 15 -2 10 18 -4 13 -7 30 -7 37 0 25 -21 11 -26 -18
-4 -16 -13 -30 -20 -30 -9 0 -14 11 -14 30 0 25 -4 30 -25 30 -22 0 -25 -4
-25 -36z"/>
<path d="M15568 6235 c5 -44 19 -46 25 -2 l4 32 1 -32 c2 -35 16 -44 26 -17 5
14 9 13 26 -7 20 -24 20 -24 35 -5 11 14 15 16 15 5 0 -12 2 -12 10 1 6 10 10
11 10 3 0 -8 14 -13 35 -13 34 0 35 1 35 36 0 31 -2 35 -15 24 -10 -9 -15 -9
-15 -1 0 6 -13 11 -30 11 -16 0 -30 -5 -30 -11 0 -8 -4 -8 -12 -2 -7 6 -38 11
-69 12 l-55 1 4 -35z m72 15 c0 -5 -4 -10 -10 -10 -5 0 -10 5 -10 10 0 6 5 10
10 10 6 0 10 -4 10 -10z m40 -14 c0 -8 -4 -18 -10 -21 -5 -3 -10 3 -10 14 0
12 5 21 10 21 6 0 10 -6 10 -14z m70 -16 c0 -5 -2 -10 -4 -10 -3 0 -8 5 -11
10 -3 6 -1 10 4 10 6 0 11 -4 11 -10z"/>
<path d="M16086 6162 c-2 -4 -1 -23 4 -42 l8 -35 1 43 c1 41 -3 50 -13 34z"/>
<path d="M16115 6150 c-3 -11 -3 -29 0 -40 8 -26 45 -27 45 -1 0 11 5 23 10
26 6 4 10 -5 10 -19 0 -14 5 -26 10 -26 6 0 10 18 10 40 0 38 -2 40 -20 30
-14 -7 -20 -7 -20 0 0 19 -39 10 -45 -10z m35 -20 c0 -11 -4 -20 -10 -20 -5 0
-10 9 -10 20 0 11 5 20 10 20 6 0 10 -9 10 -20z"/>
<path d="M16327 5933 c-8 -14 -5 -63 4 -63 5 0 9 16 9 35 0 34 -4 43 -13 28z"/>
<path d="M16353 5924 c-3 -8 -3 -25 1 -37 5 -20 12 -24 51 -25 25 0 45 4 45 9
0 5 -5 9 -12 9 -9 0 -9 3 0 12 7 7 12 20 12 29 0 14 -9 17 -46 17 -30 0 -47
-4 -51 -14z m37 -18 c0 -8 -4 -18 -10 -21 -5 -3 -10 3 -10 14 0 12 5 21 10 21
6 0 10 -6 10 -14z m35 -6 c-20 -22 -31 -20 -22 5 4 8 14 15 23 15 16 0 16 -2
-1 -20z"/>
<path d="M15740 5735 c-7 -8 -10 -25 -6 -40 6 -22 11 -24 54 -22 46 2 47 3 44
32 -4 39 -17 52 -36 36 -10 -8 -16 -9 -21 -1 -9 14 -20 13 -35 -5z m30 -25 c0
-11 -4 -20 -10 -20 -5 0 -10 9 -10 20 0 11 5 20 10 20 6 0 10 -9 10 -20z"/>
<path d="M14435 4792 c-3 -3 -5 -21 -5 -39 0 -30 3 -34 23 -31 16 2 23 11 25
31 2 15 8 27 13 27 11 0 11 -3 -1 -34 -6 -18 -6 -26 1 -26 9 0 23 30 32 65 2
10 -78 16 -88 7z m22 -44 c-3 -7 -5 -2 -5 12 0 14 2 19 5 13 2 -7 2 -19 0 -25z"/>
<path d="M14394 4768 c3 -13 6 -29 6 -35 0 -7 5 -13 10 -13 6 0 10 16 10 35 0
26 -4 35 -16 35 -12 0 -15 -6 -10 -22z"/>
<path d="M14930 2576 c-6 -8 -10 -25 -8 -38 3 -20 9 -23 51 -25 l47 -2 0 33
c0 35 -19 53 -38 34 -6 -6 -12 -6 -16 1 -10 15 -21 14 -36 -3z m17 -43 c-3
-10 -5 -4 -5 12 0 17 2 24 5 18 2 -7 2 -21 0 -30z m49 22 c-3 -8 -1 -15 5 -15
6 0 8 -4 4 -10 -8 -13 -35 -1 -35 15 0 11 11 20 29 24 2 1 1 -6 -3 -14z"/>
<path d="M14888 2575 c-8 -8 3 -65 13 -65 5 0 9 16 9 35 0 32 -8 43 -22 30z"/>
<path d="M16610 6790 c0 -6 5 -10 10 -10 6 0 10 -13 10 -30 0 -16 5 -30 10
-30 6 0 10 14 10 30 0 17 5 30 10 30 6 0 10 -13 10 -29 0 -29 1 -30 51 -29 55
2 76 21 45 43 -15 11 -14 13 9 13 21 0 25 -5 25 -29 0 -16 5 -29 10 -29 6 0
10 14 10 30 0 17 5 30 10 30 6 0 10 -13 10 -30 0 -26 4 -30 28 -30 15 0 34 6
41 13 11 10 14 10 18 0 6 -15 73 -18 73 -3 0 6 8 5 20 -2 16 -10 24 -10 40 0
12 7 20 8 20 2 0 -5 5 -10 10 -10 6 0 10 7 10 17 0 15 1 15 19 -1 17 -16 18
-15 17 21 -1 34 -4 38 -28 41 -16 2 -28 -2 -28 -7 0 -8 -7 -7 -20 1 -16 10
-24 10 -40 0 -12 -7 -20 -8 -20 -2 0 5 -11 10 -25 10 -20 0 -25 -5 -26 -27
l-1 -28 -10 28 c-13 35 -26 34 -39 -3 -14 -39 -45 -41 -44 -2 l0 27 -122 2
c-75 2 -123 -1 -123 -7z m120 -18 c0 -5 10 -14 23 -19 18 -9 14 -10 -28 -10
-27 0 -40 2 -27 4 12 3 22 8 22 13 0 5 -10 11 -22 13 -20 4 -19 4 5 6 15 0 27
-3 27 -7z m326 -3 c10 -17 -13 -36 -27 -22 -12 12 -4 33 11 33 5 0 12 -5 16
-11z m-69 -25 c-3 -3 -12 -4 -19 -1 -8 3 -5 6 6 6 11 1 17 -2 13 -5z"/>
<path d="M15247 7023 c-18 -17 -5 -33 28 -33 28 0 35 4 35 20 0 15 -7 20 -28
20 -16 0 -32 -3 -35 -7z"/>
<path d="M15187 6700 c-4 -17 0 -20 34 -20 31 0 39 4 39 18 0 28 -66 29 -73 2z"/>
<path d="M7452 4913 c3 -38 3 -38 48 -39 25 -1 51 3 58 9 8 6 17 6 26 -2 14
-12 42 -11 64 3 8 5 18 4 25 -3 14 -14 127 -15 127 -1 0 6 -10 11 -22 11 -17
1 -19 2 -5 6 9 2 17 9 17 14 0 5 -8 9 -17 10 -14 0 -13 2 5 9 30 13 28 20 -8
20 -27 0 -30 -3 -30 -30 0 -20 -5 -30 -15 -30 -10 0 -15 10 -15 30 0 38 -20
40 -21 3 l-1 -28 -10 28 c-9 26 -28 38 -28 17 0 -13 -37 -50 -50 -50 -5 0 -10
10 -10 21 0 16 5 20 20 16 11 -3 20 -1 20 4 0 16 -32 23 -50 11 -12 -7 -21 -7
-28 0 -17 17 -52 -1 -52 -28 0 -15 -6 -24 -15 -24 -10 0 -15 10 -15 30 0 17
-5 30 -11 30 -6 0 -9 -16 -7 -37z m98 -3 c0 -11 -7 -20 -15 -20 -8 0 -15 9
-15 20 0 11 7 20 15 20 8 0 15 -9 15 -20z"/>
<path d="M7830 4915 c0 -39 20 -55 45 -35 10 9 15 9 15 1 0 -6 5 -11 10 -11 6
0 10 6 10 13 0 6 11 17 24 23 18 8 27 7 42 -4 18 -14 18 -14 -4 -9 -15 4 -22
1 -19 -6 6 -18 38 -21 48 -5 13 20 11 28 -13 38 -18 7 -19 9 -5 9 9 1 17 5 17
10 0 4 -29 9 -65 9 l-65 1 0 -29 c0 -17 -4 -30 -10 -30 -5 0 -10 11 -10 24 0
14 -4 28 -10 31 -6 4 -10 -8 -10 -30z"/>
<path d="M11317 6194 c-13 -14 -7 -31 16 -43 l22 -12 -23 5 c-15 3 -22 0 -19
-7 5 -15 46 -16 71 -3 14 8 20 8 23 -1 6 -15 83 -18 83 -3 0 14 28 12 33 -2 2
-7 7 -10 11 -7 9 9 -20 79 -33 79 -5 0 -12 -13 -16 -30 -9 -43 -42 -41 -47 3
l-4 32 -11 -25 c-8 -17 -12 -20 -12 -8 -1 28 -19 30 -33 4 -12 -23 -14 -23
-33 -9 -18 14 -18 15 -2 9 13 -4 17 -2 15 6 -5 15 -31 22 -41 12z"/>
<path d="M11562 6183 c-15 -28 3 -65 30 -61 12 2 23 9 26 17 3 9 -1 11 -16 7
-13 -4 -22 -1 -25 8 -8 19 6 28 28 19 13 -4 16 -2 13 8 -7 21 -45 23 -56 2z"/>
<path d="M14077 6670 c-5 -18 0 -20 35 -20 32 0 39 3 36 17 -2 10 -15 18 -34
20 -25 3 -33 0 -37 -17z"/>
<path d="M14350 6585 c0 -35 0 -35 43 -33 23 0 45 6 50 12 5 8 10 6 18 -4 8
-12 12 -12 16 -2 4 10 9 10 23 -3 17 -15 22 -15 47 -3 23 11 32 11 53 1 45
-23 160 -12 160 16 1 14 3 13 15 -3 8 -10 20 -16 28 -13 8 3 20 0 26 -6 8 -8
17 -6 33 11 18 18 20 26 12 40 -15 24 -84 27 -84 4 -1 -16 -2 -16 -13 -1 -9
12 -31 16 -92 17 -44 0 -72 -2 -62 -5 20 -5 22 -14 5 -31 -18 -18 -25 -15 -32
13 -7 28 -24 33 -32 10 -4 -8 -15 -15 -25 -15 -13 0 -17 -5 -12 -16 4 -12 2
-15 -8 -12 -8 3 -14 13 -14 24 0 14 6 18 23 17 13 -2 21 1 17 7 -11 17 -43 11
-59 -12 -13 -18 -16 -19 -16 -6 0 26 -20 32 -35 12 -13 -18 -14 -18 -15 -1 0
9 -3 17 -6 17 -4 0 -13 -8 -20 -17 -13 -17 -13 -17 -14 0 0 9 -7 17 -15 17
-10 0 -15 -11 -15 -35z m340 18 c0 -12 -33 -43 -47 -43 -11 0 -10 5 3 25 15
23 44 35 44 18z m167 -9 c8 -22 -15 -44 -26 -25 -10 16 -4 41 10 41 5 0 12 -7
16 -16z m-137 -14 c0 -14 -7 -20 -22 -20 -20 0 -21 1 -3 20 10 11 20 20 22 20
1 0 3 -9 3 -20z"/>
<path d="M14486 6522 c-10 -9 -7 -60 4 -67 6 -3 10 1 10 9 0 20 7 20 26 1 17
-16 74 -21 74 -6 0 5 -10 12 -22 14 l-23 4 23 2 c12 0 22 6 22 11 0 6 -10 10
-22 11 -22 1 -22 1 2 8 35 11 48 4 43 -23 -3 -13 0 -27 6 -30 7 -5 11 4 11 23
0 20 5 31 14 31 9 0 12 -8 9 -24 -3 -13 0 -27 6 -30 7 -5 11 7 11 33 l0 41
-94 -1 c-52 0 -97 -3 -100 -7z m41 -18 c-3 -3 -12 -4 -19 -1 -8 3 -5 6 6 6 11
1 17 -2 13 -5z"/>
<path d="M14727 6523 c-8 -14 5 -73 14 -67 12 7 12 74 0 74 -6 0 -12 -3 -14
-7z"/>
<path d="M14454 6426 c-3 -8 -4 -23 -1 -33 4 -16 6 -15 12 5 4 12 11 22 16 22
5 0 9 5 9 10 0 15 -30 12 -36 -4z"/>
<path d="M14510 6430 c0 -5 9 -10 21 -10 11 0 17 5 14 10 -3 6 -13 10 -21 10
-8 0 -14 -4 -14 -10z"/>
<path d="M14560 6430 c0 -5 11 -10 25 -10 14 0 25 5 25 10 0 6 -11 10 -25 10
-14 0 -25 -4 -25 -10z"/>
<path d="M14620 6430 c0 -5 11 -10 25 -10 14 0 25 5 25 10 0 6 -11 10 -25 10
-14 0 -25 -4 -25 -10z"/>
<path d="M14680 6430 c0 -5 11 -10 25 -10 14 0 25 5 25 10 0 6 -11 10 -25 10
-14 0 -25 -4 -25 -10z"/>
<path d="M14740 6430 c0 -5 11 -10 25 -10 14 0 25 5 25 10 0 6 -11 10 -25 10
-14 0 -25 -4 -25 -10z"/>
<path d="M14810 6430 c0 -5 23 -10 51 -10 31 0 48 4 44 10 -3 6 -26 10 -51 10
-24 0 -44 -4 -44 -10z"/>
<path d="M14920 6430 c0 -5 11 -10 25 -10 14 0 25 5 25 10 0 6 -11 10 -25 10
-14 0 -25 -4 -25 -10z"/>
<path d="M14980 6430 c0 -5 6 -10 14 -10 8 0 17 -10 19 -22 3 -17 5 -14 6 10
1 26 -3 32 -19 32 -11 0 -20 -4 -20 -10z"/>
<path d="M14450 6345 c0 -14 5 -25 10 -25 6 0 10 11 10 25 0 14 -4 25 -10 25
-5 0 -10 -11 -10 -25z"/>
<path d="M15012 6345 c0 -16 2 -22 5 -12 2 9 2 23 0 30 -3 6 -5 -1 -5 -18z"/>
<path d="M14450 6285 c0 -14 5 -25 10 -25 6 0 10 11 10 25 0 14 -4 25 -10 25
-5 0 -10 -11 -10 -25z"/>
<path d="M15012 6285 c0 -16 2 -22 5 -12 2 9 2 23 0 30 -3 6 -5 -1 -5 -18z"/>
<path d="M14450 6225 c0 -14 5 -25 10 -25 6 0 10 11 10 25 0 14 -4 25 -10 25
-5 0 -10 -11 -10 -25z"/>
<path d="M15012 6225 c0 -16 2 -22 5 -12 2 9 2 23 0 30 -3 6 -5 -1 -5 -18z"/>
<path d="M14450 6106 c0 -51 4 -86 10 -86 6 0 10 33 10 79 0 44 -4 83 -10 86
-6 4 -10 -25 -10 -79z"/>
<path d="M15014 6105 c0 -49 1 -71 3 -48 2 23 2 64 0 90 -2 26 -3 8 -3 -42z"/>
<path d="M14450 5985 c0 -14 5 -25 10 -25 6 0 10 11 10 25 0 14 -4 25 -10 25
-5 0 -10 -11 -10 -25z"/>
<path d="M15012 5985 c0 -16 2 -22 5 -12 2 9 2 23 0 30 -3 6 -5 -1 -5 -18z"/>
<path d="M14450 5925 c0 -14 5 -25 10 -25 6 0 10 11 10 25 0 14 -4 25 -10 25
-5 0 -10 -11 -10 -25z"/>
<path d="M15012 5925 c0 -16 2 -22 5 -12 2 9 2 23 0 30 -3 6 -5 -1 -5 -18z"/>
<path d="M14661 5889 c-15 -43 -14 -54 4 -39 12 10 18 10 30 0 17 -14 35 -5
36 18 0 12 3 11 9 -5 10 -23 40 -32 40 -12 0 8 5 8 15 -1 21 -18 47 -5 43 22
-2 15 -11 24 -25 26 -18 3 -22 0 -17 -15 5 -17 5 -17 -6 0 -13 20 -80 24 -81
5 0 -7 -5 -3 -11 10 -15 30 -24 28 -37 -9z"/>
<path d="M14450 5865 c0 -14 5 -25 10 -25 6 0 10 11 10 25 0 14 -4 25 -10 25
-5 0 -10 -11 -10 -25z"/>
<path d="M15012 5865 c0 -16 2 -22 5 -12 2 9 2 23 0 30 -3 6 -5 -1 -5 -18z"/>
<path d="M14577 5834 c-13 -14 -7 -31 16 -43 l22 -12 -22 5 c-13 2 -26 0 -29
-5 -7 -12 -11 -12 163 -14 147 -2 152 -1 156 19 4 21 4 21 6 -1 1 -15 7 -21
21 -20 17 1 20 8 19 42 -1 22 -3 33 -6 24 -3 -12 -16 -16 -56 -15 -29 1 -55 5
-58 9 -3 4 -17 3 -31 -2 -15 -6 -29 -6 -35 0 -5 5 -22 5 -42 -1 -19 -5 -38 -7
-43 -4 -5 3 -15 0 -23 -6 -11 -9 -18 -9 -32 0 -17 11 -17 11 0 6 12 -4 17 -2
15 6 -5 15 -31 22 -41 12z m83 -44 c0 -5 -4 -10 -10 -10 -5 0 -10 5 -10 10 0
6 5 10 10 10 6 0 10 -4 10 -10z m120 0 c0 -5 -4 -10 -10 -10 -5 0 -10 5 -10
10 0 6 5 10 10 10 6 0 10 -4 10 -10z"/>
<path d="M15012 5805 c0 -16 2 -22 5 -12 2 9 2 23 0 30 -3 6 -5 -1 -5 -18z"/>
<path d="M14450 5805 c0 -8 5 -15 10 -15 6 0 10 7 10 15 0 8 -4 15 -10 15 -5
0 -10 -7 -10 -15z"/>
<path d="M14450 5745 c0 -14 5 -25 10 -25 6 0 10 11 10 25 0 14 -4 25 -10 25
-5 0 -10 -11 -10 -25z"/>
<path d="M15012 5745 c0 -16 2 -22 5 -12 2 9 2 23 0 30 -3 6 -5 -1 -5 -18z"/>
<path d="M14450 5685 c0 -14 5 -25 10 -25 6 0 10 11 10 25 0 14 -4 25 -10 25
-5 0 -10 -11 -10 -25z"/>
<path d="M15012 5685 c0 -16 2 -22 5 -12 2 9 2 23 0 30 -3 6 -5 -1 -5 -18z"/>
<path d="M14450 5625 c0 -14 5 -25 10 -25 6 0 10 11 10 25 0 14 -4 25 -10 25
-5 0 -10 -11 -10 -25z"/>
<path d="M15012 5625 c0 -16 2 -22 5 -12 2 9 2 23 0 30 -3 6 -5 -1 -5 -18z"/>
<path d="M14450 5565 c0 -14 5 -25 10 -25 6 0 10 11 10 25 0 14 -4 25 -10 25
-5 0 -10 -11 -10 -25z"/>
<path d="M15012 5565 c0 -16 2 -22 5 -12 2 9 2 23 0 30 -3 6 -5 -1 -5 -18z"/>
<path d="M15012 5505 c0 -16 2 -22 5 -12 2 9 2 23 0 30 -3 6 -5 -1 -5 -18z"/>
<path d="M14450 5505 c0 -8 5 -15 10 -15 6 0 10 7 10 15 0 8 -4 15 -10 15 -5
0 -10 -7 -10 -15z"/>
<path d="M14450 5445 c0 -14 5 -25 10 -25 6 0 10 11 10 25 0 14 -4 25 -10 25
-5 0 -10 -11 -10 -25z"/>
<path d="M15012 5445 c0 -16 2 -22 5 -12 2 9 2 23 0 30 -3 6 -5 -1 -5 -18z"/>
<path d="M14450 5385 c0 -14 5 -25 10 -25 6 0 10 11 10 25 0 14 -4 25 -10 25
-5 0 -10 -11 -10 -25z"/>
<path d="M15012 5385 c0 -16 2 -22 5 -12 2 9 2 23 0 30 -3 6 -5 -1 -5 -18z"/>
<path d="M14450 5325 c0 -14 5 -25 10 -25 6 0 10 11 10 25 0 14 -4 25 -10 25
-5 0 -10 -11 -10 -25z"/>
<path d="M15012 5325 c0 -16 2 -22 5 -12 2 9 2 23 0 30 -3 6 -5 -1 -5 -18z"/>
<path d="M14450 5265 c0 -14 5 -25 10 -25 6 0 10 11 10 25 0 14 -4 25 -10 25
-5 0 -10 -11 -10 -25z"/>
<path d="M15012 5265 c0 -16 2 -22 5 -12 2 9 2 23 0 30 -3 6 -5 -1 -5 -18z"/>
<path d="M15010 5210 c0 -11 -7 -20 -15 -20 -8 0 -15 -4 -15 -10 0 -5 9 -10
20 -10 16 0 20 7 20 30 0 17 -2 30 -5 30 -3 0 -5 -9 -5 -20z"/>
<path d="M14450 5200 c0 -21 26 -38 38 -25 4 4 1 10 -5 12 -7 3 -13 11 -13 19
0 8 -4 14 -10 14 -5 0 -10 -9 -10 -20z"/>
<path d="M14510 5180 c0 -5 9 -10 21 -10 11 0 17 5 14 10 -3 6 -13 10 -21 10
-8 0 -14 -4 -14 -10z"/>
<path d="M14560 5180 c0 -5 11 -10 25 -10 14 0 25 5 25 10 0 6 -11 10 -25 10
-14 0 -25 -4 -25 -10z"/>
<path d="M14620 5180 c0 -5 11 -10 25 -10 14 0 25 5 25 10 0 6 -11 10 -25 10
-14 0 -25 -4 -25 -10z"/>
<path d="M14680 5180 c0 -5 11 -10 25 -10 14 0 25 5 25 10 0 6 -11 10 -25 10
-14 0 -25 -4 -25 -10z"/>
<path d="M14740 5180 c0 -5 11 -10 25 -10 14 0 25 5 25 10 0 6 -11 10 -25 10
-14 0 -25 -4 -25 -10z"/>
<path d="M14810 5180 c0 -5 23 -10 51 -10 31 0 48 4 44 10 -3 6 -26 10 -51 10
-24 0 -44 -4 -44 -10z"/>
<path d="M14920 5180 c0 -5 11 -10 25 -10 14 0 25 5 25 10 0 6 -11 10 -25 10
-14 0 -25 -4 -25 -10z"/>
<path d="M15187 6380 c-4 -17 0 -20 34 -20 31 0 39 4 39 18 0 28 -66 29 -73 2z"/>
<path d="M14077 6350 c-5 -18 0 -20 35 -20 32 0 39 3 36 17 -2 10 -15 18 -34
20 -25 3 -33 0 -37 -17z"/>
<path d="M15187 6060 c-5 -18 0 -20 35 -20 32 0 39 3 36 17 -2 10 -15 18 -34
20 -25 3 -33 0 -37 -17z"/>
<path d="M14077 6029 c-4 -16 1 -19 35 -19 32 0 39 3 36 17 -5 25 -65 27 -71
2z"/>
<path d="M16690 5240 c0 -6 5 -10 10 -10 6 0 10 -13 10 -30 0 -16 5 -30 10
-30 6 0 10 14 10 30 0 17 5 30 10 30 6 0 10 -13 10 -30 0 -29 1 -30 50 -29 59
2 81 20 50 42 -21 14 -21 15 5 15 19 0 25 -6 25 -24 0 -12 5 -26 10 -29 6 -4
10 7 10 24 0 17 5 31 10 31 6 0 10 -13 10 -30 0 -26 4 -30 28 -30 15 0 33 5
40 12 9 9 15 9 24 0 14 -14 64 -16 73 -2 4 6 13 5 25 -2 14 -9 22 -9 32 0 11
9 17 9 26 0 9 -9 12 -8 12 5 0 22 9 22 25 0 10 -14 12 -10 11 23 -1 35 -4 39
-28 42 -17 2 -28 -1 -28 -9 0 -8 -4 -8 -12 -2 -7 6 -37 11 -65 11 -48 1 -53
-1 -54 -21 l0 -22 -11 23 c-15 30 -24 28 -37 -8 -13 -39 -41 -40 -41 -1 l0 29
-125 1 c-74 0 -125 -4 -125 -9z m143 -37 c19 -9 15 -10 -23 -10 -25 0 -37 2
-27 4 9 3 17 9 17 14 0 5 -8 9 -17 10 -15 0 -15 2 2 8 13 6 21 4 23 -4 2 -7
13 -17 25 -22z m305 10 c-5 -25 -28 -28 -28 -4 0 12 6 21 16 21 9 0 14 -7 12
-17z m69 11 c-3 -3 -12 -4 -19 -1 -8 3 -5 6 6 6 11 1 17 -2 13 -5z"/>
<path d="M15187 5740 c-5 -18 0 -20 35 -20 32 0 39 3 36 17 -2 10 -15 18 -34
20 -25 3 -33 0 -37 -17z"/>
<path d="M14077 5709 c-4 -16 1 -19 35 -19 32 0 39 3 36 17 -5 25 -65 27 -71
2z"/>
<path d="M12964 4369 c-4 -7 4 -20 17 -31 24 -19 24 -19 2 -13 -13 4 -23 2
-23 -4 0 -16 35 -22 65 -11 15 6 33 7 39 2 20 -14 68 -14 77 0 7 10 12 11 29
0 23 -14 24 -8 9 37 -14 39 -27 40 -40 1 -6 -16 -17 -30 -25 -30 -9 0 -14 11
-14 30 0 38 -20 40 -21 3 l-1 -28 -10 28 c-12 32 -28 35 -35 6 -4 -12 -11 -18
-20 -15 -8 3 -19 6 -24 6 -6 0 -8 4 -4 10 3 5 13 6 22 3 11 -4 14 -3 9 5 -9
15 -43 15 -52 1z"/>
<path d="M13220 4340 c0 -36 3 -40 25 -40 31 0 33 20 3 21 -22 0 -22 1 2 11
l25 11 -25 7 -25 7 25 11 25 11 -27 0 c-26 1 -28 -2 -28 -39z"/>
<path d="M14077 5389 c-4 -16 1 -19 35 -19 32 0 39 3 36 17 -5 25 -65 27 -71
2z"/>
<path d="M14076 5078 c-3 -15 3 -18 36 -18 31 0 39 3 36 17 -4 23 -65 24 -72
1z"/>
<path d="M10285 4400 c-8 -14 3 -30 21 -30 8 0 14 -5 14 -11 0 -6 -9 -8 -22
-4 -21 7 -22 6 -8 -9 12 -12 23 -14 48 -7 21 7 43 6 63 -1 22 -7 37 -7 55 0
13 7 31 9 39 6 18 -7 19 6 3 41 -15 33 -27 32 -39 -5 -6 -16 -17 -30 -25 -30
-9 0 -14 11 -14 30 0 34 -20 42 -21 8 l0 -23 -11 23 c-14 28 -28 28 -35 1 -4
-12 -11 -18 -20 -15 -8 3 -19 6 -24 6 -6 0 -8 4 -4 10 3 5 13 6 22 3 11 -4 14
-3 9 5 -9 15 -43 16 -51 2z"/>
<path d="M10530 4376 c0 -39 11 -50 39 -41 44 14 36 75 -10 75 -26 0 -29 -3
-29 -34z m45 -1 c0 -10 -6 -20 -12 -22 -8 -3 -13 5 -13 22 0 17 5 25 13 23 6
-3 12 -13 12 -23z"/>
<path d="M15472 4333 c13 -49 16 -51 27 -22 l10 24 7 -22 c7 -27 24 -31 24 -6
0 15 1 15 18 0 23 -21 36 -21 52 -2 11 13 9 15 -11 13 -15 -2 -24 3 -27 15 -3
13 3 17 23 17 14 0 23 4 20 10 -7 12 -74 10 -82 -3 -3 -5 -9 -3 -14 4 -8 12
-11 11 -20 -1 -8 -11 -12 -12 -16 -2 -11 29 -21 9 -11 -25z"/>
<path d="M15640 4335 c0 -34 14 -47 23 -22 3 8 10 6 21 -8 15 -19 15 -18 16
23 0 23 -4 42 -10 42 -5 0 -10 -7 -10 -15 0 -8 -4 -15 -10 -15 -5 0 -10 7 -10
15 0 8 -4 15 -10 15 -5 0 -10 -16 -10 -35z"/>
<path d="M15964 4179 c3 -17 6 -35 6 -40 0 -5 7 -9 15 -9 8 0 15 8 15 17 0 15
2 14 16 -3 10 -13 17 -15 20 -7 4 9 10 10 23 1 20 -12 51 -5 51 12 0 5 -10 9
-22 7 -15 -1 -23 3 -23 13 0 10 8 14 23 13 19 -2 33 15 15 18 -38 7 -66 3 -73
-11 -8 -13 -9 -13 -10 3 0 9 -4 17 -10 17 -5 0 -14 -8 -19 -17 -10 -17 -10
-17 -11 0 0 9 -5 17 -11 17 -8 0 -9 -11 -5 -31z"/>
<path d="M16370 4046 c0 -8 5 -27 11 -43 l11 -28 12 24 13 23 6 -22 c6 -24 27
-19 27 7 0 11 4 10 18 -7 11 -14 23 -19 35 -15 25 10 21 25 -5 22 -32 -3 -30
26 2 33 32 7 14 19 -28 18 -19 -1 -33 -7 -35 -17 -4 -13 -5 -13 -6 2 0 9 -7
17 -15 17 -8 0 -17 -8 -19 -17 -4 -17 -5 -17 -6 0 -1 20 -21 23 -21 3z"/>
<path d="M16517 3576 l-97 -102 25 -24 26 -24 101 99 c57 55 104 101 107 103
8 4 -42 52 -53 51 -6 -1 -55 -48 -109 -103z m48 -36 c-79 -80 -91 -88 -104
-75 -14 13 -5 25 74 105 79 80 91 88 104 75 14 -13 5 -25 -74 -105z"/>
<path d="M9590 2576 c-6 -8 -10 -25 -8 -38 3 -20 9 -23 48 -23 43 0 45 1 46
30 1 33 -14 49 -32 34 -8 -7 -14 -6 -19 1 -9 14 -20 13 -35 -4z m30 -32 c0 -8
-4 -14 -10 -14 -5 0 -10 9 -10 21 0 11 5 17 10 14 6 -3 10 -13 10 -21z m37
-16 c-3 -8 -6 -5 -6 6 -1 11 2 17 5 13 3 -3 4 -12 1 -19z"/>
<path d="M10930 2576 c-6 -8 -10 -25 -8 -38 3 -20 9 -23 51 -25 l48 -2 -3 35
c-3 42 -16 54 -33 30 -11 -14 -13 -15 -19 -1 -7 19 -20 19 -36 1z m17 -43 c-3
-10 -5 -4 -5 12 0 17 2 24 5 18 2 -7 2 -21 0 -30z m63 2 c0 -17 -2 -18 -25 -9
-13 5 -14 8 -3 15 19 13 28 11 28 -6z"/>
<path d="M12127 2583 c-4 -3 -7 -21 -7 -40 0 -25 4 -33 18 -33 10 0 24 6 30
12 10 10 15 10 22 -2 14 -21 29 3 22 36 -5 26 -12 30 -28 14 -8 -8 -15 -6 -24
5 -14 16 -23 19 -33 8z m23 -40 c0 -20 -3 -24 -11 -16 -7 7 -9 19 -6 27 10 24
17 19 17 -11z"/>
<path d="M9547 2572 c-8 -11 4 -62 14 -62 5 0 9 16 9 35 0 32 -12 46 -23 27z"/>
<path d="M10888 2575 c-8 -8 3 -65 13 -65 5 0 9 16 9 35 0 32 -8 43 -22 30z"/>
<path d="M12084 2558 c3 -13 6 -29 6 -37 0 -28 13 -1 14 29 1 19 -4 30 -13 30
-9 0 -11 -7 -7 -22z"/>
<path d="M15262 2098 c-16 -16 -15 -43 1 -56 13 -11 67 -11 67 1 0 12 28 8 33
-5 2 -7 7 -10 11 -7 3 3 -1 23 -10 45 -15 36 -17 37 -30 19 -35 -51 -64 -62
-64 -24 0 17 5 20 21 16 13 -3 19 -1 16 6 -5 17 -30 20 -45 5z"/>
<path d="M15370 2105 c0 -3 7 -22 15 -41 14 -35 34 -38 36 -6 0 12 3 11 9 -5
8 -20 17 -23 59 -23 27 0 53 5 57 11 4 8 9 7 15 -2 6 -11 9 -10 15 4 6 16 7
16 18 1 20 -27 56 -9 56 27 0 34 -23 48 -51 31 -13 -9 -19 -8 -23 1 -3 9 -7 9
-14 -2 -7 -9 -12 -10 -16 -2 -4 6 -34 11 -66 11 -55 0 -59 -2 -68 -27 l-10
-28 -7 28 c-6 22 -25 39 -25 22z m113 -22 c-7 -2 -19 -2 -25 0 -7 3 -2 5 12 5
14 0 19 -2 13 -5z m52 -13 c0 -7 -6 -15 -12 -17 -8 -3 -13 4 -13 17 0 13 5 20
13 18 6 -3 12 -11 12 -18z m95 0 c0 -11 -4 -20 -9 -20 -14 0 -23 18 -16 30 10
17 25 11 25 -10z m-147 -17 c-7 -2 -19 -2 -25 0 -7 3 -2 5 12 5 14 0 19 -2 13
-5z"/>
<path d="M9620 1775 l0 -405 70 0 70 0 0 405 0 405 -70 0 -70 0 0 -405z m98
388 c-16 -2 -40 -2 -55 0 -16 2 -3 4 27 4 30 0 43 -2 28 -4z m22 -96 l0 -83
-34 4 c-27 3 -34 0 -39 -18 -5 -20 -3 -22 34 -18 l39 4 0 -83 0 -83 -55 0 -55
0 0 173 c0 96 3 177 7 180 3 4 28 7 55 7 l48 0 0 -83z m-22 -294 c-16 -2 -40
-2 -55 0 -16 2 -3 4 27 4 30 0 43 -2 28 -4z m22 -106 l0 -83 -38 4 c-31 3 -39
0 -39 -13 0 -13 8 -16 39 -13 l38 4 0 -78 0 -78 -55 0 -55 0 0 170 0 170 55 0
55 0 0 -83z"/>
<path d="M8652 1798 l3 -163 408 -3 407 -2 0 165 0 165 -410 0 -410 0 2 -162z
m806 0 l-3 -153 -392 -3 -393 -2 0 155 0 155 395 0 396 0 -3 -152z"/>
<path d="M9016 1023 c-3 -3 -6 -21 -6 -39 0 -28 3 -33 23 -31 12 0 25 6 29 12
5 6 8 6 8 -2 0 -7 6 -13 14 -13 8 0 16 6 19 13 3 9 7 9 20 -2 14 -11 17 -11
17 0 0 10 3 10 12 1 16 -16 75 -15 81 1 4 10 7 10 18 0 8 -8 42 -13 91 -13 67
0 78 2 78 18 1 16 2 16 13 1 9 -12 26 -16 57 -15 40 1 45 4 48 27 4 31 -21 54
-45 44 -10 -5 -24 -7 -30 -6 -7 1 -13 -6 -13 -15 0 -17 -1 -17 -12 -1 -15 20
-152 35 -163 17 -3 -5 1 -10 10 -10 13 0 14 -4 4 -22 l-12 -22 -14 27 c-15 30
-28 34 -37 12 -3 -8 -10 -15 -15 -15 -6 0 -8 6 -5 14 6 16 -19 28 -41 20 -8
-3 -17 -16 -21 -27 -7 -21 -8 -20 -17 7 l-10 29 -18 -24 -19 -24 0 25 0 25
-20 -25 c-15 -20 -20 -21 -20 -8 0 19 -14 31 -24 21z m170 -28 c-3 -8 0 -15 6
-15 9 0 9 -3 0 -12 -9 -9 -15 -9 -23 -1 -13 13 -5 43 12 43 6 0 9 -7 5 -15z
m152 -12 c-31 -30 -47 -26 -26 6 7 12 22 21 33 21 18 0 17 -2 -7 -27z m177 4
c0 -26 -20 -25 -23 2 -3 16 1 22 10 19 7 -3 13 -12 13 -21z m-135 -7 c0 -11
-7 -20 -15 -20 -18 0 -19 12 -3 28 16 16 18 15 18 -8z"/>
<path d="M9139 917 c-6 -15 -4 -69 2 -73 5 -3 9 2 9 10 0 20 1 20 36 1 34 -17
60 -19 69 -5 3 6 -4 10 -17 11 -23 0 -23 0 2 11 l25 11 -25 7 c-22 6 -23 8 -7
15 26 11 47 -2 47 -30 0 -14 5 -25 10 -25 6 0 10 11 10 24 0 14 5 28 10 31 6
4 10 -7 10 -24 0 -17 5 -31 10 -31 6 0 10 16 10 35 l0 35 -100 -1 c-55 0 -100
-2 -101 -2z m36 -17 c3 -5 -1 -10 -10 -10 -9 0 -13 5 -10 10 3 6 8 10 10 10 2
0 7 -4 10 -10z m22 -32 c-3 -8 -6 -5 -6 6 -1 11 2 17 5 13 3 -3 4 -12 1 -19z"/>
<path d="M9365 910 c-3 -5 1 -10 9 -10 20 0 20 -14 1 -30 -8 -7 -12 -16 -9
-21 7 -12 44 -11 44 1 0 6 -5 10 -12 10 -9 0 -9 3 0 12 19 19 15 48 -7 48 -11
0 -23 -4 -26 -10z"/>
<path d="M14017 2133 c-14 -32 -36 -91 -49 -130 -13 -40 -27 -71 -33 -69 -5 2
-9 8 -8 14 6 26 -103 50 -129 29 -8 -6 -23 -34 -33 -60 -27 -75 1 -114 97
-131 21 -4 39 -10 42 -14 2 -4 0 -32 -6 -62 -13 -75 -12 -362 1 -429 13 -63
10 -66 -55 -76 -43 -6 -94 -43 -94 -67 0 -24 37 -110 51 -119 27 -17 137 11
124 32 -4 5 0 9 8 9 8 0 21 -24 31 -57 16 -52 72 -193 80 -200 2 -2 53 22 114
52 61 30 116 55 122 55 6 0 60 -25 120 -55 l110 -55 17 33 c9 17 34 79 54 137
29 80 40 100 45 83 4 -16 19 -25 54 -33 69 -16 84 -9 109 57 20 52 20 58 6 80
-18 26 -38 37 -104 53 -43 11 -43 12 -37 48 3 20 9 85 12 145 l7 107 -136 0
-137 0 0 -52 c0 -126 -47 -348 -97 -458 l-25 -55 -23 50 c-59 131 -95 323 -95
505 0 161 21 287 71 430 22 63 42 124 45 135 4 17 -12 27 -107 70 -62 28 -115
51 -119 53 -4 1 -19 -23 -33 -55z m150 -60 c-12 -28 -16 -28 -62 -6 -38 18
-41 24 -25 53 10 19 11 19 54 -2 41 -19 43 -23 33 -45z m90 -21 c-5 -16 -69
-184 -73 -190 -2 -5 -99 39 -114 52 -8 8 -29 14 -47 14 -47 1 -62 12 -52 40 5
12 13 22 20 22 6 0 9 -7 6 -14 -6 -15 2 -19 58 -31 36 -7 60 9 69 47 6 25 2
29 -38 48 -25 11 -52 20 -60 20 -9 0 -16 5 -16 10 0 16 16 12 87 -20 36 -17
67 -29 67 -28 1 2 9 20 19 41 l17 38 31 -16 c21 -12 29 -22 26 -33z m-161 -42
c8 0 11 -6 8 -15 -7 -17 -32 -19 -53 -6 -17 11 -4 34 16 27 8 -3 21 -6 29 -6z
m-190 -62 c5 -8 0 -9 -15 -5 -12 3 -35 -2 -51 -11 -33 -19 -53 -9 -24 13 23
17 80 20 90 3z m28 -43 c2 -15 -43 -18 -60 -5 -7 7 -14 16 -14 20 0 11 73 -4
74 -15z m-96 -1 c26 -7 30 -33 5 -35 -47 -3 -78 15 -53 31 18 11 18 11 48 4z
m148 -16 c-3 -13 -6 -30 -6 -37 0 -10 -3 -11 -9 -5 -12 11 -2 64 11 64 6 0 8
-10 4 -22z m83 -56 c-7 -29 -18 -52 -25 -52 -9 0 -10 9 -4 33 4 17 11 45 15
61 4 19 10 25 16 19 6 -6 5 -28 -2 -61z m-151 21 c2 -9 -8 -13 -33 -13 -33 0
-36 2 -25 15 15 18 51 16 58 -2z m-84 -18 c11 -8 33 -15 49 -15 15 0 26 -4 22
-9 -11 -19 -115 8 -115 29 0 14 22 12 44 -5z m250 -74 l79 0 -7 -38 c-4 -21
-9 -77 -13 -125 -8 -113 -28 -120 -28 -11 l0 78 -97 3 -98 3 0 -75 c0 -50 4
-76 13 -79 6 -3 2 -6 -10 -6 -20 -1 -23 4 -23 41 0 23 5 82 11 131 l12 89 41
-6 c23 -3 77 -6 120 -5z m16 -171 l0 -60 -80 0 -80 0 0 60 0 60 80 0 80 0 0
-60z m40 -157 c0 -32 5 -87 10 -122 6 -35 9 -66 6 -69 -3 -2 -45 -6 -93 -8
-49 -2 -99 -5 -112 -6 -30 -4 -37 20 -47 165 l-7 97 122 0 121 0 0 -57z m520
42 c0 -25 -20 -208 -25 -232 -5 -19 -11 -23 -40 -20 -19 1 -35 5 -35 8 0 3
-33 6 -74 5 -41 -1 -77 2 -81 5 -3 4 0 61 7 128 l12 121 118 0 c100 0 118 -2
118 -15z m-593 -310 c8 -30 9 -53 3 -59 -5 -5 -13 9 -20 35 -6 24 -14 52 -17
63 -3 12 -1 17 8 14 8 -3 20 -27 26 -53z m450 33 c-3 -13 -9 -40 -12 -60 -7
-37 -25 -53 -25 -22 0 31 23 104 32 104 6 0 8 -10 5 -22z m-637 -20 c-25 -5
-49 -14 -54 -19 -14 -13 -39 -11 -31 2 11 17 47 28 90 27 l40 0 -45 -10z m878
-11 c22 -23 12 -28 -23 -12 -17 8 -46 19 -65 24 -33 10 -32 11 18 7 32 -2 60
-10 70 -19z m-834 -16 c10 -16 -38 -30 -57 -16 -14 10 -15 14 -5 18 21 9 56 8
62 -2z m770 3 c15 -6 15 -8 -1 -19 -18 -13 -63 -1 -63 17 0 9 41 11 64 2z
m-711 -31 c5 -26 2 -42 -7 -32 -9 11 -15 59 -7 59 5 0 11 -12 14 -27z m598
-20 c-9 -16 -10 -16 -11 -1 0 9 3 25 7 35 7 16 8 17 11 1 2 -10 -1 -25 -7 -35z
m-724 11 c2 -6 -7 -16 -21 -22 -19 -8 -28 -7 -43 3 -16 13 -16 16 -3 25 18 13
62 9 67 -6z m367 -85 c20 -56 36 -102 34 -104 -9 -7 -48 -25 -55 -25 -5 0 -15
16 -22 35 -7 19 -16 35 -20 35 -5 0 -38 -13 -74 -30 -77 -35 -77 -35 -77 -16
0 9 15 17 40 21 22 4 40 11 40 16 0 5 9 9 20 9 17 0 19 4 14 28 -8 32 -38 63
-56 58 -7 -3 -25 -7 -40 -10 -19 -4 -28 -13 -28 -26 0 -30 -17 -24 -28 9 -10
27 -8 29 21 36 18 4 40 7 50 6 10 -2 24 3 32 9 18 15 87 49 101 50 6 0 27 -45
48 -101z m187 89 c19 -6 45 -19 59 -28 14 -9 44 -20 68 -23 24 -3 45 -7 47 -9
8 -8 -9 -58 -19 -55 -6 2 -10 11 -8 19 1 10 -8 18 -25 22 -16 4 -35 9 -43 11
-22 6 -47 -16 -54 -50 -6 -26 -3 -32 21 -42 16 -7 40 -15 56 -19 15 -3 29 -10
32 -14 12 -20 -15 -16 -79 11 -37 16 -70 29 -72 29 -3 0 -12 -16 -20 -35 -8
-19 -19 -35 -25 -35 -8 0 -45 16 -56 24 -1 1 13 40 32 86 19 47 35 93 35 103
0 20 6 21 51 5z m359 -3 c10 -12 7 -15 -13 -20 -32 -8 -77 13 -56 26 21 13 55
11 69 -6z m-830 -26 c0 -5 -16 -9 -35 -9 -24 0 -33 4 -29 13 5 15 64 11 64 -4z
m745 1 c4 -6 -8 -10 -29 -10 -20 0 -36 5 -36 10 0 6 13 10 29 10 17 0 33 -4
36 -10z m-802 -30 c17 0 26 -4 22 -10 -10 -15 -69 -12 -91 6 -18 15 -18 15 11
9 17 -3 43 -6 58 -5z m861 -5 c-23 -17 -80 -20 -90 -4 -5 8 1 10 20 7 14 -3
29 -1 32 3 3 5 17 9 32 9 25 0 25 -1 6 -15z m-644 -54 c0 -12 -9 -20 -25 -23
-14 -3 -25 -4 -25 -2 0 1 -3 9 -6 17 -3 10 2 17 13 20 35 9 43 7 43 -12z m396
13 c16 -4 20 -11 17 -25 -4 -15 -11 -18 -27 -13 -29 9 -40 20 -32 33 8 12 13
13 42 5z m-466 -54 c0 -5 -4 -10 -10 -10 -5 0 -10 5 -10 10 0 6 5 10 10 10 6
0 10 -4 10 -10z m520 6 c0 -3 -4 -8 -10 -11 -5 -3 -10 -1 -10 4 0 6 5 11 10
11 6 0 10 -2 10 -4z m-386 -32 c12 -31 5 -42 -35 -58 -47 -19 -45 -20 -54 15
-6 23 -2 28 32 41 49 21 50 21 57 2z m289 -4 c30 -11 36 -18 31 -35 -12 -38
-25 -38 -102 1 -6 3 19 55 26 52 4 -2 24 -10 45 -18z"/>
<path d="M13920 1405 l0 -75 100 0 100 0 0 75 0 75 -100 0 -100 0 0 -75z m180
0 l0 -55 -80 0 -80 0 0 55 0 55 80 0 80 0 0 -55z"/>
<path d="M14440 1405 l0 -75 100 0 100 0 0 75 0 75 -100 0 -100 0 0 -75z m180
0 l0 -55 -80 0 -80 0 0 55 0 55 80 0 80 0 0 -55z"/>
<path d="M10541 1799 c-15 -43 -14 -54 4 -39 12 10 18 10 31 -1 14 -11 18 -10
30 6 14 18 14 18 30 -1 15 -19 15 -18 11 4 -6 27 9 30 16 2 5 -21 31 -27 42
-10 3 5 12 7 20 3 8 -3 15 0 15 6 0 6 7 11 15 11 8 0 15 -4 15 -10 0 -5 9 -10
20 -10 14 0 20 7 21 23 1 20 2 19 11 -5 5 -16 13 -28 18 -28 5 0 13 12 18 28
9 24 11 24 11 5 1 -22 21 -44 21 -24 0 8 6 7 19 -1 25 -15 51 4 51 39 0 28
-25 41 -51 24 -12 -7 -19 -7 -19 -1 0 20 -38 10 -45 -12 l-8 -23 -4 23 c-3 17
-11 22 -34 22 -19 0 -29 -5 -29 -15 0 -8 -7 -15 -15 -15 -8 0 -15 6 -15 13 0
17 -59 21 -77 5 -9 -7 -13 -7 -13 1 0 6 -13 11 -30 11 -24 0 -30 -4 -31 -22
l0 -23 -11 23 c-15 30 -24 28 -37 -9z m96 5 c-3 -3 -12 -4 -19 -1 -8 3 -5 6 6
6 11 1 17 -2 13 -5z m83 -10 c0 -16 -31 -27 -43 -15 -5 5 -6 14 -3 19 9 14 46
11 46 -4z m220 -5 c0 -24 -23 -21 -28 4 -2 10 3 17 12 17 10 0 16 -9 16 -21z"/>
<path d="M12190 1794 c0 -28 3 -35 15 -30 8 3 15 0 15 -6 0 -7 5 -6 15 2 10 9
15 9 15 1 0 -6 7 -11 15 -11 8 0 15 5 15 10 0 14 27 12 34 -2 5 -10 7 -10 12
0 4 9 10 10 19 2 13 -11 36 -9 69 5 13 6 21 4 24 -3 2 -7 25 -12 57 -12 66 0
116 10 109 21 -10 16 9 9 23 -8 10 -13 16 -14 19 -6 4 9 10 10 24 1 24 -15 50
5 50 38 0 26 1 26 -52 29 -29 2 -38 -2 -38 -14 -1 -14 -2 -14 -14 2 -11 14
-28 17 -92 17 -68 -1 -77 -2 -61 -14 15 -12 15 -15 2 -26 -12 -10 -16 -8 -25
14 -11 31 -26 34 -35 7 -4 -13 -12 -17 -25 -14 -22 6 -28 -12 -7 -21 6 -3 3
-5 -8 -3 -27 3 -25 31 3 35 12 2 20 8 17 13 -9 14 -37 11 -57 -8 -17 -15 -18
-15 -18 0 0 10 -7 17 -15 17 -8 0 -15 -7 -15 -15 0 -8 -5 -15 -11 -15 -5 0 -8
4 -4 9 11 19 -17 23 -30 5 -13 -18 -14 -18 -15 -1 0 9 -7 17 -15 17 -11 0 -15
-11 -15 -36z m330 -4 c-6 -11 -20 -20 -32 -20 -20 0 -21 1 -3 20 10 11 24 20
32 20 11 0 11 -4 3 -20z m40 0 c0 -11 -7 -20 -15 -20 -13 0 -13 3 -3 20 7 11
14 20 15 20 2 0 3 -9 3 -20z m140 0 c0 -11 -7 -20 -15 -20 -8 0 -15 9 -15 20
0 11 7 20 15 20 8 0 15 -9 15 -20z"/>
<path d="M12249 1694 c-13 -16 -13 -16 16 -32 19 -11 19 -11 -3 -12 -13 0 -21
-4 -18 -9 10 -15 136 -10 136 6 0 7 4 13 9 13 5 0 17 3 25 6 12 4 15 2 10 -9
-3 -8 -1 -18 5 -22 6 -3 11 1 11 9 0 20 34 21 50 1 16 -19 80 -17 80 3 0 13 3
13 18 -1 26 -23 29 -21 24 13 -3 18 0 30 7 30 6 0 11 -13 11 -30 0 -16 5 -30
10 -30 6 0 10 14 10 30 0 17 5 30 10 30 6 0 10 4 10 10 0 12 -108 11 -116 -1
-2 -5 -13 -3 -24 3 -14 9 -22 9 -33 -1 -9 -7 -18 -8 -21 -2 -3 5 -34 8 -68 8
-61 -2 -63 -3 -66 -29 -2 -16 -8 -28 -13 -28 -5 0 -9 12 -9 28 0 23 -5 27 -29
29 -16 1 -35 -5 -42 -13z m218 -10 c-3 -3 -12 -4 -19 -1 -8 3 -5 6 6 6 11 1
17 -2 13 -5z m63 -14 c0 -11 -7 -20 -15 -20 -15 0 -21 21 -8 33 12 13 23 7 23
-13z m67 14 c-3 -3 -12 -4 -19 -1 -8 3 -5 6 6 6 11 1 17 -2 13 -5z"/>
<path d="M2268 1943 c-12 -3 -18 -14 -18 -34 0 -16 -4 -29 -10 -29 -5 0 -10
14 -10 30 0 17 -5 30 -11 30 -6 0 -9 -14 -7 -32 3 -31 6 -33 41 -35 25 -1 37
3 37 12 0 8 8 16 18 18 16 4 16 5 0 6 -25 1 -23 21 2 21 16 0 20 -7 20 -30 0
-16 5 -30 10 -30 6 0 10 6 10 14 0 8 6 17 13 19 10 4 10 6 0 6 -18 1 -16 21 2
21 10 0 15 -10 15 -30 0 -16 5 -30 10 -30 6 0 10 5 10 11 0 8 4 8 13 1 15 -13
77 -13 77 0 0 4 8 3 19 -3 10 -7 26 -9 35 -6 20 8 21 50 2 66 -15 13 -46 5
-46 -13 0 -6 -4 -4 -10 4 -5 8 -12 11 -16 7 -4 -4 -13 -2 -21 4 -10 9 -18 8
-32 -5 -13 -12 -20 -13 -23 -6 -4 12 -98 21 -130 13z m202 -34 c0 -4 -9 -13
-19 -19 -22 -11 -36 1 -27 25 5 14 46 9 46 -6z m73 8 c3 -8 1 -20 -4 -28 -11
-19 -34 3 -26 25 8 20 23 21 30 3z"/>
<path d="M8600 2349 c0 -17 5 -20 32 -17 22 2 34 9 36 21 3 14 -4 17 -32 17
-30 0 -36 -4 -36 -21z"/>
<path d="M8913 2350 c-2 -18 3 -21 35 -18 50 4 51 32 2 36 -30 2 -36 0 -37
-18z"/>
<path d="M10096 2354 c-9 -24 -9 -24 34 -22 32 1 40 5 40 20 0 24 -65 26 -74
2z"/>
<path d="M10480 2350 c0 -16 7 -20 35 -20 28 0 35 4 35 20 0 16 -7 20 -35 20
-28 0 -35 -4 -35 -20z"/>
<path d="M13163 2162 c-1 -15 5 -17 33 -14 45 6 46 32 1 32 -24 0 -33 -5 -34
-18z"/>
<path d="M11453 2195 c0 -12 9 -15 36 -13 20 2 36 8 36 13 0 6 -16 11 -36 13
-27 2 -36 -1 -36 -13z"/>
<path d="M11619 2211 c-31 -13 -19 -31 21 -31 27 0 40 4 40 14 0 15 -38 26
-61 17z"/>
<path d="M9833 2165 c0 -10 11 -15 34 -15 23 0 33 5 33 15 0 10 -10 15 -33 15
-23 0 -34 -5 -34 -15z"/>
<path d="M8364 2103 c3 -20 56 -30 67 -12 12 20 1 29 -36 29 -25 0 -33 -4 -31
-17z"/>
<path d="M11453 1855 c0 -12 9 -15 36 -13 20 2 36 8 36 13 0 6 -16 11 -36 13
-27 2 -36 -1 -36 -13z"/>
<path d="M11603 1855 c0 -11 11 -15 39 -15 27 0 38 4 38 15 0 11 -11 15 -38
15 -28 0 -39 -4 -39 -15z"/>
<path d="M9833 1819 c-1 -15 2 -19 13 -15 9 3 24 6 35 6 10 0 19 7 19 15 0 10
-10 15 -33 15 -26 0 -33 -4 -34 -21z"/>
<path d="M13163 1822 c-1 -15 5 -17 33 -14 45 6 46 32 1 32 -24 0 -33 -5 -34
-18z"/>
<path d="M8360 1822 c0 -15 6 -17 35 -14 21 3 35 10 35 18 0 9 -12 14 -35 14
-27 0 -35 -4 -35 -18z"/>
<path d="M3173 1302 c-13 -2 -23 -8 -23 -14 0 -6 -6 -5 -16 3 -13 10 -17 10
-25 -2 -6 -10 -9 -10 -9 -1 0 6 -4 12 -10 12 -13 0 -13 -40 0 -60 8 -13 11
-12 24 5 14 18 15 18 16 3 0 -20 20 -25 20 -6 0 9 3 9 12 0 18 -18 58 -15 58
4 0 13 -3 14 -15 4 -12 -10 -16 -9 -21 3 -8 21 3 37 21 30 8 -3 15 -1 15 5 0
13 -19 19 -47 14z"/>
<path d="M8360 1532 c0 -15 6 -17 35 -14 21 3 35 10 35 18 0 9 -12 14 -35 14
-27 0 -35 -4 -35 -18z"/>
<path d="M11453 1510 c-2 -20 12 -21 65 -4 24 7 2 24 -31 24 -26 0 -33 -4 -34
-20z"/>
<path d="M11604 1513 c2 -10 6 -17 9 -15 4 1 21 2 37 2 20 0 30 5 30 15 0 11
-11 15 -39 15 -32 0 -39 -3 -37 -17z"/>
<path d="M9833 1481 c-1 -16 4 -19 30 -17 47 4 51 36 5 36 -26 0 -34 -4 -35
-19z"/>
<path d="M13163 1480 c-2 -18 3 -20 30 -17 46 5 51 37 5 37 -27 0 -34 -4 -35
-20z"/>
<path d="M8525 1281 c-37 -11 -28 -31 15 -31 27 0 40 4 40 14 0 16 -27 25 -55
17z"/>
<path d="M8879 1281 c-8 -3 -15 -12 -17 -19 -3 -17 70 -12 75 4 4 13 -36 23
-58 15z"/>
<path d="M9573 1255 c0 -11 11 -15 39 -15 27 0 38 4 38 15 0 11 -11 15 -38 15
-28 0 -39 -4 -39 -15z"/>
<path d="M6917 590 c-40 -31 -52 -81 -31 -125 33 -71 106 -85 160 -31 53 53
46 129 -16 161 -40 21 -82 19 -113 -5z m120 -22 c52 -49 14 -148 -57 -148 -37
0 -90 47 -90 80 0 26 25 77 42 83 32 13 83 6 105 -15z"/>
<path d="M11510 597 c-67 -33 -71 -139 -7 -177 48 -30 83 -26 123 14 85 85 -8
217 -116 163z m108 -30 c50 -46 12 -147 -56 -147 -36 0 -78 31 -86 65 -10 41
17 93 56 103 39 10 55 6 86 -21z"/>
</g>
</svg>
