<?xml version="1.0" standalone="no"?>
<!DOCTYPE svg PUBLIC "-//W3C//DTD SVG 20010904//EN"
 "http://www.w3.org/TR/2001/REC-SVG-20010904/DTD/svg10.dtd">
<svg version="1.0" xmlns="http://www.w3.org/2000/svg"
 width="1818.000000pt" height="730.000000pt" viewBox="0 0 1818.000000 730.000000"
 preserveAspectRatio="xMidYMid meet">
<metadata>
Created by potrace 1.16, written by Peter Selinger 2001-2019
</metadata>
<g transform="translate(0.000000,730.000000) scale(0.100000,-0.100000)"
fill="#000000" stroke="none">
<path d="M2117 6202 c-224 -224 -407 -411 -407 -416 0 -5 7 -17 15 -26 13 -14
5 -25 -80 -110 -94 -93 -94 -94 -115 -75 -21 19 -22 18 -245 -205 -124 -124
-225 -230 -225 -237 0 -7 8 -17 18 -22 15 -9 4 -23 -80 -108 -97 -96 -97 -97
-118 -78 -21 19 -21 18 -220 -180 l-199 -199 19 -21 19 -21 -234 -234 -235
-235 247 -247 c246 -246 247 -247 228 -268 -18 -19 -18 -22 -2 -38 16 -16 3
-31 -230 -265 l-248 -248 238 -232 238 -232 -20 -20 -21 -20 200 -200 199
-199 26 24 26 24 96 -97 97 -96 -24 -26 -24 -26 227 -226 226 -227 26 24 26
24 94 -94 95 -94 -20 -21 c-11 -12 -20 -25 -20 -31 0 -5 185 -194 412 -421
l412 -412 48 44 47 45 6486 0 6485 0 44 -40 c24 -22 47 -40 52 -40 4 0 192
185 416 412 393 396 408 412 391 430 -16 18 -13 23 80 115 96 97 96 97 117 78
21 -19 21 -18 247 208 226 225 227 226 208 247 -19 21 -18 21 75 115 85 85 96
93 110 80 9 -8 20 -15 25 -15 13 0 395 383 395 396 0 6 -7 17 -16 25 -13 11
14 42 210 238 124 125 226 233 226 241 0 8 -108 123 -240 255 -240 240 -241
241 -220 260 l20 18 -20 22 -21 22 240 234 c161 155 241 240 241 253 0 14 -78
99 -226 247 -196 196 -223 227 -210 238 9 8 16 19 16 25 0 13 -371 386 -385
386 -5 0 -22 -12 -37 -27 l-29 -27 -96 97 -97 96 27 29 c15 15 26 32 25 38 0
5 -102 108 -224 229 l-224 219 -30 -29 -31 -29 -96 97 -97 96 28 30 c15 16 26
33 24 38 -2 4 -189 192 -416 418 l-412 409 -43 -42 -43 -42 -6487 0 -6487 0
-44 40 c-24 22 -47 40 -52 40 -5 0 -192 -183 -417 -408z m548 258 c71 -71 124
-130 117 -130 -6 0 -12 -11 -12 -25 l0 -24 -132 -3 -133 -3 -3 -87 -3 -88
-166 0 -166 0 -88 -87 c-49 -48 -89 -91 -89 -97 0 -11 480 -496 490 -496 3 0
4 92 2 205 -2 137 1 205 8 205 7 0 10 -319 10 -1015 l0 -1015 -30 0 -30 0 0
90 0 90 -132 2 c-97 2 -111 3 -50 5 l82 4 0 74 0 75 35 0 35 0 0 442 0 443
-320 -320 -320 -320 70 -70 70 -70 0 -133 0 -132 -30 0 c-16 0 -30 5 -30 10 0
6 7 10 15 10 12 0 15 20 15 118 l0 117 -85 85 -85 85 351 351 350 350 0 150
-1 149 -242 242 c-134 134 -247 243 -253 243 -5 0 -42 -32 -82 -72 -72 -71
-72 -72 -93 -53 -21 19 -20 20 382 422 222 222 405 403 408 403 3 0 64 -58
135 -130z m13435 -275 l405 -405 -33 -32 -32 -33 -75 75 -75 75 -240 -240
-239 -240 -1 -200 c0 -110 -1 -390 0 -622 l0 -423 35 0 35 0 0 -74 c0 -50 4
-76 13 -79 6 -3 -14 -6 -45 -6 l-58 -1 0 -90 0 -90 -30 0 -30 0 0 170 c0 107
4 170 10 170 7 0 10 288 10 845 0 557 3 845 10 845 6 0 10 -81 10 -222 l0
-223 250 250 250 250 -107 107 -108 108 -152 0 -153 0 0 100 0 100 -150 0
c-127 0 -150 2 -150 15 0 8 -6 15 -12 15 -7 0 46 59 117 130 71 72 132 130
135 130 3 0 187 -182 410 -405z m-600 250 l-85 -85 -6300 0 -6300 0 -85 85
-85 85 6470 0 6470 0 -85 -85z m-3233 -102 c-1737 -2 -4577 -2 -6310 0 -1734
1 -313 2 3158 2 3471 0 4889 -1 3152 -2z m-9084 -30 c-62 -2 -164 -2 -225 0
-62 1 -12 3 112 3 124 0 174 -2 113 -3z m510 0 c-62 -2 -164 -2 -225 0 -62 1
-12 3 112 3 124 0 174 -2 113 -3z m300 0 c-23 -2 -64 -2 -90 0 -26 2 -7 3 42
3 50 0 71 -1 48 -3z m500 0 c-73 -2 -193 -2 -265 0 -73 1 -14 3 132 3 146 0
205 -2 133 -3z m590 0 c-73 -2 -193 -2 -265 0 -73 1 -14 3 132 3 146 0 205 -2
133 -3z m580 0 c-73 -2 -193 -2 -265 0 -73 1 -14 3 132 3 146 0 205 -2 133 -3z
m590 0 c-73 -2 -193 -2 -265 0 -73 1 -14 3 132 3 146 0 205 -2 133 -3z m330 0
c-23 -2 -64 -2 -90 0 -26 2 -7 3 42 3 50 0 71 -1 48 -3z m490 0 c-73 -2 -193
-2 -265 0 -73 1 -14 3 132 3 146 0 205 -2 133 -3z m590 0 c-73 -2 -193 -2
-265 0 -73 1 -14 3 132 3 146 0 205 -2 133 -3z m590 0 c-73 -2 -193 -2 -265 0
-73 1 -14 3 132 3 146 0 205 -2 133 -3z m580 0 c-73 -2 -193 -2 -265 0 -73 1
-14 3 132 3 146 0 205 -2 133 -3z m330 0 c-23 -2 -64 -2 -90 0 -26 2 -7 3 42
3 50 0 71 -1 48 -3z m489 0 c-73 -2 -190 -2 -260 0 -70 1 -10 3 133 3 143 0
200 -2 127 -3z m591 0 c-73 -2 -193 -2 -265 0 -73 1 -14 3 132 3 146 0 205 -2
133 -3z m590 0 c-73 -2 -193 -2 -265 0 -73 1 -14 3 132 3 146 0 205 -2 133 -3z
m579 0 c-73 -2 -190 -2 -260 0 -70 1 -10 3 133 3 143 0 200 -2 127 -3z m331 0
c-23 -2 -64 -2 -90 0 -26 2 -7 3 42 3 50 0 71 -1 48 -3z m489 0 c-73 -2 -190
-2 -260 0 -70 1 -10 3 133 3 143 0 200 -2 127 -3z m591 0 c-73 -2 -193 -2
-265 0 -73 1 -14 3 132 3 146 0 205 -2 133 -3z m590 0 c-73 -2 -193 -2 -265 0
-73 1 -14 3 132 3 146 0 205 -2 133 -3z m579 0 c-73 -2 -190 -2 -260 0 -70 1
-10 3 133 3 143 0 200 -2 127 -3z m331 0 c-23 -2 -64 -2 -90 0 -26 2 -7 3 42
3 50 0 71 -1 48 -3z m440 0 c-62 -2 -164 -2 -225 0 -62 1 -12 3 112 3 124 0
174 -2 113 -3z m530 0 c-68 -2 -178 -2 -245 0 -68 1 -13 3 122 3 135 0 190 -2
123 -3z m-11423 -83 l0 -70 -680 0 -680 0 0 55 0 55 135 0 c113 0 135 2 135
15 0 13 67 15 545 15 l545 0 0 -70z m107 63 c-20 -2 -52 -2 -70 0 -17 2 0 4
38 4 39 0 53 -2 32 -4z m1243 -63 l0 -70 -595 0 -595 0 0 70 0 70 595 0 595 0
0 -70z m30 -1105 l0 -1175 305 0 c197 0 305 -4 305 -10 0 -7 -153 -10 -440
-10 -287 0 -440 3 -440 10 0 6 48 10 125 10 l125 0 0 1175 c0 777 3 1175 10
1175 7 0 10 -398 10 -1175z m1200 1105 l0 -70 -595 0 -595 0 0 70 0 70 595 0
595 0 0 -70z m150 60 c0 -6 -28 -10 -65 -10 -37 0 -65 4 -65 10 0 6 28 10 65
10 37 0 65 -4 65 -10z m1200 -60 l0 -70 -595 0 -595 0 0 70 0 70 595 0 595 0
0 -70z m30 -1105 l0 -1175 305 0 c197 0 305 -4 305 -10 0 -7 -153 -10 -440
-10 -287 0 -440 3 -440 10 0 6 48 10 123 10 l124 0 6 147 c4 81 4 610 0 1175
-5 779 -3 1028 5 1028 9 0 12 -288 12 -1175z m1204 1159 c3 -9 6 -40 6 -70 l0
-54 -600 0 -600 0 0 70 0 70 594 0 c532 0 594 -2 600 -16z m146 6 c0 -6 -28
-10 -65 -10 -37 0 -65 4 -65 10 0 6 28 10 65 10 37 0 65 -4 65 -10z m1200 -60
l0 -70 -595 0 -595 0 0 70 0 70 595 0 595 0 0 -70z m155 -2280 c77 0 125 -4
125 -10 0 -7 -153 -10 -440 -10 -287 0 -440 3 -440 10 0 6 110 10 310 10 l310
0 2 1178 3 1177 2 -1177 3 -1178 125 0z m1085 2280 l0 -70 -595 0 -595 0 0 70
0 70 595 0 595 0 0 -70z m107 63 c-20 -2 -52 -2 -70 0 -17 2 0 4 38 4 39 0 53
-2 32 -4z m1233 -63 l0 -70 -595 0 -595 0 0 70 0 70 595 0 595 0 0 -70z m160
-2280 c80 0 130 -4 130 -10 0 -7 -153 -10 -440 -10 -287 0 -440 3 -440 10 0 6
108 10 305 10 l305 0 2 1178 3 1177 2 -1177 3 -1178 130 0z m1080 2280 l0 -70
-595 0 -595 0 0 70 0 70 595 0 595 0 0 -70z m107 63 c-20 -2 -52 -2 -70 0 -17
2 0 4 38 4 39 0 53 -2 32 -4z m1433 -63 l0 -70 -696 0 -695 0 3 70 2 70 693 0
693 0 0 -70z m-11720 -45 l0 -85 -70 0 -70 0 0 85 0 85 70 0 70 0 0 -85z
m2580 1 l0 -84 -70 0 -70 0 0 84 0 84 70 0 70 0 0 -84z m2580 -1 l0 -85 -65 0
-65 0 0 85 0 85 65 0 65 0 0 -85z m2580 0 l0 -85 -65 0 -65 0 0 85 0 85 65 0
65 0 0 -85z m2580 0 l0 -85 -65 0 -65 0 0 85 0 85 65 0 65 0 0 -85z m-11390
-1130 l0 -1095 -220 0 -220 0 2 943 3 942 40 6 c49 6 108 36 100 50 -4 5 -10
7 -15 4 -5 -3 -12 0 -16 6 -4 8 -3 9 4 5 19 -12 14 3 -19 50 -16 24 -34 42
-39 39 -5 -3 -12 0 -16 6 -4 8 -3 9 4 5 19 -12 14 3 -18 49 -16 24 -30 53 -30
64 0 21 4 21 220 21 l220 0 0 -1095z m920 1065 c0 -27 3 -30 30 -30 30 0 30
-1 30 -55 l0 -55 -145 0 -145 0 0 -120 c0 -98 -3 -120 -14 -120 -8 0 -17 -4
-20 -9 -4 -5 3 -7 14 -4 27 7 25 -10 -2 -22 -13 -6 -23 -17 -23 -25 0 -8 10
-19 23 -25 19 -9 22 -17 22 -72 0 -34 -4 -65 -10 -68 -5 -3 -10 -17 -10 -30 0
-13 5 -27 10 -30 6 -3 10 -50 10 -106 l0 -99 145 0 145 0 0 -545 0 -545 -30 0
-30 0 0 -100 0 -100 -115 0 -115 0 0 160 0 160 -45 0 c-141 0 -285 -129 -302
-270 l-6 -50 -163 0 -164 0 0 430 0 430 23 1 c12 1 26 1 30 0 5 -1 7 18 5 41
-3 39 -6 43 -30 46 l-28 3 0 620 0 619 455 0 455 0 0 -30z m1350 10 c0 -19 -7
-20 -140 -20 l-140 0 0 -690 0 -690 140 0 140 0 0 -40 0 -40 -625 0 -625 0 0
35 0 35 140 0 140 0 0 690 0 690 -110 0 -110 0 0 25 0 25 595 0 c588 0 595 0
595 -20z m370 -273 c0 -211 -3 -296 -12 -305 -9 -9 -9 -18 0 -37 7 -14 12 -39
12 -55 l0 -30 289 0 289 0 6 48 c3 26 5 52 4 57 0 6 -2 146 -5 313 l-4 302
141 0 140 0 0 -30 c0 -27 3 -30 30 -30 l30 0 0 -605 0 -605 -85 0 -85 0 2
-362 3 -363 53 -3 52 -3 0 -95 0 -94 -115 0 -115 0 0 160 0 160 -45 0 c-140 0
-287 -133 -303 -276 -4 -35 -9 -44 -23 -44 -18 0 -19 15 -19 360 l0 360 -145
0 -145 0 0 -30 c0 -16 -5 -41 -12 -55 -9 -19 -9 -28 0 -37 9 -9 12 -94 12
-305 l0 -293 -140 0 -140 0 0 1095 0 1095 165 0 165 0 0 -293z m280 23 l0
-270 -135 0 -135 0 0 270 0 270 135 0 135 0 0 -270z m290 0 l0 -270 -135 0
-135 0 0 -75 0 -75 135 0 c83 0 135 -4 135 -10 0 -6 -53 -10 -140 -10 l-140 0
0 355 0 355 140 0 140 0 0 -270z m740 -23 c0 -211 -3 -296 -12 -305 -9 -9 -9
-18 0 -37 7 -14 12 -39 12 -55 l0 -30 290 0 290 0 0 30 c0 16 5 41 12 55 9 19
9 28 0 37 -9 9 -12 94 -12 305 l0 293 160 0 160 0 0 -630 0 -629 -72 -3 -73
-3 0 -365 0 -365 73 -3 72 -3 0 -94 0 -95 -115 0 -115 0 0 160 0 160 -45 0
c-61 0 -141 -32 -195 -79 -53 -45 -100 -132 -108 -196 l-5 -45 -303 0 -304 0
0 100 0 100 -30 0 -30 0 0 965 0 965 30 0 c27 0 30 3 30 30 l0 30 145 0 145 0
0 -293z m290 -62 l0 -355 -140 0 c-87 0 -140 4 -140 10 0 6 52 10 135 10 l135
0 0 75 0 75 -135 0 -135 0 0 270 0 270 140 0 140 0 0 -355z m280 85 l0 -270
-135 0 -135 0 0 270 0 270 135 0 135 0 0 -270z m696 -32 c-2 -167 -4 -310 -5
-318 -1 -8 2 -34 5 -57 l6 -43 289 0 289 0 0 30 c0 16 5 41 12 55 9 19 9 28 0
37 -9 9 -12 94 -12 305 l0 293 145 0 145 0 0 -30 c0 -25 4 -30 25 -30 l25 0 0
-600 0 -599 -82 -3 -83 -3 0 -365 0 -365 58 -3 57 -3 0 -94 0 -95 -120 0 -120
0 0 161 0 161 -57 -4 c-141 -10 -267 -130 -289 -275 -4 -27 -11 -43 -20 -43
-12 0 -14 60 -14 360 l0 360 -149 0 -149 0 -6 -47 c-3 -27 -5 -52 -4 -58 0 -5
2 -146 5 -312 l4 -303 -141 0 -140 0 0 1095 0 1095 165 0 166 0 -5 -302z m294
-53 l0 -355 -140 0 c-87 0 -140 4 -140 10 0 6 52 10 135 10 l135 0 0 75 0 75
-135 0 -135 0 0 270 0 270 140 0 140 0 0 -355z m280 85 l0 -270 -135 0 -135 0
0 270 0 270 135 0 135 0 0 -270z m730 -47 c-1 -175 -1 -337 -1 -360 l1 -43
295 0 295 0 1 43 c0 23 0 185 -1 360 l-1 317 160 0 161 0 0 -1095 0 -1095
-136 0 -135 0 1 318 c1 174 1 336 1 360 l-1 42 -150 0 -150 0 0 -360 c0 -353
0 -360 -20 -360 -16 0 -20 7 -20 33 0 138 -141 281 -290 294 l-60 6 0 -167 0
-166 -115 0 -115 0 0 95 0 95 55 0 55 0 0 370 0 370 -80 0 -80 0 -3 -187 c-1
-104 -3 166 -5 600 l-2 787 30 0 c27 0 30 3 30 30 l0 30 141 0 140 0 -1 -317z
m290 -38 l0 -355 -140 0 c-87 0 -140 4 -140 10 0 6 52 10 135 10 l135 0 0 75
0 75 -135 0 -135 0 0 270 0 270 140 0 140 0 0 -355z m290 85 l0 -270 -135 0
-135 0 0 -75 0 -75 135 0 c83 0 135 -4 135 -10 0 -6 -53 -10 -140 -10 l-140 0
0 355 0 355 140 0 140 0 0 -270z m710 -47 c-1 -175 -1 -337 -1 -360 l1 -43
295 0 295 0 1 43 c0 23 0 185 -1 360 l-1 317 135 0 136 0 0 -30 c0 -25 4 -30
25 -30 l25 0 0 -965 0 -965 -25 0 -25 0 0 -100 0 -100 -304 0 -303 0 -13 62
c-6 35 -23 82 -37 105 -52 90 -171 163 -263 163 l-40 0 0 -165 0 -165 -115 0
-115 0 0 95 0 95 70 0 70 0 0 360 c0 198 1 363 3 368 1 4 -31 8 -70 10 l-73 3
0 629 0 630 166 0 165 0 -1 -317z m290 -38 l0 -355 -140 0 c-87 0 -140 4 -140
10 0 6 52 10 135 10 l135 0 0 75 0 75 -135 0 -135 0 0 270 0 270 140 0 140 0
0 -355z m290 85 l0 -270 -135 0 -135 0 0 -75 0 -75 135 0 c83 0 135 -4 135
-10 0 -6 -53 -10 -140 -10 l-140 0 0 355 0 355 140 0 140 0 0 -270z m710 -42
c-1 -172 -1 -334 -1 -360 l1 -48 294 0 294 0 6 48 c3 26 5 52 4 57 0 6 -2 146
-5 313 l-4 302 161 0 160 0 0 -1095 0 -1095 -151 0 -150 0 1 318 c1 174 1 336
1 360 l-1 42 -150 0 -150 0 -1 -342 c0 -316 -1 -339 -15 -290 -36 134 -170
242 -301 242 l-43 0 0 -165 0 -165 -115 0 -115 0 0 95 0 94 58 3 57 3 3 363 2
362 -85 0 -85 0 0 605 0 605 25 0 c21 0 25 5 25 30 l0 30 140 0 141 0 -1 -312z
m290 42 l0 -270 -140 0 -140 0 0 270 0 270 140 0 140 0 0 -270z m290 0 l0
-270 -135 0 -135 0 0 -75 0 -75 135 0 c83 0 135 -4 135 -10 0 -6 -53 -10 -140
-10 l-140 0 0 355 0 355 140 0 140 0 0 -270z m1570 240 c0 -27 3 -30 30 -30
l30 0 0 -965 0 -965 -30 0 -30 0 0 -100 0 -100 -304 0 -303 0 -7 48 c-19 145
-144 266 -287 279 l-59 6 0 -167 0 -166 -115 0 -115 0 0 1095 0 1095 595 0
595 0 0 -30z m1540 5 c0 -14 -16 -47 -35 -74 -36 -50 -44 -67 -23 -55 7 4 8 3
4 -5 -4 -6 -11 -9 -16 -6 -5 3 -23 -16 -41 -41 l-32 -47 22 -18 c12 -10 39
-21 59 -24 20 -4 43 -8 50 -10 9 -4 12 -180 12 -840 0 -736 -2 -835 -15 -835
-12 0 -15 -18 -15 -105 l0 -105 -383 0 -383 0 -13 63 c-7 34 -23 81 -37 104
-51 88 -172 163 -264 163 l-40 0 0 -165 0 -165 -120 0 -120 0 0 100 0 100 -25
0 -25 0 0 965 0 965 25 0 c21 0 25 5 25 30 l0 30 695 0 695 0 0 -25z m-10520
-245 l0 -220 -135 0 -135 0 0 220 0 220 135 0 135 0 0 -220z m-2726 194 c3 -9
6 -63 6 -120 0 -86 -3 -104 -15 -104 -13 0 -15 -29 -15 -197 l0 -198 -235 235
-235 235 82 82 83 83 161 0 c138 0 163 -2 168 -16z m1466 -949 c0 -637 -3
-965 -10 -965 -7 0 -10 328 -10 965 0 637 3 965 10 965 7 0 10 -328 10 -965z
m280 745 l0 -220 -135 0 -135 0 0 220 0 220 135 0 135 0 0 -220z m2300 -745
c0 -637 -3 -965 -10 -965 -7 0 -10 328 -10 965 0 637 3 965 10 965 7 0 10
-328 10 -965z m2577 -482 c-1 -268 -2 -51 -2 482 0 534 1 753 2 488 2 -265 2
-701 0 -970z m2580 0 c-1 -268 -2 -51 -2 482 0 534 1 753 2 488 2 -265 2 -701
0 -970z m2593 482 c0 -637 -3 -965 -10 -965 -7 0 -10 328 -10 965 0 637 3 965
10 965 7 0 10 -328 10 -965z m1863 867 l97 -97 -235 -235 -235 -235 0 151 c0
83 -3 233 -7 332 l-6 182 144 0 144 0 98 -98z m-396 -89 c-2 -32 -3 -8 -3 52
0 61 1 87 3 58 2 -29 2 -78 0 -110z m-13207 92 c17 -25 35 -43 40 -40 5 3 12
0 16 -6 4 -8 3 -9 -4 -5 -16 10 -14 -5 3 -28 8 -11 15 -23 15 -27 0 -10 -58
-29 -86 -29 -23 0 -24 2 -24 90 0 50 2 90 5 90 2 0 18 -20 35 -45z m13190 -47
c0 -98 0 -98 -71 -77 -21 7 -40 18 -43 26 -3 8 -2 11 4 8 5 -3 27 21 49 54 42
62 49 77 29 65 -6 -4 -8 -3 -5 3 3 5 13 10 22 10 12 0 15 -16 15 -89z m-11821
-333 l1 -355 -135 0 -135 0 0 90 c0 72 3 90 14 90 8 0 17 4 20 9 4 5 -3 7 -14
4 -17 -5 -20 0 -20 32 0 32 3 37 20 32 11 -3 18 -1 14 4 -3 5 -12 9 -20 9 -11
0 -14 15 -14 66 0 41 4 63 10 59 6 -4 10 10 10 34 0 22 -4 43 -10 46 -6 4 -10
55 -10 121 l0 114 134 0 135 0 0 -355z m-1849 110 c0 -6 -20 -58 -44 -115
l-44 -105 -56 -3 -56 -3 0 172 c0 164 1 174 22 196 l22 24 78 -78 c43 -43 78
-82 78 -88z m14467 -117 l242 -242 -21 -23 -21 -23 -68 65 c-37 36 -72 65 -78
65 -20 0 -81 -62 -81 -83 0 -13 25 -47 62 -84 61 -61 61 -63 43 -83 -18 -20
-18 -21 5 -45 l24 -26 -182 -182 -182 -182 0 -373 c0 -324 -2 -372 -15 -372
-8 0 -15 -7 -15 -15 0 -13 -24 -15 -155 -15 -97 0 -155 4 -155 10 0 6 -11 10
-25 10 -25 0 -25 1 -25 80 l0 80 -35 0 -35 0 0 355 0 355 83 0 c51 0 88 5 95
12 18 18 16 183 -3 202 -8 8 -12 21 -9 29 9 24 -12 28 -31 7 -14 -16 -31 -20
-77 -20 l-58 0 0 137 0 138 232 232 c128 128 235 233 238 233 3 0 114 -109
247 -242z m-14677 52 c0 -130 -3 -170 -13 -170 -7 0 -28 -8 -47 -19 l-35 -18
-38 105 -38 106 83 83 c45 46 84 83 85 83 2 0 3 -76 3 -170z m294 -151 l-71
-70 -45 28 -45 28 46 112 46 112 70 -69 70 -70 -71 -71z m14381 131 c44 -44
77 -80 75 -80 -3 0 -41 36 -85 80 -44 44 -77 80 -75 80 3 0 41 -36 85 -80z
m-12895 40 c0 -11 -6 -20 -14 -20 -18 0 -29 16 -21 30 11 18 35 11 35 -10z
m17 -2 c-3 -8 -6 -5 -6 6 -1 11 2 17 5 13 3 -3 4 -12 1 -19z m-1937 -141 l32
-99 -33 -34 c-18 -19 -36 -34 -41 -34 -10 0 -108 146 -108 162 0 17 103 120
111 110 4 -4 21 -51 39 -105z m3500 -117 l0 -220 -135 0 -135 0 0 220 0 220
135 0 135 0 0 -220z m-980 -10 l0 -220 -135 0 -135 0 0 220 0 220 135 0 135 0
0 -220z m1620 125 l0 -65 -130 0 -130 0 0 65 0 65 130 0 130 0 0 -65z m300 0
l0 -65 -130 0 -130 0 0 65 0 65 130 0 130 0 0 -65z m1010 0 l0 -65 -130 0
-130 0 0 65 0 65 130 0 130 0 0 -65z m300 0 l0 -65 -130 0 -130 0 0 65 0 65
130 0 130 0 0 -65z m970 0 l0 -65 -130 0 -130 0 0 65 0 65 130 0 130 0 0 -65z
m300 0 l0 -65 -130 0 -130 0 0 65 0 65 130 0 130 0 0 -65z m1000 0 l0 -65
-130 0 -130 0 0 65 0 65 130 0 130 0 0 -65z m310 0 l0 -65 -130 0 -130 0 0 65
0 65 130 0 130 0 0 -65z m980 0 l0 -65 -130 0 -130 0 0 65 0 65 130 0 130 0 0
-65z m310 0 l0 -65 -130 0 -130 0 0 65 0 65 130 0 130 0 0 -65z m990 0 l0 -65
-135 0 -135 0 0 65 0 65 135 0 135 0 0 -65z m300 0 l0 -65 -130 0 -130 0 0 65
0 65 130 0 130 0 0 -65z m-11097 27 c15 -17 4 -31 -201 -235 l-218 -218 -19
21 c-19 21 -18 22 195 235 118 118 218 215 221 215 3 0 13 -8 22 -18z m834
-128 c-1 -1 -51 -22 -112 -47 l-110 -45 -17 33 c-10 19 -23 37 -29 41 -7 4 17
35 62 80 l73 74 68 -67 c37 -37 66 -68 65 -69z m14573 -79 l215 -215 -33 -32
-32 -32 -50 49 c-45 44 -48 51 -35 65 22 25 18 36 -5 15 -20 -18 -22 -18 -75
35 l-55 55 -182 -182 -182 -182 34 -36 c19 -19 29 -35 24 -35 -6 0 -21 11 -34
25 -13 14 -28 25 -34 25 -7 0 -48 -37 -93 -82 l-82 -83 -1 -165 c-1 -91 -1
-258 0 -372 l0 -207 73 -4 72 -3 -87 -2 -88 -2 0 382 0 383 187 187 187 187
-24 26 -24 26 37 36 c35 36 37 36 57 18 23 -21 27 -10 5 15 -13 14 -10 21 35
65 l50 49 -72 73 -72 73 29 30 c16 16 31 30 34 30 4 0 103 -97 221 -215z
m-15332 85 c28 -44 52 -84 52 -88 0 -5 -14 -21 -30 -37 l-31 -29 -72 72 -71
72 44 45 c24 25 47 45 50 45 3 0 29 -36 58 -80z m2029 33 c-3 -10 -5 -4 -5 12
0 17 2 24 5 18 2 -7 2 -21 0 -30z m-1673 8 c6 -9 -69 -199 -85 -215 -5 -6 -9
38 -9 107 l0 117 44 0 c25 0 47 -4 50 -9z m-106 -123 c-2 -68 -7 -123 -12
-123 -8 0 -35 72 -71 185 -5 15 3 24 32 39 21 11 42 20 46 21 4 0 6 -55 5
-122z m184 91 l30 -22 -68 -68 c-38 -38 -75 -69 -82 -69 -8 0 -12 4 -10 8 2 4
18 45 37 90 20 51 39 82 48 82 8 0 28 -10 45 -21z m3828 1 c0 -6 -52 -10 -135
-10 -83 0 -135 4 -135 10 0 6 52 10 135 10 83 0 135 -4 135 -10z m1600 0 c0
-6 -52 -10 -135 -10 -83 0 -135 4 -135 10 0 6 52 10 135 10 83 0 135 -4 135
-10z m1270 0 c0 -6 -52 -10 -135 -10 -83 0 -135 4 -135 10 0 6 52 10 135 10
83 0 135 -4 135 -10z m3600 0 c0 -6 -53 -10 -140 -10 -87 0 -140 4 -140 10 0
6 53 10 140 10 87 0 140 -4 140 -10z m4285 -40 c10 -11 16 -20 13 -20 -3 0
-13 9 -23 20 -10 11 -16 20 -13 20 3 0 13 -9 23 -20z m-15067 -167 l-32 -33
-73 72 -73 72 32 33 32 33 73 -72 73 -72 -32 -33z m241 67 c30 -91 30 -95 13
-112 -18 -18 -20 -16 -68 59 -27 42 -51 81 -53 86 -5 12 61 79 70 70 3 -5 21
-51 38 -103z m599 7 l3 -97 -126 0 -125 0 0 54 0 54 108 46 c59 25 114 44 122
43 12 -2 16 -22 18 -100z m-288 61 c11 -18 20 -35 20 -39 0 -8 -182 -80 -188
-74 -7 6 128 145 140 145 5 0 17 -15 28 -32z m14512 5 c34 -33 36 -47 4 -39
-20 5 -23 3 -18 -19 3 -17 11 -25 25 -25 17 0 18 -3 9 -12 -10 -10 -22 -2 -59
34 -46 46 -47 47 -28 68 24 26 33 25 67 -7z m-15177 -113 l70 -70 -33 -32 -32
-33 -72 72 -72 72 29 31 c16 16 31 30 35 30 3 0 37 -32 75 -70z m335 -99 c0
-4 -7 -14 -16 -21 -13 -12 -25 -3 -84 55 l-70 69 32 33 32 33 53 -80 c29 -44
53 -84 53 -89z m14891 146 c-13 -13 -26 -3 -16 12 3 6 11 8 17 5 6 -4 6 -10
-1 -17z m39 -1 c0 -16 -24 -38 -32 -30 -8 7 15 53 24 48 5 -3 8 -11 8 -18z
m-14570 -46 l0 -50 -117 0 c-64 0 -114 2 -111 5 6 6 210 93 221 94 4 1 7 -21
7 -49z m14530 1 c0 -15 -28 -33 -40 -26 -7 5 -5 12 7 21 21 16 33 18 33 5z
m-14750 -9 c0 -14 -526 -533 -533 -525 -8 7 511 533 525 533 5 0 8 -3 8 -8z
m14980 -17 l24 -25 -62 -63 c-34 -34 -62 -71 -62 -82 0 -22 57 -85 78 -85 8 0
44 29 81 65 l67 64 69 -69 70 -70 -170 -170 c-93 -94 -174 -170 -180 -170 -5
0 37 47 95 105 118 119 118 109 11 161 -48 23 -64 26 -131 22 -64 -4 -87 -10
-135 -37 l-58 -33 -34 34 -33 34 166 172 c91 94 169 172 173 172 4 0 18 -11
31 -25z m-15533 -47 c35 -34 63 -67 63 -73 0 -6 -14 -24 -30 -40 l-31 -29 -71
72 -72 71 29 31 c16 16 33 30 39 30 6 0 39 -28 73 -62z m306 -6 l67 -68 -33
-32 -33 -32 -69 70 -69 70 29 30 c16 16 31 30 35 30 3 0 36 -31 73 -68z m457
6 c0 -13 -36 -78 -43 -78 -4 0 -167 56 -190 65 -38 15 8 25 121 25 83 0 112
-3 112 -12z m270 -31 c0 -37 -6 -48 -43 -85 l-43 -42 -105 35 -106 36 25 49
25 50 123 0 124 0 0 -43z m14550 18 c17 -20 5 -32 -15 -15 -14 11 -23 6 -68
-36 l-52 -49 55 58 c30 31 57 57 61 57 4 0 12 -7 19 -15z m-15618 -168 l-27
-28 -6 28 -7 28 -1 -30 c-1 -29 -2 -29 -71 40 l-70 69 32 33 32 33 73 -72 73
-72 -28 -29z m300 1 l-32 -33 -70 70 -70 69 32 33 32 33 71 -70 70 -70 -33
-32z m340 126 c56 -20 104 -37 105 -38 2 -1 -14 -19 -35 -39 l-38 -37 -72 46
c-62 40 -72 50 -72 75 0 16 2 29 4 29 2 0 51 -16 108 -36z m3248 -184 l0 -220
-135 0 -135 0 0 220 0 220 135 0 135 0 0 -220z m-980 -10 l0 -220 -135 0 -135
0 0 220 0 220 135 0 135 0 0 -220z m12695 200 c3 -6 -1 -13 -10 -16 -19 -8
-30 0 -20 15 8 14 22 14 30 1z m65 -24 c0 -6 -26 -36 -57 -66 l-58 -55 50 53
c43 45 48 55 38 71 -7 10 -9 22 -6 25 8 8 33 -13 33 -28z m-15170 -33 l0 -37
-22 21 c-18 18 -19 24 -8 37 20 25 30 19 30 -21z m15081 -6 c25 7 24 -5 -3
-34 -26 -28 -40 -29 -63 -3 -18 20 -18 21 11 51 l29 31 3 -25 c2 -19 8 -24 23
-20z m53 34 c3 -5 -1 -14 -9 -21 -13 -10 -15 -9 -15 9 0 21 14 28 24 12z
m-15105 -28 c1 15 12 11 64 -24 34 -23 64 -44 66 -46 3 -2 -9 -18 -27 -35
l-32 -32 -35 34 c-19 19 -35 40 -35 47 0 7 -3 12 -7 11 -11 -4 -13 6 -12 45 1
30 1 31 9 7 6 -17 8 -20 9 -7z m-569 -128 l144 -145 -37 -38 -37 -38 75 -74
c45 -45 75 -83 75 -95 0 -27 18 -45 45 -45 12 0 41 -21 68 -48 l46 -47 -57
-30 c-119 -62 -210 -185 -235 -314 -6 -34 -14 -61 -17 -61 -3 0 -151 146 -330
325 l-325 325 215 215 c118 118 217 215 220 215 3 0 70 -65 150 -145z m233 77
l67 -68 -35 -34 -35 -34 -70 69 -70 69 32 33 c18 18 35 33 38 33 3 0 36 -31
73 -68z m660 29 c129 -44 126 -38 59 -104 l-57 -57 -84 56 -83 56 38 39 c21
21 39 39 39 39 1 0 40 -13 88 -29z m13702 20 c-25 -5 -31 -12 -36 -41 -4 -19
-7 -30 -8 -25 -1 6 -6 3 -11 -5 -7 -11 -10 -4 -10 26 0 22 3 44 7 47 3 4 25 6
47 6 38 -1 39 -2 11 -8z m-14053 -110 l1 -56 7 50 7 50 3 -40 c3 -34 4 -36 7
-11 l5 28 29 -28 29 -28 -27 -28 c-25 -26 -28 -27 -35 -11 -6 16 -7 16 -7 -2
-1 -15 -17 -4 -71 50 l-70 69 32 33 32 33 28 -27 c24 -22 28 -36 30 -82z
m14053 79 c-20 -22 -31 -20 -22 5 4 8 14 15 23 15 16 0 16 -2 -1 -20z m93 -68
l3 -83 -58 3 c-54 3 -58 5 -58 28 0 16 8 28 23 35 26 11 30 35 5 35 -13 0 -8
9 17 35 53 54 64 45 68 -53z m19 -44 c-2 -24 -4 -5 -4 42 0 47 2 66 4 43 2
-24 2 -62 0 -85z m1188 42 c44 -44 77 -80 75 -80 -3 0 -41 36 -85 80 -44 44
-77 80 -75 80 3 0 41 -36 85 -80z m-15742 -28 l67 -68 -33 -32 -33 -32 -69 70
-69 70 34 1 c32 2 33 2 6 6 l-28 5 23 24 c12 13 25 24 29 24 3 0 36 -31 73
-68z m324 -14 c35 -34 63 -70 63 -78 0 -9 -11 -27 -25 -40 l-26 -24 -71 72
-72 71 29 31 c16 16 31 30 34 30 3 0 34 -28 68 -62z m321 10 c42 -28 79 -53
82 -55 2 -2 -17 -25 -43 -51 l-47 -47 -70 70 -70 69 32 33 c18 18 33 33 35 33
2 0 39 -23 81 -52z m312 -378 l0 -420 -35 0 -35 0 0 -73 0 -74 -122 -6 c-66
-4 -159 -7 -205 -7 l-83 0 0 133 0 133 -65 64 -65 65 302 302 c167 167 304
303 305 303 2 0 3 -189 3 -420z m13441 380 c1 8 4 -1 8 -20 l6 -35 65 -6 65
-6 -82 -1 -83 -2 1 48 c0 35 3 42 9 27 6 -14 9 -16 11 -5z m1164 -180 c-99
-99 -184 -180 -190 -180 -5 0 73 83 175 185 101 101 186 182 189 179 3 -2 -76
-86 -174 -184z m270 -40 c-36 -36 -65 -72 -65 -80 0 -19 60 -80 79 -80 9 0 45
29 81 65 63 63 67 65 83 47 16 -17 8 -27 -156 -190 l-173 -173 -24 26 c-20 21
-22 29 -12 43 37 53 55 102 60 162 5 79 -8 131 -49 194 l-32 48 -101 -101
c-56 -56 -106 -101 -111 -101 -5 0 69 79 165 175 l175 175 72 -72 73 -72 -65
-66z m-15515 55 c0 -6 -14 -24 -30 -40 l-31 -29 -71 72 -72 72 34 35 34 35 68
-67 c37 -37 68 -72 68 -78z m-878 118 c18 -16 15 -21 -89 -125 l-108 -108 338
-338 c185 -185 337 -340 337 -345 0 -21 -31 0 -92 60 l-68 68 -90 -90 c-86
-85 -90 -88 -105 -70 -8 11 -15 22 -15 25 0 3 32 37 70 75 39 38 70 74 70 80
0 5 -109 119 -242 252 l-243 243 -62 -62 c-62 -61 -62 -62 -83 -43 -21 19 -21
19 167 207 103 103 190 188 192 188 2 0 13 -8 23 -17z m1121 -51 l67 -68 -33
-32 -33 -32 -69 70 -69 70 29 30 c16 16 31 30 35 30 3 0 36 -31 73 -68z
m14884 43 c28 -8 61 -23 72 -33 22 -17 21 -17 -74 -112 l-95 -95 -90 90 -90
90 22 17 c36 28 119 57 164 57 22 1 63 -6 91 -14z m673 -170 c183 -183 184
-184 165 -205 l-19 -21 -61 61 c-33 33 -65 60 -70 60 -6 0 -118 -108 -250
-240 l-240 -240 80 -80 c78 -79 79 -79 60 -100 -19 -21 -19 -21 -125 85 l-105
105 -85 -85 c-46 -47 -89 -85 -95 -85 -5 0 60 70 145 155 l154 154 -24 26
c-13 14 -19 25 -13 25 5 0 18 -9 28 -20 19 -21 20 -20 202 162 l183 183 -42
42 c-33 34 -39 46 -30 55 19 19 14 33 -6 15 -17 -16 -21 -14 -62 28 l-44 45
29 30 c16 16 31 30 34 30 4 0 89 -83 191 -185z m-14550 155 c0 -5 -11 -10 -25
-10 -14 0 -25 5 -25 10 0 6 11 10 25 10 14 0 25 -4 25 -10z m13530 -35 c21
-21 40 -33 49 -30 20 8 201 -172 194 -192 -8 -19 47 -74 67 -68 20 7 206 -178
195 -195 -4 -7 5 -24 21 -41 l28 -30 -139 -139 c-77 -77 -145 -140 -152 -140
-10 0 -13 34 -13 141 l0 142 -47 -7 c-107 -14 -219 -115 -243 -217 -7 -30 -18
-57 -24 -61 -6 -4 -41 -8 -78 -8 l-68 0 0 150 0 150 73 0 c43 0 78 5 85 12 16
16 16 170 0 186 -7 7 -42 12 -85 12 l-73 0 0 108 0 107 81 78 c44 42 84 77 88
77 4 0 22 -16 41 -35z m-13532 -2 c-2 -10 -13 -19 -26 -21 -17 -3 -22 2 -22
17 0 16 6 21 26 21 19 0 25 -5 22 -17z m3450 -58 c-17 -42 -32 -74 -34 -72 -2
2 -17 36 -33 75 l-30 72 64 0 64 0 -31 -75z m49 -182 c-1 -49 -3 -9 -3 87 0
96 2 136 3 88 2 -49 2 -127 0 -175z m1261 181 l-31 -75 -29 66 c-15 37 -28 71
-28 76 0 5 27 9 59 9 l60 0 -31 -76z m1286 39 c-8 -21 -23 -55 -31 -76 l-16
-38 -28 68 c-16 37 -29 71 -29 75 0 4 27 8 60 8 l60 0 -16 -37z m33 -220 c-1
-49 -3 -9 -3 87 0 96 2 136 3 88 2 -49 2 -127 0 -175z m172 205 c-12 -29 -25
-64 -31 -78 -9 -24 -11 -22 -33 33 -43 104 -45 97 24 97 l61 0 -21 -52z m1270
0 c-12 -29 -24 -61 -26 -70 -3 -10 -9 -18 -13 -18 -7 0 -60 120 -60 135 0 3
27 5 60 5 l60 0 -21 -52z m1331 47 c0 -13 -54 -135 -60 -135 -4 0 -16 24 -28
53 -11 28 -23 60 -27 70 -6 15 0 17 54 17 34 0 61 -2 61 -5z m-10202 -182
l-32 -33 -73 72 -73 72 32 33 32 33 73 -72 73 -72 -32 -33z m201 150 c5 14 18
6 71 -48 l65 -65 -33 -32 -32 -32 -35 34 c-26 25 -35 43 -36 69 l-1 36 -8 -30
c-4 -16 -8 -22 -9 -12 0 10 -5 16 -10 13 -4 -3 -16 3 -25 13 -15 16 -15 19 3
35 18 17 19 17 24 -1 3 -12 5 -8 7 12 2 23 4 25 8 10 4 -18 5 -18 11 -2z
m4531 -202 c-15 -36 -29 -73 -33 -81 -3 -8 -6 57 -6 145 l0 160 33 -79 34 -79
-28 -66z m5478 -3 l-3 -73 -29 72 -28 71 28 70 29 70 3 -69 c2 -38 2 -102 0
-141z m-4164 133 l25 -63 -25 -62 c-15 -33 -28 -63 -30 -65 -2 -2 -4 56 -4
129 0 73 2 131 4 129 2 -2 16 -33 30 -68z m1270 1 l25 -64 -25 -64 c-15 -35
-28 -64 -30 -64 -2 0 -4 59 -4 132 0 72 2 129 4 127 2 -2 16 -32 30 -67z m229
-62 c0 -14 -12 -50 -26 -80 l-25 -55 0 135 0 135 25 -55 c14 -30 26 -66 26
-80z m2562 65 l27 -65 -22 -58 c-13 -31 -27 -61 -32 -66 -4 -6 -8 49 -8 122 0
73 2 132 3 132 2 0 16 -29 32 -65z m-5277 -135 l-3 -59 -26 63 -26 62 26 65
26 64 3 -68 c2 -37 2 -94 0 -127z m1311 68 l-1 -123 -23 50 c-13 28 -24 59
-24 70 -1 18 39 125 46 125 2 0 3 -55 2 -122z m1270 0 l0 -123 -25 54 c-13 29
-24 59 -24 66 0 15 41 125 46 125 2 0 4 -55 3 -122z m209 -60 l-3 -63 -24 63
-24 63 24 60 24 60 3 -60 c2 -34 2 -89 0 -123z m1270 0 l-3 -63 -24 63 -24 63
24 60 24 60 3 -60 c2 -34 2 -89 0 -123z m-89 114 l22 -58 -25 -54 -25 -55 0
113 c-1 61 1 112 3 112 2 0 13 -26 25 -58z m6911 3 c0 -10 -5 -11 -24 -2 -18
9 -22 15 -14 25 12 14 38 -1 38 -23z m-15825 -45 c68 -68 68 -70 50 -90 -32
-36 -65 -26 -130 40 l-59 60 29 30 c16 16 31 30 35 30 3 0 37 -31 75 -70z
m262 48 c14 -13 23 -34 24 -52 0 -24 2 -27 8 -12 7 17 10 16 45 -14 l37 -33
-28 -29 -28 -30 -6 39 -6 38 -3 -45 -3 -45 -7 35 c-6 27 -8 30 -9 10 -1 -22
-6 -20 -61 35 l-60 59 32 33 c18 18 34 33 37 33 3 0 15 -10 28 -22z m15300
-47 c45 -88 39 -196 -15 -280 l-27 -41 -92 92 -93 93 92 92 c51 51 97 92 103
90 5 -2 20 -22 32 -46z m238 29 c3 -5 -1 -10 -9 -10 -9 0 -16 5 -16 10 0 6 4
10 9 10 6 0 13 -4 16 -10z m64 -14 c9 -10 8 -16 -4 -26 -9 -7 -15 -8 -15 -2 0
6 -3 17 -6 26 -8 20 9 21 25 2z m-73 -46 c18 0 24 5 24 22 0 17 3 19 12 10 10
-10 2 -22 -35 -60 l-47 -47 -27 28 -27 27 34 36 35 35 3 -25 c3 -20 9 -26 28
-26z m-15569 -42 c35 -34 63 -67 63 -73 0 -6 -13 -23 -28 -38 l-28 -27 -69 70
-69 70 29 30 c16 16 31 30 34 30 3 0 34 -28 68 -62z m4691 -35 l30 -73 -59 0
c-32 0 -59 3 -59 8 0 8 54 142 56 139 1 -1 15 -35 32 -74z m1311 -1 l30 -72
-61 0 c-53 0 -59 2 -54 18 29 76 51 130 53 128 1 -1 16 -35 32 -74z m1270 0
l30 -72 -61 0 c-53 0 -59 2 -54 18 29 76 51 130 53 128 1 -1 16 -35 32 -74z
m-3219 58 c0 -6 -52 -10 -135 -10 -83 0 -135 4 -135 10 0 6 52 10 135 10 83 0
135 -4 135 -10z m2590 -345 l0 -355 -140 0 -140 0 0 270 0 270 135 0 135 0 0
75 0 75 -135 0 c-83 0 -135 4 -135 10 0 6 53 10 140 10 l140 0 0 -355z m843
280 l25 -60 -55 -3 c-30 -2 -57 -1 -60 1 -2 3 8 34 23 71 15 36 31 63 35 59 4
-5 18 -35 32 -68z m847 65 c0 -6 -52 -10 -135 -10 l-135 0 0 -75 0 -75 135 0
135 0 0 -270 0 -270 -140 0 -140 0 0 355 0 355 140 0 c87 0 140 -4 140 -10z
m424 -65 l24 -60 -55 -3 c-30 -2 -57 -1 -59 1 -2 2 8 34 23 70 15 37 30 64 35
59 4 -4 19 -34 32 -67z m1307 8 l26 -68 -54 -3 c-31 -2 -57 -1 -59 1 -5 5 49
137 56 137 3 0 17 -30 31 -67z m819 57 c0 -6 -52 -10 -135 -10 l-135 0 0 -75
0 -75 135 0 135 0 0 -270 0 -270 -140 0 -140 0 0 355 0 355 140 0 c87 0 140
-4 140 -10z m-7430 -360 l0 -340 -115 0 -115 0 0 161 0 162 -63 -5 c-72 -6
-129 -32 -189 -86 -42 -38 -98 -140 -98 -179 0 -55 12 -53 -311 -53 l-299 0 0
100 0 100 -30 0 -30 0 0 240 0 240 625 0 625 0 0 -340z m590 275 l0 -65 -130
0 -130 0 0 65 0 65 130 0 130 0 0 -65z m2580 0 l0 -65 -130 0 -130 0 0 65 0
65 130 0 130 0 0 -65z m1710 0 l0 -65 -130 0 -130 0 0 65 0 65 130 0 130 0 0
-65z m2550 0 l0 -65 -130 0 -130 0 0 65 0 65 130 0 130 0 0 -65z m-10918 -117
l-32 -32 -60 59 c-33 33 -60 68 -60 79 0 11 10 30 22 43 l22 24 70 -71 71 -70
-33 -32z m-669 -370 l-56 -57 -86 79 c-132 121 -184 177 -172 184 6 4 16 4 21
1 14 -9 13 8 -2 23 -14 14 -32 16 -23 3 3 -5 0 -13 -6 -17 -6 -4 -49 32 -103
85 l-91 91 -205 -205 -205 -205 94 -94 c56 -57 89 -96 82 -100 -6 -4 -16 -4
-21 -1 -19 12 -10 -12 12 -31 19 -17 21 -17 15 -2 -17 47 25 21 122 -76 58
-58 111 -106 118 -106 19 0 26 -51 8 -69 -14 -14 -37 6 -253 222 l-237 237
285 285 285 285 237 -237 238 -238 -57 -57z m16853 -277 c-228 -228 -236 -234
-254 -217 -17 14 -18 21 -8 41 6 14 15 25 21 25 5 0 58 48 117 107 100 100
108 105 116 84 7 -21 9 -21 22 -6 12 15 12 18 -4 27 -16 9 -7 21 75 104 l94
94 -205 205 -205 205 -90 -90 c-84 -84 -125 -111 -111 -75 8 22 -8 18 -30 -6
-19 -21 -19 -21 0 -18 44 9 20 -26 -101 -140 l-128 -121 -60 60 -60 60 235
235 235 235 287 -287 288 -288 -234 -234z m-16366 744 c7 -8 8 -15 2 -15 -5 0
-15 7 -22 15 -7 8 -8 15 -2 15 5 0 15 -7 22 -15z m4908 -120 c-18 -41 -33 -74
-34 -72 -1 1 -15 35 -32 75 l-30 72 63 0 64 0 -31 -75z m49 -182 c-1 -49 -3
-9 -3 87 0 96 2 136 3 88 2 -49 2 -127 0 -175z m1261 181 l-31 -76 -23 56
c-42 103 -43 96 25 96 l60 0 -31 -76z m1270 0 l-31 -76 -23 56 c-42 103 -43
96 25 96 l60 0 -31 -76z m49 -181 c-1 -49 -3 -9 -3 87 0 96 2 136 3 88 2 -49
2 -127 0 -175z m50 -5 c-1 -51 -3 -12 -3 87 0 99 2 141 3 93 2 -48 2 -129 0
-180z m134 240 c-5 -13 -19 -45 -31 -73 l-22 -50 -23 52 c-44 97 -45 93 24 93
59 0 60 -1 52 -22z m1258 -30 c-12 -29 -24 -61 -26 -70 -9 -30 -19 -21 -41 35
-11 28 -23 60 -27 70 -6 15 0 17 54 17 l61 0 -21 -52z m1326 35 c-4 -10 -16
-42 -27 -70 -12 -29 -24 -53 -28 -53 -4 0 -16 24 -28 53 -11 28 -23 60 -27 70
-6 15 0 17 55 17 55 0 61 -2 55 -17z m4507 5 c-5 -7 -12 -22 -15 -33 -3 -13
-5 -9 -6 13 -1 23 3 32 15 32 12 0 14 -3 6 -12z m-10542 -268 l0 -270 -135 0
-135 0 0 270 0 270 135 0 135 0 0 -270z m12350 -180 c0 -3 -101 96 -225 220
-124 124 -225 227 -225 230 0 3 101 -96 225 -220 124 -124 225 -227 225 -230z
m-1700 365 l0 -75 -50 0 c-36 0 -50 4 -50 14 0 25 12 46 26 46 8 0 14 7 14 15
0 8 -4 15 -10 15 -5 0 -7 7 -4 15 4 8 -1 17 -10 21 -32 12 -15 24 34 24 l50 0
0 -75z m-10077 -138 c-14 -34 -27 -64 -29 -66 -2 -2 -4 56 -4 130 l1 134 28
-68 29 -68 -25 -62z m95 -1 l-3 -64 -26 62 -26 63 26 67 26 67 3 -66 c2 -36 2
-94 0 -129z m1215 127 l26 -63 -26 -62 c-14 -35 -27 -65 -29 -67 -2 -2 -4 56
-4 129 0 73 2 131 4 129 2 -2 15 -32 29 -66z m1289 -63 c0 -14 -11 -50 -25
-80 l-26 -55 0 135 1 135 25 -55 c14 -30 26 -66 25 -80z m211 0 c0 -14 -12
-50 -26 -80 l-25 -55 0 135 0 135 25 -55 c14 -30 26 -66 26 -80z m2586 0 c0
-8 -13 -42 -29 -75 l-28 -60 0 135 0 135 28 -60 c16 -33 29 -67 29 -75z m79
-72 l-3 -73 -29 73 -28 74 28 66 29 67 3 -67 c2 -37 2 -100 0 -140z m-11309
178 c10 -12 8 -13 -8 -9 -12 3 -18 9 -15 14 7 12 10 11 23 -5z m7240 -108 l-1
-123 -23 50 c-13 28 -24 60 -24 71 -1 20 37 124 45 124 2 0 4 -55 3 -122z
m1270 0 l0 -123 -20 44 c-32 72 -33 87 -8 146 12 30 24 55 26 55 2 0 3 -55 2
-122z m209 -60 l-3 -63 -24 63 -23 62 23 63 24 62 3 -62 c2 -35 2 -91 0 -125z
m1270 0 l-3 -63 -24 63 -23 62 23 63 24 62 3 -62 c2 -35 2 -91 0 -125z m7147
172 c3 -5 -1 -10 -10 -10 -9 0 -13 5 -10 10 3 6 8 10 10 10 2 0 7 -4 10 -10z
m-7223 -110 c0 -14 -9 -45 -20 -70 l-21 -45 0 115 0 115 21 -45 c11 -25 20
-56 20 -70z m-9765 -62 c143 -142 169 -177 143 -193 -8 -5 -7 -12 1 -21 10
-13 -6 -34 -96 -124 -70 -70 -113 -106 -119 -100 -6 6 -29 -8 -62 -40 -29 -28
-59 -50 -66 -50 -18 0 -318 301 -318 320 0 16 338 360 354 360 5 0 78 -68 163
-152z m17160 -20 c95 -95 173 -180 173 -188 0 -20 -301 -320 -321 -320 -8 0
-37 23 -64 50 -31 31 -55 48 -64 45 -23 -9 -223 194 -215 218 3 10 0 25 -7 33
-11 13 12 39 147 175 87 87 163 159 169 159 5 0 87 -78 182 -172z m-16143 -41
c36 -103 66 -189 66 -192 0 -3 -93 -5 -206 -5 l-207 0 7 41 c18 114 75 214
159 281 43 34 108 71 113 65 1 -1 31 -86 68 -190z m146 -89 c0 -106 0 -108
-23 -108 -20 0 -29 18 -87 183 -35 100 -66 189 -68 197 -3 8 36 -25 87 -75
l91 -90 0 -107z m14540 201 l55 -6 -62 -1 -63 -2 1 33 c1 29 2 30 8 7 6 -22
14 -26 61 -31z m-9952 -86 l31 -73 -59 0 c-33 0 -60 3 -60 7 0 10 53 144 55
141 2 -2 17 -36 33 -75z m1311 -1 l30 -72 -60 0 c-32 0 -59 3 -59 7 0 10 54
142 57 139 2 -1 16 -35 32 -74z m1270 0 l30 -72 -61 0 c-53 0 -59 2 -54 18 29
76 51 130 53 128 1 -1 16 -35 32 -74z m215 -7 l24 -60 -55 -3 c-30 -2 -57 -1
-60 1 -2 3 8 35 23 71 15 37 30 64 35 59 5 -5 20 -35 33 -68z m1267 8 l26 -68
-54 -3 c-31 -2 -57 -1 -60 1 -5 6 49 137 56 137 4 0 18 -30 32 -67z m1309 5
c14 -35 27 -66 28 -70 2 -5 -24 -8 -58 -8 -55 0 -61 2 -55 18 4 9 16 41 27 70
12 28 24 52 27 52 3 0 17 -28 31 -62z m-2393 -210 c-1 -46 -3 -9 -3 82 0 91 2
128 3 83 2 -46 2 -120 0 -165z m151 201 c98 -48 172 -159 172 -261 l0 -28
-155 0 -155 0 0 166 0 166 38 -6 c20 -4 65 -21 100 -37z m1228 5 c59 -28 128
-98 151 -152 8 -20 19 -61 23 -89 l7 -53 -159 0 -158 0 0 166 0 166 43 -7 c23
-4 65 -18 93 -31z m1349 -1 c98 -48 162 -137 172 -240 l6 -54 -154 3 -154 3
-3 163 -3 164 43 -7 c24 -4 66 -18 93 -32z m1092 -205 c-1 -46 -3 -9 -3 82 0
91 2 128 3 83 2 -46 2 -120 0 -165z m138 207 c96 -44 165 -139 180 -247 l7
-48 -156 0 -156 0 0 166 0 166 38 -7 c20 -3 60 -17 87 -30z m1352 -2 c95 -44
157 -134 178 -255 l6 -38 -161 0 -160 0 0 166 0 166 43 -7 c23 -4 65 -18 94
-32z m2013 -93 l0 -130 -131 0 -131 0 7 33 c11 50 50 119 87 154 37 35 111 72
146 73 22 0 22 -2 22 -130z m-13150 -45 l0 -165 -155 0 -155 0 0 35 c0 133
152 292 283 294 l27 1 0 -165z m17 -67 c-1 -46 -3 -11 -3 77 0 88 2 125 3 83
2 -42 2 -114 0 -160z m1333 67 l0 -165 -155 0 -155 0 0 43 c0 62 47 154 105
205 49 43 130 81 178 81 l27 1 0 -165z m17 -67 c-1 -46 -3 -11 -3 77 0 88 2
125 3 83 2 -42 2 -114 0 -160z m1213 67 l0 -165 -156 0 -157 0 6 51 c14 113
103 223 209 260 103 36 98 43 98 -146z m17 -67 c-1 -46 -3 -11 -3 77 0 88 2
125 3 83 2 -42 2 -114 0 -160z m1333 67 l0 -165 -156 0 -157 0 6 51 c15 123
101 227 220 265 92 28 87 36 87 -151z m17 -67 c-1 -46 -3 -11 -3 77 0 88 2
125 3 83 2 -42 2 -114 0 -160z m1213 67 l0 -165 -156 0 -156 0 7 48 c9 66 46
142 89 185 51 51 137 94 194 96 22 1 22 1 22 -164z m17 -67 c-1 -46 -3 -11 -3
77 0 88 2 125 3 83 2 -42 2 -114 0 -160z m-4767 2 l0 -110 -70 0 -70 0 0 110
0 110 70 0 70 0 0 -110z m2580 0 l0 -110 -70 0 -70 0 0 110 0 110 70 0 70 0 0
-110z m2580 0 l0 -110 -65 0 -65 0 0 110 0 110 65 0 65 0 0 -110z m2580 0 l0
-110 -65 0 -65 0 0 110 0 110 65 0 65 0 0 -110z m2580 0 l0 -110 -65 0 -65 0
0 110 0 110 65 0 65 0 0 -110z m2890 -85 l24 26 128 -128 128 -127 -25 -26
-25 -26 80 -79 80 -80 -80 -80 -81 -81 26 -24 26 -24 -128 -128 -127 -128 -26
25 -26 25 -79 -80 -79 -80 -61 60 c-57 57 -63 60 -109 60 -39 0 -49 -3 -53
-20 -5 -19 -14 -20 -229 -20 -192 0 -224 2 -224 15 0 11 -12 15 -46 15 -45 0
-50 3 -140 91 l-92 91 -31 -42 c-17 -23 -33 -59 -37 -79 -10 -64 -5 -61 -119
-61 l-105 0 0 89 0 90 -37 4 c-21 2 59 4 177 5 l215 0 -3 39 c-15 184 -169
361 -339 389 l-39 6 38 38 c23 22 38 47 38 61 0 23 -3 24 -62 23 -35 -1 -46 0
-25 3 l37 4 0 85 0 84 49 0 c27 0 56 2 64 6 11 4 15 -8 20 -49 14 -140 132
-257 277 -274 l50 -6 0 160 c0 188 -13 173 143 173 58 0 97 4 97 10 0 6 52 10
135 10 83 0 135 -4 135 -10 0 -5 15 -10 33 -10 27 0 45 12 112 80 l80 80 105
-105 106 -106 24 26z m-16335 129 c-17 -26 -21 -21 -23 30 -1 18 0 18 16 2 12
-12 14 -21 7 -32z m16464 -13 c1 -11 -4 -10 -19 4 -16 14 -18 21 -8 32 10 13
13 12 19 -4 4 -10 8 -24 8 -32z m-16094 -30 c66 -64 115 -86 115 -51 0 19 6
20 215 20 207 0 215 -1 215 -20 0 -17 5 -18 50 -13 l50 6 0 -132 0 -132 38 7
c20 3 56 14 79 24 l42 19 7 -37 c19 -116 83 -228 165 -288 59 -43 152 -83 192
-84 l29 0 -33 -27 c-26 -22 -59 -76 -59 -98 0 -3 14 -5 30 -5 l30 0 0 -85 0
-85 -64 0 -63 0 -7 51 c-20 149 -150 269 -291 269 l-45 0 0 -160 0 -160 -100
0 c-82 0 -100 -3 -100 -15 0 -13 -22 -15 -135 -15 -113 0 -135 2 -135 15 0 11
-12 15 -47 15 -46 0 -50 -2 -130 -82 l-83 -83 -98 98 c-53 53 -101 97 -107 97
-5 0 -19 -10 -32 -22 l-24 -22 -124 124 c-69 69 -125 130 -125 137 0 7 9 18
20 25 11 7 20 17 20 23 0 6 -34 44 -75 85 l-75 75 77 77 77 77 -24 26 -24 26
129 129 129 130 23 -28 22 -27 88 88 c48 48 90 87 93 87 2 0 32 -26 65 -59z
m-334 5 c-16 -16 -23 -18 -33 -8 -18 18 19 57 39 40 12 -10 11 -15 -6 -32z
m16401 -8 c-18 -18 -57 19 -40 39 10 12 15 11 32 -6 16 -16 18 -23 8 -33z
m731 21 c-9 -9 -12 -7 -10 9 1 14 5 18 11 12 7 -7 6 -14 -1 -21z m-17533 -489
c0 -3 -108 103 -240 235 -132 132 -240 242 -240 245 0 3 108 -103 240 -235
132 -132 240 -242 240 -245z m445 430 c-17 -18 -20 -19 -34 -6 -13 14 -13 18
4 36 17 18 20 19 34 6 13 -14 13 -18 -4 -36z m-85 17 c0 -7 -47 -59 -105 -117
-83 -83 -107 -102 -117 -92 -10 10 10 35 97 122 101 101 125 118 125 87z
m16394 4 c14 -15 14 -20 3 -30 -11 -8 -18 -7 -31 8 -10 11 -15 25 -11 30 9 16
20 14 39 -8z m278 -213 c-18 -18 -236 200 -220 220 9 11 33 -8 122 -97 88 -88
108 -113 98 -123z m-15722 192 c0 -5 -4 -10 -10 -10 -5 0 -10 5 -10 10 0 6 5
10 10 10 6 0 10 -4 10 -10z m-904 -21 c4 -6 -40 -57 -102 -120 -82 -82 -111
-106 -121 -98 -10 9 10 36 89 120 98 106 119 121 134 98z m16483 -93 c81 -81
101 -107 94 -120 -7 -13 -28 4 -117 93 -94 95 -119 131 -88 131 4 0 54 -47
111 -104z m-14989 -1 l0 -95 -165 0 -165 0 30 47 c16 25 32 63 36 82 3 20 7
42 9 49 3 9 38 12 130 12 l125 0 0 -95z m13800 -65 l0 -159 -32 6 c-134 24
-236 132 -254 267 l-7 46 147 0 146 0 0 -160z m-14303 -22 c-2 -35 -3 -9 -3
57 0 66 1 94 3 63 2 -32 2 -86 0 -120z m229 135 c-16 -87 -98 -171 -183 -188
l-33 -7 0 116 0 116 111 0 111 0 -6 -37z m1124 7 c0 -6 -135 -10 -385 -10
-250 0 -385 4 -385 10 0 6 135 10 385 10 250 0 385 -4 385 -10z m590 0 c0 -6
-47 -10 -120 -10 -73 0 -120 4 -120 10 0 6 47 10 120 10 73 0 120 -4 120 -10z
m760 0 c0 -6 -107 -10 -300 -10 -193 0 -300 4 -300 10 0 6 107 10 300 10 193
0 300 -4 300 -10z m1820 0 c0 -6 -47 -10 -120 -10 -73 0 -120 4 -120 10 0 6
47 10 120 10 73 0 120 -4 120 -10z m760 0 c0 -6 -107 -10 -300 -10 -193 0
-300 4 -300 10 0 6 107 10 300 10 193 0 300 -4 300 -10z m1830 0 c0 -6 -47
-10 -120 -10 -73 0 -120 4 -120 10 0 6 47 10 120 10 73 0 120 -4 120 -10z
m390 0 c0 -6 -47 -10 -120 -10 -73 0 -120 4 -120 10 0 6 47 10 120 10 73 0
120 -4 120 -10z m2190 0 c0 -6 -107 -10 -300 -10 -193 0 -300 4 -300 10 0 6
107 10 300 10 193 0 300 -4 300 -10z m390 0 c0 -6 -47 -10 -120 -10 -73 0
-120 4 -120 10 0 6 47 10 120 10 73 0 120 -4 120 -10z m2190 0 c0 -6 -107 -10
-300 -10 -193 0 -300 4 -300 10 0 6 107 10 300 10 193 0 300 -4 300 -10z m390
0 c0 -6 -47 -10 -120 -10 -73 0 -120 4 -120 10 0 6 47 10 120 10 73 0 120 -4
120 -10z m1120 0 c0 -6 -133 -10 -380 -10 -247 0 -380 4 -380 10 0 6 133 10
380 10 247 0 380 -4 380 -10z m-5950 -10 c0 -7 160 -10 460 -10 300 0 460 3
460 10 0 6 60 10 160 10 100 0 160 -4 160 -10 0 -7 178 -10 514 -10 333 0 517
4 521 10 4 6 68 10 161 10 96 0 154 -4 154 -10 0 -7 160 -10 460 -10 300 0
460 3 460 10 0 6 58 10 155 10 97 0 155 -4 155 -10 0 -7 178 -10 515 -10 337
0 515 3 515 10 0 6 60 10 160 10 100 0 160 -4 160 -10 0 -6 137 -10 390 -10
l390 0 0 -405 0 -405 -392 -1 c-504 -1 -11895 -1 -12415 0 l-392 1 -1 405 0
405 397 1 c219 0 1781 1 3471 1 1841 0 3072 3 3072 9 0 5 68 9 155 9 97 0 155
-4 155 -10z m-9183 -168 c-54 -54 -58 -56 -74 -39 -16 16 -16 17 5 17 14 0 43
19 70 44 67 64 67 46 -1 -22z m17073 23 c29 -30 53 -45 69 -45 24 0 24 -1 8
-17 -16 -17 -21 -14 -80 45 -34 34 -57 62 -51 62 5 0 30 -20 54 -45z m-15162
8 c-10 -2 -26 -2 -35 0 -10 3 -2 5 17 5 19 0 27 -2 18 -5z m12 -219 l0 -207
-57 6 c-167 17 -333 183 -350 350 l-6 57 207 0 206 0 0 -206z m13340 196 c0
-17 -63 -78 -87 -85 -22 -6 -23 -3 -23 44 l0 51 55 0 c31 0 55 -5 55 -10z
m-15173 -177 l-77 -78 77 -77 77 -78 -22 -22 -22 -23 -97 98 -98 97 100 100
100 100 20 -20 20 -20 -78 -77z m16956 19 l97 -97 -100 -100 c-99 -98 -99 -99
-120 -80 l-21 19 81 81 80 80 -80 80 c-75 74 -79 80 -63 97 9 10 19 18 22 18
4 0 50 -44 104 -98z m-1730 10 c37 -17 89 -52 117 -78 60 -56 116 -164 126
-241 l7 -53 -207 0 -206 0 0 206 0 207 49 -5 c26 -3 78 -19 114 -36z m-15598
-402 l-239 -239 19 -23 19 -23 -24 23 -25 22 240 240 c132 132 242 240 245
240 3 0 -103 -108 -235 -240z m276 167 c-6 -15 -16 -27 -23 -27 -7 0 -58 -46
-114 -101 -92 -92 -134 -117 -117 -71 6 15 4 15 -15 -2 -25 -22 -29 -38 -8
-30 39 15 16 -21 -65 -102 -49 -48 -89 -93 -89 -99 0 -6 90 -100 200 -210
l200 -200 94 94 c55 54 99 91 105 87 6 -4 9 -12 6 -17 -9 -13 9 -11 23 3 16
16 15 29 -2 22 -8 -3 -17 -1 -20 4 -5 9 240 252 254 252 3 0 30 -25 60 -55
l55 -55 -235 -235 -235 -235 -285 285 -285 285 235 235 c226 227 235 234 253
217 14 -15 16 -24 8 -45z m17347 -170 l232 -232 -288 -288 -287 -287 -235 235
-235 235 60 60 60 60 130 -125 c119 -114 129 -126 112 -138 -15 -13 -15 -16
-2 -27 12 -10 15 -10 15 4 0 31 26 15 115 -74 l90 -90 205 205 205 205 -94 94
c-81 81 -91 95 -76 104 10 5 15 14 11 21 -10 16 -26 14 -26 -4 0 -8 -3 -15 -8
-15 -4 0 -54 47 -111 104 -58 58 -108 103 -112 100 -4 -2 -14 9 -22 25 -13 26
-13 31 1 45 9 9 19 16 22 16 3 0 110 -105 238 -233z m-15941 -79 c-1 -46 -3
-11 -3 77 0 88 2 125 3 83 2 -42 2 -114 0 -160z m138 203 c84 -38 154 -137
169 -238 l6 -43 -150 0 -150 0 0 156 0 157 42 -7 c23 -4 60 -15 83 -25z m385
-41 l0 -50 -55 0 c-30 0 -55 4 -55 9 0 16 52 72 74 81 34 14 36 12 36 -40z
m-1875 -99 c-3 -3 -27 16 -53 42 -26 26 -56 47 -66 47 -16 0 -16 2 -6 16 12
13 21 8 71 -42 32 -32 56 -60 54 -63z m17105 104 c10 -13 9 -15 -12 -15 -15 0
-40 -16 -68 -45 -24 -25 -49 -45 -54 -45 -6 0 16 27 49 60 33 33 62 60 66 60
4 0 12 -7 19 -15z m-17165 -75 c31 -31 55 -48 64 -45 22 8 234 -205 220 -221
-7 -8 -7 -14 1 -19 5 -3 10 -14 10 -23 0 -21 -303 -326 -318 -321 -17 6 -319
297 -343 330 l-21 30 158 160 c87 87 163 159 169 159 6 0 33 -23 60 -50z
m17322 -102 c84 -84 153 -159 153 -167 0 -17 -338 -361 -355 -361 -6 0 -82 72
-169 159 -135 136 -158 162 -147 175 7 8 10 23 7 33 -8 24 192 227 215 218 9
-3 33 14 64 45 27 27 56 50 64 50 8 0 83 -68 168 -152z m-17054 34 c87 -88
106 -111 95 -120 -11 -9 -36 11 -122 97 -94 95 -119 131 -88 131 4 0 56 -49
115 -108z m16687 95 c0 -7 -47 -59 -105 -117 -83 -83 -107 -102 -117 -92 -10
10 9 34 92 117 99 99 130 121 130 92z m-16717 -145 c79 -79 96 -101 85 -110
-11 -9 -36 11 -122 97 -63 63 -106 114 -102 120 11 17 32 1 139 -107z m16661
-13 c-86 -86 -111 -106 -122 -97 -11 9 8 32 94 119 86 86 111 106 122 97 11
-9 -8 -32 -94 -119z m-14964 61 l0 -60 75 0 75 0 0 -1180 0 -1180 60 0 c57 0
60 -1 60 -24 0 -13 6 -26 13 -29 7 -3 -42 -59 -118 -136 l-130 -131 -402 402
c-222 222 -403 405 -403 409 0 3 22 30 49 60 l50 54 82 -82 83 -82 -22 -24
-22 -23 109 -107 108 -107 197 0 196 0 0 390 c0 340 2 390 15 390 15 0 20 54
15 184 -1 31 3 52 12 57 11 7 11 9 0 9 -10 0 -13 15 -12 53 1 28 1 238 1 465
l-1 412 -125 0 -125 0 0 69 c0 38 -3 76 -6 85 -5 13 3 16 50 16 l56 0 0 85 0
85 30 0 30 0 0 -60z m13290 -30 l0 -90 110 0 c91 0 110 -3 110 -15 0 -12 -14
-15 -65 -15 l-65 0 0 -70 0 -70 -35 0 -35 0 0 -430 c0 -236 3 -430 8 -429 4 0
149 139 322 309 l315 309 -87 88 -88 88 0 118 0 117 40 0 c22 0 40 -4 40 -10
0 -5 -9 -10 -20 -10 -19 0 -20 -7 -20 -107 l0 -108 97 -97 98 -98 -353 -353
-352 -352 0 -140 0 -140 250 -250 c137 -137 253 -246 257 -242 4 4 38 38 75
74 68 67 68 67 88 48 19 -20 18 -22 -384 -426 l-403 -407 -134 134 c-74 74
-128 134 -121 134 6 0 12 7 12 15 0 13 22 15 140 15 l140 0 0 100 0 100 163 0
162 0 93 93 92 92 -250 250 -250 249 -3 -209 c-1 -116 -3 248 -5 808 l-2 1017
30 0 30 0 0 -90z m349 -68 c-56 -1 -104 0 -107 2 -9 9 20 96 41 122 l20 26 74
-74 74 -73 -102 -3z m-12859 28 c0 -6 -108 -10 -305 -10 -197 0 -305 4 -305
10 0 6 108 10 305 10 197 0 305 -4 305 -10z m590 0 c0 -6 -47 -10 -120 -10
-73 0 -120 4 -120 10 0 6 47 10 120 10 73 0 120 -4 120 -10z m150 -105 l0
-115 -70 0 -70 0 0 115 0 115 70 0 70 0 0 -115z m610 105 c0 -6 -107 -10 -300
-10 -193 0 -300 4 -300 10 0 6 107 10 300 10 193 0 300 -4 300 -10z m1230 0
c0 -6 -108 -10 -305 -10 l-305 0 0 -1175 c0 -788 -3 -1175 -10 -1175 -7 0 -10
352 -10 1068 0 587 0 1115 0 1175 l0 107 -125 0 c-77 0 -125 4 -125 10 0 7
153 10 440 10 287 0 440 -3 440 -10z m590 0 c0 -6 -47 -10 -120 -10 -73 0
-120 4 -120 10 0 6 47 10 120 10 73 0 120 -4 120 -10z m150 -104 l0 -114 -70
-1 -70 0 0 114 0 115 70 0 70 0 0 -114z m610 104 c0 -6 -107 -10 -300 -10
-193 0 -300 4 -300 10 0 6 107 10 300 10 193 0 300 -4 300 -10z m1230 0 c0 -6
-108 -10 -305 -10 l-305 0 0 -1175 c0 -887 -3 -1175 -12 -1175 -8 0 -10 248
-5 1023 4 562 4 1091 0 1175 l-6 152 -124 0 c-75 0 -123 4 -123 10 0 7 153 10
440 10 287 0 440 -3 440 -10z m600 0 c0 -6 -47 -10 -120 -10 -73 0 -120 4
-120 10 0 6 47 10 120 10 73 0 120 -4 120 -10z m140 -105 l0 -115 -65 0 -65 0
0 115 0 115 65 0 65 0 0 -115z m250 105 c0 -6 -47 -10 -120 -10 -73 0 -120 4
-120 10 0 6 47 10 120 10 73 0 120 -4 120 -10z m1230 0 c0 -6 -48 -10 -125
-10 l-125 0 -2 -1177 -3 -1178 -5 1175 -5 1175 -307 3 c-194 1 -308 6 -308 12
0 6 158 10 440 10 287 0 440 -3 440 -10z m960 0 c0 -6 -107 -10 -300 -10 -193
0 -300 4 -300 10 0 6 107 10 300 10 193 0 300 -4 300 -10z m140 -105 l0 -115
-65 0 -65 0 0 115 0 115 65 0 65 0 0 -115z m250 105 c0 -6 -47 -10 -120 -10
-73 0 -120 4 -120 10 0 6 47 10 120 10 73 0 120 -4 120 -10z m1240 0 c0 -5
-54 -11 -127 -12 l-128 -3 -5 -1175 -5 -1175 -5 1175 -5 1175 -302 3 c-191 1
-303 6 -303 12 0 6 158 10 440 10 278 0 440 -4 440 -10z m950 0 c0 -6 -107
-10 -300 -10 -193 0 -300 4 -300 10 0 6 107 10 300 10 193 0 300 -4 300 -10z
m140 -105 l0 -115 -65 0 -65 0 0 115 0 115 65 0 65 0 0 -115z m250 105 c0 -6
-47 -10 -120 -10 -73 0 -120 4 -120 10 0 6 47 10 120 10 73 0 120 -4 120 -10z
m1120 0 c0 -6 -133 -10 -380 -10 -247 0 -380 4 -380 10 0 6 133 10 380 10 247
0 380 -4 380 -10z m-12100 -165 l0 -165 -32 0 c-46 0 -136 44 -181 88 -51 49
-87 122 -94 188 l-6 54 157 0 156 0 0 -165z m1350 -1 l0 -167 -44 5 c-132 15
-253 141 -264 275 l-4 53 156 0 156 0 0 -166z m1230 0 l0 -167 -45 6 c-133 19
-245 137 -262 277 l-6 50 157 0 156 0 0 -166z m1350 0 l0 -167 -45 6 c-133 19
-245 137 -262 277 l-6 50 157 0 156 0 0 -166z m1230 1 l0 -165 -25 0 c-41 0
-130 38 -173 75 -48 42 -98 138 -108 208 l-6 47 156 0 156 0 0 -165z m987 111
c-14 -133 -134 -259 -263 -274 l-44 -5 0 167 0 166 156 0 157 0 -6 -54z m1237
7 c-9 -73 -58 -167 -109 -208 -49 -41 -130 -75 -175 -75 l-30 0 0 165 0 165
160 0 160 0 -6 -47z m2583 -5 c-16 -135 -132 -257 -262 -275 l-45 -6 0 167 0
166 156 0 157 0 -6 -52z m1347 5 c-7 -67 -57 -165 -106 -208 -45 -38 -132 -75
-178 -75 l-30 0 0 165 0 165 159 0 159 0 -4 -47z m-13689 -163 c6 0 48 38 95
85 76 76 120 104 120 75 0 -5 -8 -10 -18 -10 -9 0 -84 -67 -167 -150 -142
-143 -148 -150 -132 -168 25 -28 21 -39 -6 -14 l-23 21 -184 -184 -185 -185
95 -95 95 -95 -33 -32 -32 -33 -190 190 c-190 189 -190 190 -170 210 20 19 20
19 83 -43 l62 -62 245 245 245 245 -78 78 -77 77 22 23 23 22 100 -100 c55
-55 105 -100 110 -100z m11105 157 c0 -57 -42 -140 -97 -194 -46 -44 -132 -83
-183 -83 l-30 0 0 160 0 160 155 0 155 0 0 -43z m4825 -77 l-80 -80 247 -247
248 -248 63 63 63 63 19 -21 c19 -21 18 -22 -170 -210 -178 -178 -190 -188
-207 -173 -10 9 -18 21 -18 26 0 5 46 57 102 114 l102 104 -334 334 c-186 186
-343 335 -352 335 -10 0 -18 5 -18 10 0 6 21 10 47 10 45 0 51 -4 108 -60 l61
-60 79 80 79 80 20 -20 20 -20 -79 -80z m-13874 59 c13 -87 78 -181 161 -232
30 -19 129 -47 165 -47 l23 0 0 165 0 165 115 0 115 0 0 -105 0 -105 30 0 30
0 0 -965 0 -965 -30 0 c-27 0 -30 -3 -30 -30 l0 -30 -460 0 -460 0 0 285 0
285 220 0 c158 0 226 -4 240 -12 16 -10 24 -10 40 0 11 6 33 12 50 12 l30 0 0
145 0 145 -430 0 -430 0 0 670 0 670 307 -2 308 -3 6 -46z m336 -181 c-1 -46
-3 -11 -3 77 0 88 2 125 3 83 2 -42 2 -114 0 -160z m673 -85 c-1 -175 -1 -337
-1 -360 l1 -43 150 0 150 0 0 360 c0 311 2 360 15 360 14 0 18 -10 30 -82 8
-53 76 -148 132 -185 46 -31 143 -63 190 -63 l23 0 0 165 0 165 115 0 115 0 0
-100 0 -100 -75 0 -75 0 0 -365 0 -365 75 0 75 0 0 -635 0 -635 -160 0 -161 0
4 308 c2 169 5 312 5 317 1 6 -1 29 -4 53 l-6 42 -289 0 -289 0 0 -30 c0 -17
-6 -39 -12 -50 -10 -15 -10 -22 0 -32 9 -9 12 -88 12 -310 l0 -298 -145 0
-145 0 0 30 c0 27 -3 30 -30 30 l-30 0 0 965 0 965 30 0 30 0 0 105 0 105 136
0 135 0 -1 -317z m290 -38 l0 -355 -140 0 c-87 0 -140 4 -140 10 0 6 52 10
135 10 l135 0 0 75 0 75 -135 0 -135 0 0 270 0 270 140 0 140 0 0 -355z m387
123 c-1 -46 -3 -11 -3 77 0 88 2 125 3 83 2 -42 2 -114 0 -160z m563 -58 c0
-214 -3 -296 -12 -310 -10 -16 -10 -24 0 -40 6 -11 12 -33 12 -50 l0 -30 145
0 145 0 0 360 c0 344 1 360 19 360 14 0 19 -10 24 -49 10 -85 62 -166 142
-221 42 -29 136 -60 182 -60 l23 0 0 165 0 165 115 0 115 0 0 -100 0 -100 -55
0 -55 0 0 -365 0 -365 85 0 85 0 0 -605 0 -605 -30 0 c-27 0 -30 -3 -30 -30
l0 -30 -140 0 -141 0 4 308 c2 169 5 312 5 317 1 6 -1 29 -4 53 l-6 42 -288 0
-288 0 -6 -37 c-4 -21 -6 -47 -5 -58 0 -11 3 -156 5 -323 l5 -302 -166 0 -165
0 0 1100 0 1100 140 0 140 0 0 -290z m280 20 l0 -270 -135 0 -135 0 0 270 0
270 135 0 135 0 0 -270z m387 38 c-1 -46 -3 -11 -3 77 0 88 2 125 3 83 2 -42
2 -114 0 -160z m673 -85 c-1 -175 -1 -337 -1 -360 l1 -43 150 0 150 0 0 360
c0 344 1 360 19 360 14 0 19 -10 24 -49 10 -85 62 -166 142 -221 42 -29 136
-60 182 -60 l23 0 0 165 0 165 115 0 115 0 0 -101 0 -100 -72 2 -73 2 0 -364
0 -364 73 -3 72 -3 0 -634 0 -635 -160 0 -160 0 0 295 c0 216 3 301 12 315 10
15 10 22 0 32 -6 6 -12 27 -12 45 l0 33 -290 0 -290 0 0 -30 c0 -17 -6 -39
-12 -50 -10 -15 -10 -22 0 -32 9 -9 12 -88 12 -310 l0 -298 -145 0 -145 0 0
30 c0 27 -3 30 -30 30 l-30 0 0 965 0 965 30 0 30 0 0 105 0 105 136 0 135 0
-1 -317z m290 47 l0 -270 -140 0 -140 0 0 270 0 270 140 0 140 0 0 -270z m387
38 c-1 -46 -3 -11 -3 77 0 88 2 125 3 83 2 -42 2 -114 0 -160z m898 185 c21
-142 143 -258 293 -278 l52 -7 0 166 0 166 120 0 120 0 0 -100 0 -100 -60 0
-60 0 2 -362 3 -363 83 -3 82 -3 0 -604 0 -605 -25 0 c-21 0 -25 -5 -25 -30
l0 -30 -460 0 -460 0 0 285 0 285 220 0 c158 0 226 -4 240 -12 16 -10 24 -10
40 0 11 6 33 12 50 12 l30 0 0 145 0 145 -430 0 -430 0 0 670 0 670 304 0 304
0 7 -47z m332 -185 c-1 -46 -3 -11 -3 77 0 88 2 125 3 83 2 -42 2 -114 0 -160z
m633 67 l0 -165 23 0 c41 0 136 29 174 54 84 53 153 161 153 239 0 30 4 37 20
37 20 0 20 -7 20 -360 l0 -360 150 0 150 0 1 43 c0 23 0 185 -1 360 l-1 317
135 0 136 0 0 -1100 0 -1100 -161 0 -160 0 1 323 c1 177 1 339 1 360 l-1 37
-295 0 -295 0 -1 -37 c0 -21 0 -183 1 -360 l1 -323 -140 0 -141 0 0 30 c0 27
-3 30 -30 30 l-30 0 0 608 0 607 85 -3 85 -3 2 178 c2 98 2 262 0 366 l-3 187
-54 0 -55 0 0 100 0 100 115 0 115 0 0 -165z m17 -67 c-1 -46 -3 -11 -3 77 0
88 2 125 3 83 2 -42 2 -114 0 -160z m663 -38 l0 -270 -135 0 -135 0 0 -75 0
-75 135 0 c83 0 135 -4 135 -10 0 -6 -53 -10 -140 -10 l-140 0 0 355 0 355
140 0 140 0 0 -270z m560 105 c0 -138 2 -165 15 -165 32 0 122 24 158 42 84
42 158 148 173 245 4 27 11 43 20 43 12 0 14 -60 14 -360 l0 -360 149 0 149 0
6 43 c3 23 6 49 5 57 -1 8 -3 151 -5 318 l-5 302 141 0 140 0 0 -105 0 -105
25 0 25 0 0 -965 0 -965 -25 0 c-21 0 -25 -5 -25 -30 l0 -30 -146 0 -145 0 1
322 c1 178 1 340 1 361 l-1 37 -295 0 -295 0 -1 -37 c0 -21 0 -183 1 -360 l1
-323 -155 0 -156 0 0 635 0 635 70 0 69 0 3 188 c2 103 2 267 0 365 l-2 177
-70 0 -70 0 0 100 0 100 115 0 115 0 0 -165z m670 -105 l0 -270 -135 0 -135 0
0 -75 0 -75 135 0 c83 0 135 -4 135 -10 0 -6 -53 -10 -140 -10 l-140 0 0 355
0 355 140 0 140 0 0 -270z m680 105 c0 -188 -8 -176 95 -150 127 34 222 132
246 256 7 38 17 59 25 59 12 0 14 -62 14 -360 l0 -360 149 0 149 0 6 48 c3 26
5 52 4 57 0 6 -2 146 -5 313 l-4 302 136 0 135 0 0 -1100 0 -1100 -160 0 -161
0 4 308 c2 169 5 312 5 317 1 6 -1 29 -4 53 l-6 42 -294 0 -294 0 -1 -42 c0
-24 0 -186 1 -361 l1 -317 -141 0 -140 0 0 30 c0 25 -4 30 -25 30 l-25 0 0
605 0 605 85 0 85 0 0 365 0 365 -60 0 -60 0 0 100 0 100 120 0 120 0 0 -165z
m670 -105 l0 -270 -135 0 -135 0 0 -75 0 -75 135 0 c83 0 135 -4 135 -10 0 -6
-53 -10 -140 -10 l-140 0 0 355 0 355 140 0 140 0 0 -270z m560 104 l0 -167
53 7 c66 8 162 55 204 98 44 46 81 121 89 179 4 32 11 49 20 49 12 0 14 -62
14 -360 l0 -360 149 0 149 0 6 48 c3 26 5 52 4 57 0 6 -2 146 -5 313 l-4 302
141 0 140 0 0 -105 0 -105 30 0 30 0 0 -965 0 -965 -30 0 c-27 0 -30 -3 -30
-30 l0 -30 -145 0 -146 0 4 308 c2 169 5 312 5 317 1 6 -1 29 -4 53 l-6 42
-288 0 -288 0 -6 -37 c-4 -21 -6 -47 -5 -58 0 -11 3 -156 5 -323 l5 -302 -161
0 -160 0 0 635 0 634 73 3 72 3 3 363 2 362 -75 0 -75 0 0 100 0 100 115 0
115 0 0 -166z m17 -66 c-1 -46 -3 -11 -3 77 0 88 2 125 3 83 2 -42 2 -114 0
-160z m653 -38 l0 -270 -135 0 -135 0 0 -75 0 -75 135 0 c83 0 135 -4 135 -10
0 -6 -53 -10 -140 -10 l-140 0 0 355 0 355 140 0 140 0 0 -270z m680 104 l0
-166 53 7 c150 20 271 135 293 281 l6 44 384 0 384 0 0 -945 0 -945 -28 0
c-15 0 -52 -12 -80 -26 -46 -23 -51 -28 -40 -43 7 -9 43 -53 80 -98 51 -62 68
-89 68 -112 l0 -31 -205 0 -205 0 0 905 0 905 -145 0 -145 0 -2 -907 -3 -908
-2 908 -3 907 -145 0 -145 0 0 -905 0 -905 -180 0 -180 0 0 30 c0 25 -4 30
-25 30 l-25 0 0 965 0 965 25 0 25 0 0 105 0 105 120 0 120 0 0 -166z m-13110
136 c0 -5 -4 -10 -10 -10 -5 0 -10 5 -10 10 0 6 5 10 10 10 6 0 10 -4 10 -10z
m310 0 c0 -5 -4 -10 -10 -10 -5 0 -10 5 -10 10 0 6 5 10 10 10 6 0 10 -4 10
-10z m140 -258 l0 -268 55 -54 55 -54 0 -326 0 -325 -175 -175 c-96 -96 -175
-170 -175 -165 0 6 77 87 170 180 l170 170 0 303 0 304 -61 63 c-60 63 -60 63
-59 121 0 33 -2 152 -6 267 l-7 207 -48 0 c-27 0 -49 5 -49 10 0 6 28 10 65
10 l65 0 0 -268z m30 258 c0 -5 -4 -10 -10 -10 -5 0 -10 5 -10 10 0 6 5 10 10
10 6 0 10 -4 10 -10z m330 -5 c0 -8 9 -15 20 -15 18 0 20 -7 20 -80 l0 -80
125 0 125 0 0 -400 0 -400 -78 0 c-47 0 -83 -5 -90 -12 -18 -18 -16 -192 2
-207 8 -7 12 -21 9 -31 -7 -26 9 -26 32 0 14 15 31 20 72 20 l53 0 0 -55 c0
-42 -3 -55 -15 -55 -13 0 -15 -50 -15 -390 l0 -390 -192 0 -193 0 -97 97 -98
97 22 23 c21 22 21 23 3 43 -18 20 -17 21 48 89 37 38 67 77 67 86 0 20 -62
85 -82 85 -7 0 -45 -31 -83 -70 l-69 -70 -23 22 -23 21 -23 -21 -23 -22 -39
40 -39 40 172 173 173 173 0 334 0 335 -56 53 -55 54 0 249 c0 215 2 249 15
249 8 0 15 7 15 15 0 13 24 15 160 15 136 0 160 -2 160 -15z m30 5 c0 -5 -4
-10 -10 -10 -5 0 -10 5 -10 10 0 6 5 10 10 10 6 0 10 -4 10 -10z m14961 -34
c-16 -16 -23 -18 -33 -8 -18 18 19 57 39 40 12 -10 11 -15 -6 -32z m-16307 15
c14 -15 14 -20 3 -30 -11 -8 -18 -7 -31 8 -10 11 -15 25 -11 30 9 16 20 14 39
-8z m506 -146 l0 -146 38 7 c97 17 184 81 226 167 14 28 26 66 26 84 l0 33 60
0 60 0 0 -150 0 -150 -79 0 c-101 0 -111 -11 -111 -119 0 -102 9 -111 112
-111 l79 0 60 -57 59 -56 0 -94 c0 -69 -4 -98 -14 -109 -22 -21 -286 -21 -286
1 0 8 -9 15 -19 15 -11 0 -23 5 -26 10 -4 6 -14 8 -24 5 -22 -7 -204 175 -196
196 9 25 -34 72 -61 66 -31 -6 -208 170 -198 197 5 13 -2 25 -22 41 l-29 24
145 145 c117 118 150 146 172 146 l28 0 0 -145z m280 127 c0 -40 -34 -113 -73
-158 -42 -47 -123 -94 -164 -94 -23 0 -23 2 -23 135 l0 135 130 0 c119 0 130
-2 130 -18z m14510 -95 l0 -112 80 -80 c44 -44 79 -82 78 -85 -2 -3 -139 -140
-305 -304 l-303 -300 0 417 0 417 35 0 35 0 0 70 0 70 65 0 c37 0 65 4 65 10
0 6 48 10 125 10 l125 0 0 -113z m160 -34 c29 -76 62 -160 72 -188 l19 -50
-95 95 -96 95 0 92 c0 91 1 93 23 93 21 0 30 -15 77 -137z m390 119 c0 -31
-29 -131 -51 -173 -37 -74 -162 -189 -205 -189 -9 0 -82 176 -150 363 -6 16 8
17 200 17 191 0 206 -1 206 -18z m365 -312 l330 -330 -217 -217 -218 -218
-145 145 -145 144 35 36 c19 20 35 40 35 46 0 5 -34 43 -75 84 -41 41 -73 79
-71 85 7 19 -15 45 -37 45 -14 0 -43 20 -75 53 l-51 52 54 29 c62 32 145 117
177 180 25 48 48 129 48 169 0 15 6 27 13 27 6 0 161 -149 342 -330z m-16251
301 c14 -15 14 -20 3 -30 -11 -8 -18 -7 -31 8 -10 11 -15 25 -11 30 9 16 20
14 39 -8z m16401 8 c4 -5 -1 -19 -11 -30 -13 -15 -20 -16 -31 -8 -11 10 -11
15 3 30 19 22 30 24 39 8z m-17160 -33 c0 -18 -3 -22 -13 -14 -9 8 -9 14 -1
24 15 18 14 18 14 -10z m17889 -6 c-6 -6 -10 -2 -11 12 -2 16 1 18 10 9 7 -7
8 -14 1 -21z m-710 -14 c-5 -21 -9 -24 -20 -15 -12 10 -12 15 2 30 21 24 27
19 18 -15z m-16464 8 c11 -12 11 -18 -2 -30 -14 -14 -16 -13 -20 15 -5 34 3
39 22 15z m3070 -1049 c0 -637 -3 -965 -10 -965 -7 0 -10 328 -10 965 0 637 3
965 10 965 7 0 10 -328 10 -965z m1228 893 c-16 -40 -31 -74 -32 -75 -1 -2
-16 31 -34 72 l-31 75 64 0 64 0 -31 -72z m1270 -3 c-17 -42 -32 -74 -33 -73
-1 2 -16 36 -33 76 l-30 72 63 0 64 0 -31 -75z m49 -182 c-1 -49 -3 -9 -3 87
0 96 2 136 3 88 2 -49 2 -127 0 -175z m33 -708 c0 -637 -3 -965 -10 -965 -7 0
-10 328 -10 965 0 637 3 965 10 965 7 0 10 -328 10 -965z m1251 943 c-5 -13
-20 -47 -33 -77 l-24 -54 -27 69 c-15 38 -27 73 -27 77 0 4 27 7 60 7 58 0 59
-1 51 -22z m1260 -25 c-10 -27 -25 -60 -32 -76 l-12 -28 -29 67 c-15 36 -28
70 -28 75 0 5 27 9 60 9 l60 0 -19 -47z m36 -210 c-1 -49 -3 -9 -3 87 0 96 2
136 3 88 2 -49 2 -127 0 -175z m30 -1190 c-1 -268 -2 -51 -2 482 0 534 1 753
2 488 2 -265 2 -701 0 -970z m20 1190 c-1 -49 -3 -9 -3 87 0 96 2 136 3 88 2
-49 2 -127 0 -175z m122 205 c-12 -29 -25 -64 -31 -78 -9 -24 -11 -22 -33 33
-43 104 -45 97 24 97 l61 0 -21 -52z m1291 48 c0 -2 -11 -28 -23 -57 -13 -30
-27 -63 -31 -74 -6 -16 -12 -10 -31 38 -43 104 -45 97 24 97 34 0 61 -2 61 -4z
m1147 -1443 c-1 -268 -2 -51 -2 482 0 534 1 753 2 488 2 -265 2 -701 0 -970z
m158 1430 c-4 -10 -16 -42 -27 -70 -12 -29 -24 -53 -28 -53 -6 0 -60 122 -60
135 0 3 27 5 61 5 54 0 60 -2 54 -17z m1270 0 c-4 -10 -16 -42 -27 -70 -12
-29 -24 -53 -28 -53 -4 0 -16 24 -28 53 -11 28 -23 60 -27 70 -6 15 0 17 55
17 55 0 61 -2 55 -17z m1152 -1430 c-1 -268 -2 -51 -2 482 0 534 1 753 2 488
2 -265 2 -701 0 -970z m-9152 1223 c-12 -28 -25 -58 -28 -66 -3 -8 -6 46 -6
120 l0 135 28 -69 28 -70 -22 -50z m93 -11 l-3 -64 -26 62 -26 63 26 67 26 68
3 -66 c2 -36 2 -94 0 -130z m1172 -3 l-29 -67 0 135 0 135 29 -68 29 -68 -29
-67z m1314 3 c-15 -36 -28 -65 -30 -65 -2 0 -4 60 -4 133 l1 132 29 -68 30
-68 -26 -64z m1270 127 l25 -63 -29 -72 -29 -72 0 139 c-1 77 1 137 3 135 2
-2 16 -32 30 -67z m210 0 l27 -67 -30 -65 -30 -65 0 133 c-1 72 1 132 2 132 2
0 16 -30 31 -68z m2581 3 l27 -65 -22 -58 c-13 -31 -27 -61 -32 -67 -4 -5 -8
50 -8 123 0 73 2 132 3 132 2 0 16 -29 32 -65z m105 -67 c0 -73 -4 -128 -8
-123 -5 6 -19 36 -32 68 l-23 58 28 64 c15 36 29 65 31 65 2 0 4 -59 4 -132z
m1268 -65 l-3 -68 -29 68 -29 67 29 68 29 67 3 -67 c2 -38 2 -98 0 -135z
m-6650 3 l-3 -64 -26 63 -26 63 26 63 26 64 3 -62 c2 -34 2 -91 0 -127z m1312
57 l-1 -128 -24 59 c-14 33 -25 65 -25 72 0 14 41 124 46 124 2 0 4 -57 4
-127z m1269 5 l-1 -123 -23 50 c-13 28 -24 57 -24 67 -1 16 39 128 45 128 2 0
4 -55 3 -122z m210 0 l0 -123 -25 54 c-13 29 -24 60 -24 67 0 13 42 124 48
124 1 0 2 -55 1 -122z m1269 -60 l-3 -63 -24 62 -23 62 23 61 24 61 3 -61 c2
-33 2 -88 0 -122z m-89 114 l22 -59 -25 -54 -24 -54 -1 113 c-1 61 1 112 3
112 2 0 13 -26 25 -58z m2600 -48 c1 -6 -10 -37 -24 -70 l-24 -59 0 120 1 120
23 -50 c13 -27 24 -55 24 -61z m-11169 -18 c0 -45 -18 -56 -22 -14 -3 32 -4
33 -63 39 l-60 6 73 1 72 2 0 -34z m-776 -92 c-34 -65 -36 -74 -32 -144 4 -78
31 -152 70 -187 18 -16 24 -12 121 83 56 54 23 19 -73 -79 l-175 -177 -65 65
-65 65 63 63 c43 44 62 70 62 88 0 30 -47 79 -75 79 -11 0 -49 -29 -85 -65
l-66 -66 -19 21 c-19 21 -18 22 155 195 l175 175 23 -23 23 -23 -37 -70z m741
86 c7 -21 -8 -41 -38 -53 -21 -8 -14 -27 11 -27 12 0 13 -3 4 -12 -18 -18 -15
-28 8 -28 13 0 18 -5 14 -15 -5 -11 -21 -15 -60 -15 l-54 0 0 85 0 85 54 0
c46 0 56 -3 61 -20z m-675 6 c0 -3 -4 -8 -10 -11 -5 -3 -10 -1 -10 4 0 6 5 11
10 11 6 0 10 -2 10 -4z m4004 -75 c14 -36 26 -68 26 -73 0 -4 -26 -8 -59 -8
l-59 0 31 75 c17 41 32 73 33 72 1 -1 14 -31 28 -66z m1274 -8 l30 -73 -63 0
-63 0 31 75 c17 41 32 73 33 72 1 -1 15 -35 32 -74z m8532 -143 l0 -220 -135
0 -135 0 0 220 0 220 135 0 135 0 0 -220z m300 0 l0 -220 -135 0 -135 0 0 220
0 220 135 0 135 0 0 -220z m-7517 133 l26 -63 -59 0 c-33 0 -60 2 -60 5 0 18
54 135 60 128 3 -4 19 -36 33 -70z m1270 0 l26 -63 -60 0 c-32 0 -59 2 -59 5
0 19 54 135 60 128 5 -4 20 -36 33 -70z m210 0 l26 -63 -61 0 c-53 0 -59 2
-53 18 4 9 16 41 28 70 11 29 24 49 28 45 4 -4 19 -36 32 -70z m1270 2 l25
-60 -55 -3 c-30 -2 -57 -1 -59 1 -2 2 8 34 23 70 15 37 30 64 34 60 4 -5 18
-35 32 -68z m1306 17 c13 -31 25 -63 28 -69 4 -10 -11 -13 -57 -13 -46 0 -61
3 -57 13 32 80 53 127 57 127 3 0 16 -26 29 -58z m1270 0 c13 -31 25 -63 28
-69 4 -10 -11 -13 -57 -13 -34 0 -60 3 -58 8 2 4 14 35 28 70 14 34 27 62 30
62 3 0 16 -26 29 -58z m-11822 -220 c-39 -40 -84 -82 -99 -93 l-27 -20 -28 53
c-37 72 -39 180 -4 248 41 79 35 80 138 -22 l93 -93 -73 -73z m15363 77 c0
-14 -9 -34 -20 -44 -20 -18 -22 -18 -90 50 l-70 69 32 33 32 33 58 -57 c41
-41 58 -65 58 -84z m-16080 127 c0 -11 -19 -15 -25 -6 -3 5 1 10 9 10 9 0 16
-2 16 -4z m17140 0 c0 -11 -19 -15 -25 -6 -3 5 1 10 9 10 9 0 16 -2 16 -4z
m-15810 -51 l0 -35 -77 2 -78 1 65 6 c62 6 65 7 68 34 5 39 22 33 22 -8z
m2680 -80 l0 -65 -130 0 -130 0 0 65 0 65 130 0 130 0 0 -65z m1240 0 l0 -65
-130 0 -130 0 0 65 0 65 130 0 130 0 0 -65z m1350 0 l0 -65 -135 0 -135 0 0
65 0 65 135 0 135 0 0 -65z m2940 0 l0 -65 -130 0 -130 0 0 65 0 65 130 0 130
0 0 -65z m1230 0 l0 -65 -130 0 -130 0 0 65 0 65 130 0 130 0 0 -65z m1350 0
l0 -65 -130 0 -130 0 0 65 0 65 130 0 130 0 0 -65z m1230 0 l0 -65 -130 0
-130 0 0 65 0 65 130 0 130 0 0 -65z m2613 -3 l67 -68 -33 -32 -33 -32 -69 70
-69 70 29 30 c16 16 31 30 35 30 3 0 36 -31 73 -68z m-7386 -204 c-1 -51 -3
-12 -3 87 0 99 2 141 3 93 2 -48 2 -129 0 -180z m-3949 180 c-17 -40 -31 -74
-33 -76 -2 -3 -55 131 -55 141 0 4 27 7 59 7 l59 0 -30 -72z m1270 0 c-16 -40
-31 -74 -33 -76 -2 -3 -55 131 -55 141 0 4 27 7 60 7 l59 0 -31 -72z m49 -185
c-1 -49 -3 -9 -3 87 0 96 2 136 3 88 2 -49 2 -127 0 -175z m1261 182 l-31 -76
-28 68 c-16 37 -29 71 -29 75 0 4 27 8 59 8 l60 0 -31 -75z m1270 -1 l-31 -76
-23 56 c-42 103 -43 96 25 96 l60 0 -31 -76z m49 -181 c-1 -49 -3 -9 -3 87 0
96 2 136 3 88 2 -49 2 -127 0 -175z m172 206 c-39 -100 -40 -101 -64 -44 -44
99 -45 95 24 95 l61 0 -21 -51z m1270 -1 c-12 -29 -24 -61 -26 -70 -3 -10 -9
-18 -12 -18 -6 0 -61 122 -61 135 0 3 27 5 60 5 l60 0 -21 -52z m1329 44 c-1
-4 -14 -35 -28 -70 -14 -34 -28 -62 -31 -62 -3 0 -15 24 -27 53 -11 28 -23 60
-27 70 -6 15 0 17 55 17 34 0 60 -3 58 -8z m1269 -4 c-32 -81 -53 -128 -57
-128 -4 0 -25 47 -57 128 -4 9 11 12 57 12 46 0 61 -3 57 -12z m3568 -9 c11
-17 -1 -21 -15 -4 -8 9 -8 15 -2 15 6 0 14 -5 17 -11z m-4827 -211 l-3 -73
-29 67 -28 66 28 74 29 73 3 -67 c2 -37 2 -100 0 -140z m-6749 -5 l-28 -68 0
135 0 135 28 -67 29 -68 -29 -67z m101 65 l-1 -133 -28 67 -29 68 27 65 c14
35 27 65 29 65 1 0 2 -60 2 -132z m1173 65 l25 -62 -29 -68 -28 -68 -1 134 c0
74 2 132 4 130 2 -2 15 -32 29 -66z m96 -65 l0 -133 -28 69 -28 69 26 63 c14
35 27 64 29 64 1 0 2 -60 1 -132z m1215 63 l25 -63 -25 -62 c-15 -33 -28 -63
-30 -65 -2 -2 -4 56 -4 129 0 73 2 131 4 129 2 -2 16 -33 30 -68z m1270 1 l25
-64 -25 -64 c-15 -35 -28 -64 -30 -64 -2 0 -4 59 -4 132 0 72 2 129 4 127 2
-2 16 -32 30 -67z m229 -62 c0 -14 -12 -50 -26 -80 l-25 -55 0 135 0 135 25
-55 c14 -30 26 -66 26 -80z m2562 65 l28 -64 -23 -58 c-13 -32 -27 -62 -32
-68 -4 -5 -8 50 -8 123 0 73 2 132 4 132 2 0 16 -29 31 -65z m1374 -67 l-1
-133 -30 65 c-28 59 -29 68 -18 100 22 60 40 100 45 100 3 0 5 -60 4 -132z
m-5339 -5 l-1 -128 -24 59 c-14 33 -25 66 -25 75 0 16 41 121 47 121 2 0 3
-57 3 -127z m1269 5 l0 -123 -25 54 c-13 29 -24 59 -24 66 0 15 41 125 46 125
2 0 4 -55 3 -122z m209 -60 l-3 -63 -24 63 -23 62 23 63 24 62 3 -62 c2 -35 2
-91 0 -125z m1270 0 l-3 -63 -24 63 -24 63 24 60 24 60 3 -60 c2 -34 2 -89 0
-123z m2489 0 l-26 -63 0 125 0 125 26 -62 25 -63 -25 -62z m3445 10 l-32 -33
-70 70 -70 69 32 33 32 33 71 -70 70 -70 -33 -32z m-15245 -36 c-103 -103
-190 -183 -194 -179 -9 10 358 378 370 370 5 -3 -74 -89 -176 -191z m9222 140
l22 -58 -25 -54 -25 -55 0 113 c-1 61 1 112 3 112 2 0 13 -26 25 -58z m6297
-13 l58 -59 -32 -32 -32 -33 -70 70 -70 69 21 22 c33 36 61 27 125 -37z
m-15771 31 c10 -11 16 -20 13 -20 -3 0 -13 9 -23 20 -10 11 -16 20 -13 20 3 0
13 -9 23 -20z m-15 -15 l24 -25 -44 -45 -44 -45 -23 22 c-24 22 -31 48 -13 48
6 0 10 -9 10 -20 0 -15 7 -20 25 -20 20 0 25 5 25 25 0 14 -3 24 -7 24 -5 -1
-17 -1 -27 0 -18 1 -17 4 9 31 16 17 32 30 35 30 4 0 17 -11 30 -25z m346 -94
c-114 -115 -114 -114 -11 -163 93 -44 199 -37 279 17 20 14 41 25 46 25 6 0
10 -28 10 -63 l0 -62 -145 -145 -145 -145 -47 48 -48 47 63 63 c42 42 62 70
62 87 0 30 -47 80 -75 80 -12 0 -47 -26 -85 -65 l-64 -65 -48 47 -48 48 172
172 c95 95 175 173 178 173 2 0 -40 -45 -94 -99z m4504 79 c0 -6 -52 -10 -135
-10 -83 0 -135 4 -135 10 0 6 52 10 135 10 83 0 135 -4 135 -10z m1350 0 c0
-6 -53 -10 -140 -10 -87 0 -140 4 -140 10 0 6 53 10 140 10 87 0 140 -4 140
-10z m-5583 -207 c-46 -34 -131 -57 -188 -50 -46 6 -149 50 -149 64 0 4 42 49
92 100 l93 93 92 -92 92 -92 -32 -23z m14786 139 l67 -68 -33 -32 -33 -32 -69
70 -69 70 29 30 c16 16 31 30 35 30 3 0 36 -31 73 -68z m300 0 l67 -68 -33
-32 -33 -32 -69 70 -69 70 29 30 c16 16 31 30 35 30 3 0 36 -31 73 -68z
m-15720 -14 l-53 -52 -39 38 c-22 22 -38 43 -35 47 3 5 19 -7 36 -26 16 -19
35 -35 42 -35 7 0 30 18 51 40 21 22 41 40 44 40 3 0 -18 -23 -46 -52z m4231
-47 c14 -36 26 -68 26 -73 0 -4 -27 -8 -59 -8 l-60 0 31 75 c18 41 33 74 34
72 1 -1 14 -31 28 -66z m1274 -8 l30 -73 -63 0 -63 0 31 75 c17 41 32 73 33
72 1 -1 15 -35 32 -74z m1311 -1 l30 -72 -61 0 c-53 0 -59 2 -54 18 29 76 51
130 53 128 1 -1 16 -35 32 -74z m1270 0 l30 -72 -61 0 c-53 0 -59 2 -54 18 29
76 51 130 53 128 1 -1 16 -35 32 -74z m-8189 33 c19 -19 32 -35 29 -35 -3 0
-20 16 -39 35 -19 19 -32 35 -29 35 3 0 20 -16 39 -35z m8403 -40 l25 -60 -55
-3 c-30 -2 -57 -1 -60 1 -2 3 8 34 23 71 15 36 31 63 35 59 4 -5 18 -35 32
-68z m1271 0 l24 -60 -55 -3 c-30 -2 -57 -1 -59 1 -2 2 8 34 23 70 15 37 30
64 35 59 4 -4 19 -34 32 -67z m1304 23 c11 -29 23 -61 27 -70 6 -16 0 -18 -55
-18 -55 0 -61 2 -55 18 4 9 16 41 27 70 12 28 24 52 28 52 4 0 16 -24 28 -52z
m1270 0 c11 -29 23 -61 27 -70 6 -16 0 -18 -55 -18 -46 0 -61 3 -57 13 33 84
53 127 58 127 3 0 15 -24 27 -52z m3232 -123 l-35 -35 -70 70 -69 70 34 35 34
35 71 -70 70 -70 -35 -35z m302 3 l-32 -33 -70 70 -70 69 32 33 32 33 71 -70
70 -70 -33 -32z m208 153 c0 -11 -525 -521 -536 -521 -5 0 110 119 256 265
146 146 268 265 272 265 5 0 8 -4 8 -9z m-1850 -281 l0 -220 -135 0 -135 0 0
220 0 220 135 0 135 0 0 -220z m300 0 l0 -220 -135 0 -135 0 0 220 0 220 135
0 135 0 0 -220z m965 50 c-16 -16 -33 -30 -37 -30 -5 0 -44 24 -88 53 l-79 53
47 47 47 47 70 -70 69 -69 -29 -31z m268 102 l67 -68 -33 -32 -33 -32 -69 70
-69 70 29 30 c16 16 31 30 35 30 3 0 36 -31 73 -68z m327 -27 l64 -65 -29 -1
-30 -2 29 -4 28 -5 -28 -29 -28 -29 -63 62 c-35 34 -63 69 -63 77 0 15 38 61
50 61 3 0 35 -29 70 -65z m-15330 -239 c-82 -83 -150 -156 -150 -161 0 -5 46
-56 102 -112 l103 -103 -33 -32 -32 -33 -217 218 -218 217 33 32 32 33 105
-105 105 -105 155 155 155 155 2 65 2 65 3 -69 4 -70 -151 -150z m200 228 c0
-48 43 -136 86 -173 47 -42 105 -70 159 -78 l45 -6 0 -46 0 -46 -167 -167
-168 -168 -47 47 -48 47 65 67 c36 37 65 75 65 84 0 19 -62 85 -80 85 -7 0
-43 -30 -81 -67 l-70 -67 -47 47 -47 47 153 153 152 152 0 63 c0 48 3 62 15
62 11 0 15 -11 15 -36z m270 -104 l0 -140 -27 6 c-48 11 -107 40 -142 69 -38
33 -91 136 -91 178 l0 27 130 0 130 0 0 -140z m14490 -35 l-35 -35 -70 70 -69
70 34 35 34 35 71 -70 70 -70 -35 -35z m-15460 70 c52 -52 92 -95 90 -95 -3 0
-48 43 -100 95 -52 52 -92 95 -90 95 3 0 48 -43 100 -95z m15110 13 l80 -52
-39 -39 -39 -39 -98 32 c-55 18 -101 34 -103 37 -6 4 100 113 111 113 4 0 43
-23 88 -52z m580 17 c3 36 3 37 8 10 3 -23 6 -26 11 -12 5 14 15 8 61 -38 l54
-55 -31 -32 -32 -32 -26 24 c-15 14 -26 36 -26 54 -1 23 -3 26 -6 9 -4 -22 -6
-21 -44 14 l-39 37 27 29 28 29 6 -39 6 -38 3 40z m580 22 c0 -1 -39 -41 -87
-87 l-88 -85 85 88 c79 81 90 92 90 84z m-16040 -82 l-54 -55 29 -30 c16 -16
33 -30 39 -30 6 0 31 19 56 42 38 36 37 34 -7 -12 l-53 -54 -40 39 -40 39 57
58 c32 32 60 58 62 58 3 0 -19 -25 -49 -55z m15168 -101 c-15 -15 -22 -13 -92
31 -42 26 -79 52 -82 57 -3 5 7 23 22 39 l28 30 70 -71 c65 -65 69 -71 54 -86z
m-15073 126 c10 -11 16 -20 13 -20 -3 0 -13 9 -23 20 -10 11 -16 20 -13 20 3
0 13 -9 23 -20z m-34 -84 c-41 -41 -61 -50 -61 -25 0 5 9 9 20 9 14 0 20 7 20
24 0 19 -4 23 -20 19 -27 -7 -25 6 7 39 l27 28 25 -25 25 -25 -43 -44z m1269
65 c0 -16 -3 -38 -7 -48 -6 -13 -9 -8 -13 22 l-5 40 -65 6 -65 6 78 1 77 2 0
-29z m14087 -13 c24 -23 33 -41 34 -67 l1 -36 8 30 c4 17 8 22 9 12 0 -10 5
-16 10 -13 4 3 16 -3 25 -13 15 -17 15 -19 -4 -36 -15 -14 -20 -15 -21 -4 -1
8 -5 3 -9 -11 -7 -21 -8 -22 -10 -5 -1 18 -2 18 -8 2 -6 -14 -18 -7 -72 48
l-64 65 29 30 c16 16 31 30 34 30 3 0 20 -14 38 -32z m-14119 0 c4 -20 -13
-40 -41 -51 -21 -8 -14 -27 11 -27 11 0 6 -10 -18 -35 -19 -19 -43 -35 -54
-35 -17 0 -18 -2 -6 -10 8 -5 10 -10 4 -10 -6 0 -18 8 -25 17 -10 11 -10 14
-1 9 9 -5 12 13 12 79 l0 86 57 -3 c46 -2 59 -7 61 -20z m14383 -18 c5 0 9 10
9 22 0 19 10 12 65 -42 l65 -64 -32 -33 -32 -33 -70 69 -70 70 24 27 c24 25
25 25 28 5 2 -12 8 -21 13 -21z m-835 -121 l-21 -49 -127 0 -128 0 0 37 c0 31
8 45 46 84 l47 47 102 -35 103 -35 -22 -49z m217 69 c76 -50 78 -52 60 -70
-18 -18 -21 -17 -103 11 -134 46 -126 39 -89 77 18 19 37 34 43 34 5 0 45 -23
89 -52z m-15073 20 c0 -16 -3 -19 -11 -11 -6 6 -8 16 -5 22 11 17 16 13 16
-11z m15420 -163 l-35 -35 -70 70 -69 70 34 35 34 35 71 -70 70 -70 -35 -35z
m302 3 l-32 -33 -70 70 -70 69 32 33 32 33 71 -70 70 -70 -33 -32z m-15752
107 c19 -19 32 -35 29 -35 -3 0 -20 16 -39 35 -19 19 -32 35 -29 35 3 0 20
-16 39 -35z m15925 -5 c19 -21 17 -23 -198 -238 l-217 -217 -21 22 -22 21 213
216 c117 119 216 216 220 216 4 0 15 -9 25 -20z m-14555 -25 c0 -35 0 -35 -42
-34 -39 1 -40 2 -13 8 23 5 31 12 33 34 5 39 22 33 22 -8z m13672 -4 c46 -15
83 -32 83 -37 0 -5 -55 -10 -122 -12 -68 -1 -123 0 -123 3 0 3 9 24 20 46 16
31 25 39 40 34 10 -3 56 -18 102 -34z m-13705 4 c-4 -8 -14 -15 -23 -15 -16 0
-16 2 1 20 20 22 31 20 22 -5z m14036 -156 l-31 -32 -56 84 c-52 78 -55 84
-39 101 16 18 20 16 87 -51 l71 -71 -32 -31z m269 104 l68 -67 -32 -33 -32
-33 -63 62 c-35 34 -63 69 -63 77 0 14 38 61 49 61 3 0 36 -30 73 -67z m-364
-64 l54 -81 -33 -34 c-18 -19 -36 -34 -39 -34 -7 0 -70 180 -70 202 0 14 12
25 30 27 3 0 29 -36 58 -80z m-418 12 c0 -22 2 -46 6 -54 4 -10 -25 -27 -110
-62 -144 -60 -146 -59 -146 66 l0 89 125 0 125 0 0 -39z m235 30 c-9 -9 -198
-91 -209 -91 -9 0 -17 60 -11 80 6 18 15 20 118 20 70 0 107 -4 102 -9z m404
-8 c5 14 18 6 71 -48 l64 -65 -34 -35 -34 -35 -33 32 c-26 25 -33 41 -34 72
-2 30 -3 34 -6 14 -5 -34 -13 -35 -43 -3 l-24 25 30 31 c25 26 30 28 33 12 3
-17 4 -17 10 0z m-291 -91 c18 -54 32 -103 32 -108 0 -9 -61 -44 -75 -44 -3 0
-5 56 -5 125 0 69 4 125 8 125 4 0 22 -44 40 -98z m-1428 -152 l0 -220 -135 0
-135 0 0 220 0 220 135 0 135 0 0 -220z m300 0 l0 -220 -135 0 -135 0 0 220 0
220 135 0 135 0 0 -220z m1000 212 c0 -4 -33 -41 -74 -81 l-74 -74 -21 34
c-12 19 -21 39 -21 45 0 5 39 26 88 46 94 40 102 42 102 30z m60 -107 l0 -115
-45 0 c-29 0 -45 4 -45 13 0 12 82 217 87 217 2 0 3 -52 3 -115z m-14680 60
c13 -14 21 -25 18 -25 -2 0 -15 11 -28 25 -13 14 -21 25 -18 25 2 0 15 -11 28
-25z m14640 16 c0 -5 -16 -48 -36 -95 l-36 -85 -39 19 c-21 11 -39 24 -39 27
0 10 133 143 142 143 5 0 8 -4 8 -9z m408 -136 l-1 -50 -7 40 -7 40 -2 -46 c0
-27 -7 -52 -15 -58 -12 -10 -24 2 -70 70 l-56 83 32 34 33 33 47 -48 c44 -45
47 -51 46 -98z m-15061 103 l23 -22 -27 -28 c-33 -34 -47 -36 -39 -4 5 21 3
23 -22 18 l-27 -5 29 32 c17 17 32 31 35 31 2 0 15 -10 28 -22z m1693 -113 l0
-135 -340 0 -340 0 0 135 0 135 340 0 340 0 0 -135z m167 -67 c-1 -40 -3 -10
-3 67 0 77 1 110 3 73 2 -37 2 -100 0 -140z m5003 67 l0 -135 -340 0 -340 0 0
135 0 135 340 0 340 0 0 -135z m167 -67 c-1 -40 -3 -10 -3 67 0 77 1 110 3 73
2 -37 2 -100 0 -140z m-5187 62 l0 -130 -70 0 -70 0 0 130 0 130 70 0 70 0 0
-130z m5170 0 l0 -130 -70 0 -70 0 0 130 0 130 70 0 70 0 0 -130z m7439 59
l23 -42 -69 -68 -68 -69 -68 68 -68 68 98 41 c54 23 105 42 113 42 8 1 26 -18
39 -40z m-14469 -34 l-55 -55 -39 40 c-34 33 -38 42 -27 52 8 7 11 8 8 2 -3
-6 9 -26 29 -45 l34 -33 48 47 c26 26 49 47 52 47 2 0 -20 -25 -50 -55z
m14968 -27 l54 -81 -60 -60 -59 -59 -36 105 -35 105 36 36 c20 20 39 36 42 36
3 0 29 -37 58 -82z m-15038 57 c0 -8 -4 -15 -9 -15 -13 0 -22 16 -14 24 11 11
23 6 23 -9z m15177 -52 c-16 -16 -17 -15 -17 17 0 32 1 33 17 17 16 -16 16
-18 0 -34z m-15145 15 c-12 -12 -35 -1 -27 12 3 5 13 6 21 3 10 -4 12 -9 6
-15z m14623 -77 c-24 -66 -81 -201 -85 -201 -3 0 -35 29 -70 65 l-64 65 68 69
68 68 45 -24 c32 -18 43 -30 38 -42z m-11693 52 c-40 -2 -103 -2 -140 0 -37 2
-4 3 73 3 77 0 107 -2 67 -3z m226 0 l-138 -4 0 -74 0 -75 135 0 135 0 0 -275
0 -275 -140 0 -140 0 0 355 0 355 143 -2 142 -2 -137 -3z m1044 0 c-40 -2
-103 -2 -140 0 -37 2 -4 3 73 3 77 0 107 -2 67 -3z m226 0 l-138 -4 0 -74 0
-75 135 0 135 0 0 -275 0 -275 -140 0 -140 0 0 355 0 355 143 -2 142 -2 -137
-3z m1162 -348 l0 -355 -140 0 -140 0 0 275 0 275 135 0 135 0 0 75 0 74 -137
4 -138 3 143 2 142 2 0 -355z m212 348 c-40 -2 -103 -2 -140 0 -37 2 -4 3 73
3 77 0 107 -2 67 -3z m2358 -348 l0 -355 -140 0 -140 0 0 275 0 275 135 0 135
0 0 75 0 74 -137 4 -138 3 143 2 142 2 0 -355z m158 348 l-138 -4 0 -74 0 -75
135 0 135 0 0 -275 0 -275 -140 0 -140 0 0 355 0 355 143 -2 142 -2 -137 -3z
m1045 0 c-40 -2 -106 -2 -145 0 -40 1 -8 3 72 3 80 0 112 -2 73 -3z m225 0
l-138 -4 0 -74 0 -75 135 0 135 0 0 -275 0 -275 -140 0 -140 0 0 355 0 355
143 -2 142 -2 -137 -3z m1085 0 c-40 -2 -106 -2 -145 0 -40 1 -8 3 72 3 80 0
112 -2 73 -3z m225 0 l-138 -4 0 -74 0 -75 135 0 135 0 0 -275 0 -275 -140 0
-140 0 0 355 0 355 143 -2 142 -2 -137 -3z m1044 0 c-40 -2 -103 -2 -140 0
-37 2 -4 3 73 3 77 0 107 -2 67 -3z m226 0 l-138 -4 0 -74 0 -75 135 0 135 0
0 -275 0 -275 -140 0 -140 0 0 355 0 355 143 -2 142 -2 -137 -3z m-12207 -20
c13 -16 12 -17 -3 -4 -10 7 -18 15 -18 17 0 8 8 3 21 -13z m14577 -530 l-83
-83 -152 0 -153 0 0 317 0 318 235 -235 235 -235 -82 -82z m361 443 l34 -98
-82 -81 -81 -82 0 165 0 165 38 16 c20 10 42 16 47 15 6 -1 25 -46 44 -100z
m-11909 29 l0 -65 -130 0 -130 0 0 65 0 65 130 0 130 0 0 -65z m300 0 l0 -65
-130 0 -130 0 0 65 0 65 130 0 130 0 0 -65z m970 0 l0 -65 -130 0 -130 0 0 65
0 65 130 0 130 0 0 -65z m300 0 l0 -65 -130 0 -130 0 0 65 0 65 130 0 130 0 0
-65z m1010 0 l0 -65 -130 0 -130 0 0 65 0 65 130 0 130 0 0 -65z m300 0 l0
-65 -130 0 -130 0 0 65 0 65 130 0 130 0 0 -65z m2270 0 l0 -65 -130 0 -130 0
0 65 0 65 130 0 130 0 0 -65z m310 0 l0 -65 -130 0 -130 0 0 65 0 65 130 0
130 0 0 -65z m970 0 l0 -65 -135 0 -135 0 0 65 0 65 135 0 135 0 0 -65z m300
0 l0 -65 -130 0 -130 0 0 65 0 65 130 0 130 0 0 -65z m1010 0 l0 -65 -135 0
-135 0 0 65 0 65 135 0 135 0 0 -65z m300 0 l0 -65 -130 0 -130 0 0 65 0 65
130 0 130 0 0 -65z m970 0 l0 -65 -130 0 -130 0 0 65 0 65 130 0 130 0 0 -65z
m300 0 l0 -65 -130 0 -130 0 0 65 0 65 130 0 130 0 0 -65z m2450 -138 c0 -162
-1 -175 -20 -192 -20 -19 -22 -18 -99 59 l-79 78 47 114 46 114 53 0 52 0 0
-173z m-14680 38 c52 -52 92 -95 90 -95 -3 0 -48 43 -100 95 -52 52 -92 95
-90 95 3 0 48 -43 100 -95z m14980 62 c0 -1 -24 -25 -52 -52 l-53 -50 50 53
c46 48 55 57 55 49z m-14580 -42 c13 -14 21 -25 18 -25 -2 0 -15 11 -28 25
-13 14 -21 25 -18 25 2 0 15 -11 28 -25z m870 -260 l0 -285 -135 0 -135 0 0
285 0 285 135 0 135 0 0 -285z m5170 0 l0 -285 -135 0 -135 0 0 285 0 285 135
0 135 0 0 -285z m-6052 242 l22 -23 -29 -28 c-28 -27 -47 -23 -35 7 4 11 -1
13 -20 10 -17 -4 -26 -12 -26 -24 0 -20 -15 -25 -25 -9 -7 12 63 90 80 90 6 0
21 -10 33 -23z m2542 -252 l0 -275 -135 0 -135 0 0 275 0 275 135 0 135 0 0
-275z m1270 0 l0 -275 -135 0 -135 0 0 275 0 275 135 0 135 0 0 -275z m1600 0
l0 -275 -135 0 -135 0 0 275 0 275 135 0 135 0 0 -275z m3560 0 l0 -275 -140
0 -140 0 0 275 0 275 140 0 140 0 0 -275z m1310 0 l0 -275 -140 0 -140 0 0
275 0 275 140 0 140 0 0 -275z m1270 0 l0 -275 -135 0 -135 0 0 275 0 275 135
0 135 0 0 -275z m-11573 158 l-57 -58 -41 41 c-35 36 -38 42 -25 53 13 11 16
11 16 -1 0 -8 14 -27 30 -43 l31 -29 47 47 c26 26 49 47 52 47 3 0 -21 -26
-53 -57z m14503 44 c0 -2 -17 -19 -37 -38 l-38 -34 34 38 c33 34 41 42 41 34z
m-14530 -36 c0 -14 -18 -23 -30 -16 -6 4 -8 11 -5 16 8 12 35 12 35 0z m12980
-211 l0 -220 -135 0 -135 0 0 220 0 220 135 0 135 0 0 -220z m300 0 l0 -220
-135 0 -135 0 0 220 0 220 135 0 135 0 0 -220z m420 -25 c0 -52 -2 -95 -4 -95
-2 0 -31 34 -65 75 l-63 75 44 20 c24 11 53 20 66 20 21 0 22 -3 22 -95z m27
-77 c-2 -35 -3 -9 -3 57 0 66 1 94 3 63 2 -32 2 -86 0 -120z m-11717 -158 l0
-80 -70 0 -70 0 0 80 0 80 70 0 70 0 0 -80z m2580 0 l0 -80 -70 0 -70 0 0 80
0 80 70 0 70 0 0 -80z m2580 -5 l0 -85 -65 0 -65 0 0 85 0 85 65 0 65 0 0 -85z
m2580 5 l0 -80 -65 0 -65 0 0 80 0 80 65 0 65 0 0 -80z m2580 0 l0 -80 -65 0
-65 0 0 80 0 80 65 0 65 0 0 -80z m-10470 -45 l0 -65 -545 0 c-478 0 -545 2
-545 15 0 12 -13 15 -55 15 l-55 0 0 50 0 50 600 0 600 0 0 -65z m1350 0 l0
-65 -595 0 -595 0 0 65 0 65 595 0 595 0 0 -65z m1230 0 l0 -65 -595 0 -595 0
0 65 0 65 595 0 595 0 0 -65z m1350 0 l0 -65 -595 0 -595 0 0 65 0 65 595 0
595 0 0 -65z m1240 16 c0 -89 62 -81 -606 -81 l-594 0 0 65 0 65 600 0 600 0
0 -49z m1340 -16 l0 -65 -595 0 -595 0 0 65 0 65 595 0 595 0 0 -65z m1240 0
l0 -65 -595 0 -595 0 0 65 0 65 595 0 595 0 0 -65z m1340 0 l0 -65 -593 0
-594 0 -2 65 -2 65 595 0 596 0 0 -65z m1240 0 l0 -65 -595 0 -595 0 0 65 0
65 595 0 595 0 0 -65z m1510 0 l0 -65 -680 0 -680 0 0 65 0 65 680 0 680 0 0
-65z m-11733 -62 c-20 -2 -52 -2 -70 0 -17 2 0 4 38 4 39 0 53 -2 32 -4z
m2590 0 c-20 -2 -52 -2 -70 0 -17 2 0 4 38 4 39 0 53 -2 32 -4z m2580 0 c-20
-2 -52 -2 -70 0 -17 2 0 4 38 4 39 0 53 -2 32 -4z m2580 0 c-20 -2 -52 -2 -70
0 -17 2 0 4 38 4 39 0 53 -2 32 -4z m2580 0 c-20 -2 -52 -2 -70 0 -17 2 0 4
38 4 39 0 53 -2 32 -4z m-11124 -20 c-62 -2 -164 -2 -225 0 -62 1 -12 3 112 3
124 0 174 -2 113 -3z m510 0 c-62 -2 -164 -2 -225 0 -62 1 -12 3 112 3 124 0
174 -2 113 -3z m300 0 c-23 -2 -64 -2 -90 0 -26 2 -7 3 42 3 50 0 71 -1 48 -3z
m500 0 c-73 -2 -193 -2 -265 0 -73 1 -14 3 132 3 146 0 205 -2 133 -3z m590 0
c-73 -2 -193 -2 -265 0 -73 1 -14 3 132 3 146 0 205 -2 133 -3z m580 0 c-73
-2 -193 -2 -265 0 -73 1 -14 3 132 3 146 0 205 -2 133 -3z m590 0 c-73 -2
-193 -2 -265 0 -73 1 -14 3 132 3 146 0 205 -2 133 -3z m330 0 c-23 -2 -64 -2
-90 0 -26 2 -7 3 42 3 50 0 71 -1 48 -3z m490 0 c-73 -2 -193 -2 -265 0 -73 1
-14 3 132 3 146 0 205 -2 133 -3z m590 0 c-73 -2 -193 -2 -265 0 -73 1 -14 3
132 3 146 0 205 -2 133 -3z m590 0 c-73 -2 -193 -2 -265 0 -73 1 -14 3 132 3
146 0 205 -2 133 -3z m580 0 c-73 -2 -193 -2 -265 0 -73 1 -14 3 132 3 146 0
205 -2 133 -3z m330 0 c-23 -2 -64 -2 -90 0 -26 2 -7 3 42 3 50 0 71 -1 48 -3z
m489 0 c-73 -2 -190 -2 -260 0 -70 1 -10 3 133 3 143 0 200 -2 127 -3z m591 0
c-73 -2 -193 -2 -265 0 -73 1 -14 3 132 3 146 0 205 -2 133 -3z m590 0 c-73
-2 -193 -2 -265 0 -73 1 -14 3 132 3 146 0 205 -2 133 -3z m579 0 c-73 -2
-190 -2 -260 0 -70 1 -10 3 133 3 143 0 200 -2 127 -3z m331 0 c-23 -2 -64 -2
-90 0 -26 2 -7 3 42 3 50 0 71 -1 48 -3z m489 0 c-73 -2 -190 -2 -260 0 -70 1
-10 3 133 3 143 0 200 -2 127 -3z m591 0 c-73 -2 -193 -2 -265 0 -73 1 -14 3
132 3 146 0 205 -2 133 -3z m590 0 c-73 -2 -193 -2 -265 0 -73 1 -14 3 132 3
146 0 205 -2 133 -3z m579 0 c-73 -2 -190 -2 -260 0 -70 1 -10 3 133 3 143 0
200 -2 127 -3z m316 0 c-21 -2 -57 -2 -80 0 -24 2 -7 4 37 4 44 0 63 -2 43 -4z
m455 0 c-62 -2 -164 -2 -225 0 -62 1 -12 3 112 3 124 0 174 -2 113 -3z m530 0
c-68 -2 -178 -2 -245 0 -68 1 -13 3 122 3 135 0 190 -2 123 -3z m-3030 -30
c-1734 -2 -4572 -2 -6305 0 -1734 1 -316 2 3152 2 3468 0 4886 -1 3153 -2z
m3242 -103 l80 -80 -6470 0 -6470 0 80 80 80 80 6310 0 6310 0 80 -80z"/>
<path d="M2812 4868 l2 -63 4 55 4 55 22 -43 22 -44 20 44 19 43 6 -55 6 -55
1 63 c1 34 -2 62 -6 62 -5 0 -17 -19 -28 -41 l-18 -41 -20 41 c-11 22 -24 41
-28 41 -4 0 -7 -28 -6 -62z"/>
<path d="M3291 5707 c-13 -32 -21 -61 -17 -64 3 -3 6 1 6 10 0 25 70 24 71 0
0 -10 3 -13 5 -7 3 6 -6 35 -19 65 l-23 53 -23 -57z m38 3 c9 -28 8 -30 -14
-30 -22 0 -23 2 -14 30 6 17 12 30 14 30 2 0 8 -13 14 -30z"/>
<path d="M3381 5680 l2 -45 6 39 c4 26 13 42 26 47 17 6 15 7 -7 6 -26 -1 -28
-4 -27 -47z"/>
<path d="M3441 5681 l2 -46 6 40 c5 32 11 41 29 43 20 3 22 -1 23 -40 l2 -43
6 40 c5 31 11 41 28 43 19 3 22 -2 26 -40 l4 -43 -1 45 -1 45 -62 1 -63 1 1
-46z"/>
<path d="M3280 5535 c-18 -22 -6 -42 29 -50 33 -7 42 -32 15 -42 -9 -3 -26 0
-38 7 -19 12 -20 12 -7 -3 17 -21 45 -22 61 -2 18 22 6 42 -29 50 -33 7 -42
32 -15 42 9 3 26 0 38 -7 19 -12 20 -12 7 3 -17 21 -45 22 -61 2z"/>
<path d="M3559 5535 c-8 -36 5 -100 21 -101 9 0 10 1 3 3 -20 7 -16 71 5 76
15 4 15 5 0 6 -9 0 -18 9 -20 19 -3 15 -4 14 -9 -3z"/>
<path d="M3376 5490 c11 -60 20 -67 35 -27 l13 36 16 -37 c18 -40 20 -38 34
33 5 22 4 26 -4 15 -5 -8 -10 -26 -11 -40 0 -22 -3 -20 -18 14 l-17 39 -16
-39 c-14 -34 -16 -36 -17 -14 -1 14 -6 32 -11 40 -7 11 -8 5 -4 -20z"/>
<path d="M3513 5475 c0 -27 2 -38 4 -22 2 15 2 37 0 50 -2 12 -4 0 -4 -28z"/>
<path d="M3052 4888 c-30 -30 -2 -85 39 -75 13 3 19 1 16 -6 -2 -7 -16 -12
-30 -12 -14 1 -23 -3 -21 -7 8 -12 38 -10 52 4 7 7 12 33 12 58 0 43 -2 46
-28 48 -15 1 -33 -3 -40 -10z m53 -33 c0 -25 -4 -30 -25 -30 -16 0 -26 6 -28
18 -6 30 6 49 30 45 18 -2 23 -9 23 -33z"/>
<path d="M3156 4892 c-3 -4 8 -6 25 -4 17 3 29 0 29 -7 0 -6 -11 -11 -24 -11
-13 0 -29 -7 -36 -15 -18 -22 5 -46 42 -43 27 2 29 5 26 43 -3 35 -6 40 -30
43 -14 2 -29 -1 -32 -6z m52 -49 c-4 -20 -35 -30 -50 -15 -15 15 0 32 28 32
19 0 25 -5 22 -17z"/>
<path d="M3268 4891 l34 -6 -31 -29 c-17 -17 -31 -33 -31 -38 0 -4 17 -7 38
-7 l37 2 -33 6 -34 6 31 29 c17 17 31 33 31 38 0 4 -17 7 -37 7 l-38 -2 33 -6z"/>
<path d="M3358 4891 l34 -6 -31 -29 c-17 -17 -31 -33 -31 -38 0 -4 17 -7 38
-7 l37 2 -33 6 -34 6 31 29 c17 17 31 33 31 38 0 4 -17 7 -37 7 l-38 -2 33 -6z"/>
<path d="M3433 4855 c0 -27 2 -38 4 -22 2 15 2 37 0 50 -2 12 -4 0 -4 -28z"/>
<path d="M3471 4850 l2 -45 6 40 c5 34 10 40 31 40 21 0 26 -6 31 -40 l6 -40
2 36 c1 42 -15 60 -53 57 -24 -2 -26 -5 -25 -48z"/>
<path d="M3580 4886 c-28 -35 11 -93 48 -70 35 22 22 84 -18 84 -10 0 -23 -7
-30 -14z m55 -31 c0 -25 -4 -30 -25 -30 -16 0 -26 6 -28 18 -6 30 6 49 30 45
18 -2 23 -9 23 -33z"/>
<path d="M6793 4698 c-5 -7 -34 -55 -63 -107 -40 -71 -51 -98 -43 -110 5 -9
33 -58 62 -108 l53 -93 123 0 123 0 61 106 c34 58 61 108 61 112 0 3 -26 52
-57 108 l-58 104 -126 0 c-90 0 -129 -4 -136 -12z m308 -100 l56 -101 -56 -98
-56 -99 -120 0 -120 1 -56 98 -57 99 45 78 c79 138 57 124 191 124 l117 0 56
-102z"/>
<path d="M11143 4688 c-5 -7 -34 -55 -63 -107 -40 -71 -51 -98 -43 -110 5 -9
33 -58 62 -108 l53 -93 123 0 123 0 61 106 c34 58 61 108 61 112 0 3 -26 52
-57 108 l-58 104 -126 0 c-90 0 -129 -4 -136 -12z m308 -100 l56 -101 -56 -98
-56 -99 -120 0 -120 1 -56 98 -57 99 45 78 c79 138 57 124 191 124 l117 0 56
-102z"/>
<path d="M13350 5225 l0 -905 145 0 145 0 0 905 0 905 -145 0 -145 0 0 -905z
m280 675 l0 -220 -135 0 -135 0 0 220 0 220 135 0 135 0 0 -220z m0 -450 l0
-220 -135 0 -135 0 0 220 0 220 135 0 135 0 0 -220z m0 -450 l0 -220 -135 0
-135 0 0 220 0 220 135 0 135 0 0 -220z m0 -450 l0 -220 -135 0 -135 0 0 220
0 220 135 0 135 0 0 -220z"/>
<path d="M13650 5225 l0 -905 145 0 145 0 0 905 0 905 -145 0 -145 0 0 -905z
m280 675 l0 -220 -135 0 -135 0 0 220 0 220 135 0 135 0 0 -220z m0 -450 l0
-220 -135 0 -135 0 0 220 0 220 135 0 135 0 0 -220z m0 -450 l0 -220 -135 0
-135 0 0 220 0 220 135 0 135 0 0 -220z m0 -450 l0 -220 -135 0 -135 0 0 220
0 220 135 0 135 0 0 -220z"/>
<path d="M14787 6074 c-13 -13 -7 -55 8 -60 8 -4 15 -11 15 -16 0 -6 -7 -4
-16 3 -14 11 -15 10 -12 -11 4 -32 44 -40 63 -13 13 17 14 17 15 1 0 -24 68
-26 76 -3 6 14 8 13 19 -2 20 -28 24 -13 12 50 -13 71 -33 75 -42 7 -4 -27
-11 -50 -16 -50 -5 0 -9 23 -9 50 0 57 -20 69 -21 13 -1 -39 -3 -38 -13 10 -7
30 -26 37 -26 10 0 -10 -4 -24 -9 -31 -6 -10 -10 -10 -21 3 -11 13 -10 14 5 9
13 -5 16 -2 13 12 -3 19 -29 30 -41 18z"/>
<path d="M14990 6020 c0 -33 4 -60 10 -60 6 0 10 10 11 23 l0 22 9 -22 c5 -13
16 -23 25 -23 12 0 15 13 15 63 0 44 -3 58 -10 47 -6 -10 -10 -11 -10 -2 0 6
-11 12 -25 12 -24 0 -25 -3 -25 -60z m35 31 c3 -5 1 -12 -5 -16 -5 -3 -10 1
-10 9 0 18 6 21 15 7z m22 -53 c-3 -8 -6 -5 -6 6 -1 11 2 17 5 13 3 -3 4 -12
1 -19z"/>
<path d="M15070 6022 l0 -61 35 1 c22 1 36 7 38 17 4 13 5 13 6 -1 0 -10 6
-18 11 -18 6 0 9 27 9 63 -1 46 -3 54 -8 32 l-7 -30 -7 28 c-5 18 -14 27 -27
27 -17 0 -20 -7 -22 -47 -1 -48 -1 -48 -5 -8 -7 67 -23 65 -23 -3z"/>
<path d="M15181 6020 c0 -40 3 -57 8 -46 7 18 8 18 14 3 3 -9 13 -17 22 -17 9
0 19 8 22 17 6 15 7 15 14 -3 7 -17 8 -16 9 6 1 25 1 25 10 3 6 -13 18 -23 30
-23 18 0 20 6 20 60 0 53 -2 60 -20 60 -14 0 -20 -7 -21 -22 0 -22 -1 -22 -11
2 -9 23 -11 24 -17 6 -7 -17 -8 -18 -14 -3 -3 9 -13 17 -22 17 -9 0 -19 -8
-22 -17 -6 -15 -7 -15 -14 3 -5 11 -8 -6 -8 -46z m59 0 c0 -25 -18 -36 -26
-16 -8 21 3 49 16 41 5 -3 10 -15 10 -25z"/>
<path d="M15015 5922 c-12 -12 -4 -34 10 -28 18 7 18 -2 0 -34 -25 -44 -20
-51 39 -49 l53 2 12 49 c6 27 11 54 11 59 0 9 -115 11 -125 1z m62 -69 c-3
-10 -5 -2 -5 17 0 19 2 27 5 18 2 -10 2 -26 0 -35z m35 22 c-2 -14 -6 -25 -8
-25 -2 0 -4 11 -4 25 0 14 4 25 9 25 4 0 6 -11 3 -25z"/>
<path d="M14954 5750 c-110 -23 -195 -95 -214 -182 -14 -66 -14 -860 1 -926
14 -68 62 -122 141 -157 121 -55 287 -31 373 52 66 64 65 53 65 568 0 515 1
504 -65 568 -65 63 -202 98 -301 77z m199 -30 c30 -11 71 -37 91 -56 35 -34
44 -49 60 -101 l7 -23 -280 0 c-310 0 -298 -3 -265 63 31 60 87 104 164 128
51 15 168 10 223 -11z m157 -615 l0 -425 -285 0 -285 0 0 425 0 425 285 0 285
0 0 -425z m-6 -457 c-16 -53 -25 -68 -60 -102 -57 -55 -131 -79 -234 -74 -121
6 -199 48 -241 130 -37 72 -51 68 262 68 l280 0 -7 -22z"/>
<path d="M3760 5746 c0 -19 -4 -23 -20 -19 -26 7 -50 -13 -50 -42 0 -29 20
-46 54 -43 25 2 26 4 26 65 0 35 -2 63 -5 63 -3 0 -5 -11 -5 -24z m-5 -61 c0
-25 -4 -30 -25 -30 -16 0 -26 6 -28 18 -6 30 6 49 30 45 18 -2 23 -9 23 -33z"/>
<path d="M3803 5685 c0 -27 2 -38 4 -22 2 15 2 37 0 50 -2 12 -4 0 -4 -28z"/>
<path d="M3852 5718 c-27 -27 -7 -78 29 -78 10 0 20 4 23 8 2 4 -8 8 -22 7
-23 0 -27 4 -27 30 0 26 4 30 27 30 14 -1 24 3 22 7 -8 12 -38 10 -52 -4z"/>
<path d="M3703 5495 c0 -54 1 -61 6 -30 5 34 10 40 31 40 21 0 26 -6 31 -40
l6 -40 2 36 c1 41 -18 64 -48 56 -15 -4 -21 1 -24 22 -2 14 -4 -5 -4 -44z"/>
<path d="M782 4398 c-16 -16 -15 -29 1 -25 7 1 12 -8 12 -20 0 -32 214 -246
231 -232 9 7 15 5 23 -8 8 -15 12 -16 23 -5 11 11 10 15 -4 23 -9 5 -14 17
-12 26 7 25 -198 228 -229 228 -12 0 -21 5 -19 13 3 15 -10 16 -26 0z m166
-131 c98 -99 102 -104 84 -120 -17 -16 -23 -11 -122 88 -89 89 -102 106 -90
119 7 9 15 16 19 16 3 0 53 -46 109 -103z"/>
<path d="M17416 4388 c-4 -18 -8 -20 -18 -10 -18 18 -243 -205 -226 -225 8
-10 5 -15 -11 -21 l-22 -8 21 -19 c22 -20 22 -20 19 0 -3 16 1 20 21 17 37 -3
232 192 228 228 -2 20 1 24 17 21 20 -3 20 -3 1 18 -23 26 -22 26 -30 -1z
m-98 -155 c-97 -97 -103 -102 -120 -86 -18 16 -14 21 84 120 97 97 103 102
120 86 18 -16 14 -21 -84 -120z"/>
<path d="M9634 4058 l-18 -33 -6 25 c-5 23 -11 25 -63 28 -33 1 -57 -2 -57 -8
0 -5 7 -10 15 -10 11 0 12 -5 5 -26 -12 -31 -13 -74 -2 -74 4 0 14 21 22 48
l14 47 4 -37 c4 -48 26 -67 50 -44 24 21 38 20 46 -1 6 -15 9 -14 20 7 8 16 9
29 3 37 -5 7 -7 24 -5 38 8 38 -9 40 -28 3z m-44 -33 c0 -19 -4 -35 -10 -35
-11 0 -14 53 -3 63 11 12 13 8 13 -28z"/>
<path d="M10730 4070 c0 -6 7 -10 16 -10 11 0 14 -5 9 -17 -4 -10 -9 -33 -12
-50 -9 -51 13 -39 28 15 l13 47 4 -37 c4 -44 23 -64 48 -50 12 7 24 6 36 -1
31 -20 49 10 42 66 -6 41 -10 47 -30 47 -13 0 -24 -5 -24 -11 0 -8 -4 -8 -12
-1 -17 13 -118 15 -118 2z m100 -46 c0 -21 -4 -33 -10 -29 -17 10 -11 65 7 65
2 0 3 -16 3 -36z m50 16 c-12 -7 -12 -12 -2 -22 17 -17 15 -33 -3 -18 -8 7
-15 18 -15 24 0 15 22 38 29 30 3 -3 -1 -9 -9 -14z"/>
<path d="M12080 4070 c0 -5 7 -10 15 -10 12 0 14 -6 8 -27 -10 -39 -9 -57 1
-63 7 -4 34 73 36 103 0 4 -13 7 -30 7 -16 0 -30 -4 -30 -10z"/>
<path d="M12144 4044 c-3 -19 -2 -46 4 -58 8 -19 18 -23 66 -24 43 -1 56 2 56
13 0 8 -7 15 -15 15 -12 0 -12 4 2 28 9 16 14 36 10 45 -7 20 -53 23 -60 5 -4
-10 -6 -10 -6 0 -1 6 -12 12 -26 12 -20 0 -25 -6 -31 -36z m38 -37 c-4 -17 -6
-18 -14 -3 -5 9 -6 26 -2 39 7 21 7 21 14 2 4 -11 5 -28 2 -38z m51 18 c-13
-16 -19 -19 -21 -9 -4 16 19 44 31 37 4 -2 -1 -15 -10 -28z"/>
<path d="M13310 4070 c0 -5 7 -10 15 -10 18 0 18 -7 4 -49 -8 -24 -8 -36 -1
-43 12 -12 14 -9 28 47 l7 30 10 -38 c5 -21 16 -41 25 -44 19 -8 42 23 42 56
0 34 18 15 22 -24 5 -51 23 -33 26 28 3 59 -8 72 -37 45 -11 -10 -14 -10 -18
0 -6 15 -123 17 -123 2z m102 -64 c-9 -18 -11 -16 -11 19 0 33 1 37 10 21 8
-12 8 -25 1 -40z"/>
<path d="M14650 4070 c0 -5 7 -10 15 -10 11 0 12 -5 5 -26 -13 -33 -13 -74 0
-74 6 0 10 7 10 15 0 9 7 32 16 53 14 33 16 35 26 18 7 -13 7 -25 -1 -43 -6
-13 -11 -28 -11 -33 0 -18 17 -10 27 12 l10 23 12 -23 c15 -28 37 -28 52 -1
l11 21 15 -21 c21 -31 38 -15 18 16 -14 21 -15 30 -6 51 14 29 8 40 -13 23
-10 -8 -16 -9 -21 -1 -9 14 -52 13 -59 -2 -5 -10 -7 -10 -12 0 -7 14 -94 17
-94 2z m148 -64 c-10 -19 -11 -19 -24 -2 -10 14 -10 24 -1 43 l11 24 12 -23
c9 -16 9 -28 2 -42z"/>
<path d="M3390 4069 c0 -5 7 -9 15 -9 11 0 12 -5 5 -26 -12 -31 -13 -74 -2
-74 4 0 14 21 22 48 l14 47 4 -37 c4 -45 25 -66 47 -48 11 9 18 10 29 1 21
-18 45 -2 52 34 11 61 -4 72 -100 73 -48 0 -86 -4 -86 -9z m100 -44 c0 -19 -4
-35 -10 -35 -5 0 -10 16 -10 35 0 19 5 35 10 35 6 0 10 -16 10 -35z m56 8
c-10 -10 -19 5 -10 18 6 11 8 11 12 0 2 -7 1 -15 -2 -18z"/>
<path d="M4750 4070 c0 -6 7 -10 16 -10 11 0 14 -5 9 -17 -4 -10 -9 -33 -12
-50 -9 -51 13 -39 28 15 l13 47 5 -39 c7 -47 35 -70 55 -44 11 15 13 15 23 0
19 -29 48 -2 49 44 0 22 -1 45 -4 52 -5 15 -52 16 -52 1 0 -8 -4 -8 -12 -1
-17 13 -118 15 -118 2z m100 -47 c0 -27 -3 -34 -11 -26 -7 7 -9 23 -5 37 9 37
16 32 16 -11z m70 -17 c0 -3 -4 -8 -10 -11 -5 -3 -10 -1 -10 4 0 6 5 11 10 11
6 0 10 -2 10 -4z"/>
<path d="M5970 4069 c0 -5 7 -9 16 -9 11 0 14 -5 9 -17 -4 -10 -9 -33 -12 -50
-9 -51 13 -39 28 15 l13 47 4 -37 c3 -40 21 -61 45 -53 16 7 30 57 21 80 -4 9
0 15 9 15 13 0 15 -9 10 -52 -3 -29 -2 -50 2 -46 6 6 41 97 45 115 0 1 -43 1
-95 1 -52 0 -95 -4 -95 -9z m100 -45 c0 -21 -4 -33 -10 -29 -17 10 -11 65 7
65 2 0 3 -16 3 -36z"/>
<path d="M7310 4070 c0 -5 7 -10 15 -10 12 0 14 -6 8 -27 -10 -40 -9 -57 2
-63 5 -3 14 15 19 40 l9 45 7 -35 c3 -20 10 -41 14 -48 10 -17 35 -15 42 3 5
13 8 13 21 0 31 -31 54 -6 50 56 -3 47 -24 62 -52 39 -11 -9 -15 -9 -15 -1 0
15 -47 14 -53 -1 -4 -10 -6 -10 -6 0 -1 14 -61 17 -61 2z m100 -47 c-1 -31 -3
-35 -11 -20 -6 9 -7 26 -4 37 10 30 15 24 15 -17z m70 -24 c0 -5 -4 -9 -10 -9
-5 0 -10 7 -10 16 0 8 5 12 10 9 6 -3 10 -10 10 -16z"/>
<path d="M8550 4070 c0 -5 7 -10 15 -10 18 0 18 -7 4 -49 -8 -24 -8 -36 -1
-43 12 -12 14 -8 27 47 l7 30 12 -40 c12 -42 41 -59 52 -30 6 14 8 14 20 -2
10 -14 17 -16 31 -7 25 15 29 62 6 80 -17 12 -17 13 0 14 9 0 17 5 17 10 0 15
-57 12 -63 -2 -4 -10 -6 -10 -6 0 -1 15 -121 17 -121 2z m102 -64 c-9 -18 -11
-16 -11 19 0 33 1 37 10 21 8 -12 8 -25 1 -40z m68 -1 c0 -8 -4 -15 -10 -15
-5 0 -10 7 -10 15 0 8 5 15 10 15 6 0 10 -7 10 -15z"/>
<path d="M1050 2895 c0 -11 -7 -14 -22 -10 -19 5 -42 -14 -132 -104 -91 -91
-107 -112 -97 -125 13 -16 -1 -32 -19 -21 -14 9 -13 -8 2 -23 16 -16 29 -15
25 1 -1 7 8 12 20 12 32 0 246 214 232 231 -7 9 -5 15 7 22 9 5 14 14 10 21
-10 16 -26 14 -26 -4z m-104 -154 c-100 -100 -107 -105 -123 -88 -17 16 -12
22 87 122 99 99 105 104 123 88 17 -16 13 -21 -87 -122z"/>
<path d="M17157 2902 c-19 -20 -23 -37 -7 -27 18 11 32 -5 19 -21 -10 -13 6
-34 97 -125 88 -88 113 -109 131 -104 15 3 23 0 25 -11 2 -14 6 -13 23 6 20
22 20 22 0 19 -16 -3 -20 1 -17 21 3 37 -192 232 -228 228 -19 -2 -24 1 -22
15 4 22 -1 22 -21 -1z m253 -231 c0 -3 -5 -13 -10 -21 -8 -12 -30 5 -114 90
-102 100 -105 105 -88 123 16 19 20 16 115 -83 53 -57 97 -106 97 -109z"/>
<path d="M3390 3005 c0 -8 7 -15 15 -15 11 0 12 -5 5 -26 -12 -32 -13 -64 -1
-64 8 0 41 87 41 109 0 6 -13 11 -30 11 -20 0 -30 -5 -30 -15z"/>
<path d="M3472 3008 c-15 -15 -16 -38 -2 -38 6 0 10 -16 10 -35 0 -19 5 -35
10 -35 6 0 10 27 10 60 0 60 -6 70 -28 48z"/>
<path d="M3531 2998 c-10 -16 -10 -23 -2 -26 6 -2 11 -19 11 -38 0 -19 5 -34
10 -34 6 0 10 27 10 60 0 64 -7 73 -29 38z"/>
<path d="M4730 3005 c0 -8 7 -15 16 -15 11 0 14 -5 9 -17 -13 -36 -17 -73 -7
-73 9 0 42 85 42 109 0 6 -13 11 -30 11 -20 0 -30 -5 -30 -15z"/>
<path d="M4813 3005 c-16 -17 -17 -35 -3 -35 6 0 10 -16 10 -35 0 -19 5 -35
10 -35 6 0 10 27 10 60 0 61 -5 70 -27 45z"/>
<path d="M4861 3001 c-13 -23 -3 -35 16 -19 24 20 23 2 -2 -32 -33 -44 -32
-50 10 -50 19 0 35 5 35 10 0 6 -7 10 -16 10 -15 0 -15 2 0 25 20 31 21 61 0
69 -25 10 -33 7 -43 -13z"/>
<path d="M5970 3005 c0 -8 7 -15 16 -15 10 0 14 -6 10 -17 -17 -57 -18 -75 -7
-72 14 5 51 106 43 114 -13 12 -62 4 -62 -10z"/>
<path d="M6051 2998 c-10 -16 -10 -23 -2 -26 6 -2 11 -19 11 -38 0 -19 5 -34
10 -34 6 0 10 27 10 60 0 64 -7 73 -29 38z"/>
<path d="M6107 3013 c-13 -12 -7 -35 7 -30 10 4 13 1 9 -10 -3 -8 0 -19 7 -23
7 -4 9 -13 5 -20 -6 -9 -9 -9 -16 1 -11 18 -23 4 -15 -16 3 -10 15 -15 28 -13
20 3 23 9 25 48 0 25 -4 51 -9 58 -11 13 -31 16 -41 5z"/>
<path d="M7310 3005 c0 -8 7 -15 15 -15 15 0 15 -12 -2 -72 -3 -12 1 -18 11
-18 10 0 16 9 16 23 1 12 7 33 15 47 23 40 18 50 -20 50 -24 0 -35 -5 -35 -15z"/>
<path d="M7394 2999 c-14 -16 -15 -23 -6 -26 6 -3 12 -20 12 -39 0 -19 5 -34
10 -34 6 0 10 27 10 60 0 33 -2 60 -3 60 -2 0 -12 -10 -23 -21z"/>
<path d="M7451 2980 c-22 -40 -21 -60 4 -60 7 0 16 -6 18 -12 9 -20 28 13 22
37 -2 11 -5 32 -5 48 0 38 -12 34 -39 -13z"/>
<path d="M8570 3005 c0 -8 7 -15 15 -15 12 0 13 -4 5 -19 -12 -23 -13 -71 -2
-71 4 0 14 21 22 48 8 26 16 53 18 60 2 8 -7 12 -27 12 -21 0 -31 -5 -31 -15z"/>
<path d="M8652 3008 c-15 -18 -3 -108 14 -108 10 0 14 16 14 60 0 59 -8 72
-28 48z"/>
<path d="M8700 3008 c0 -7 -3 -24 -7 -37 -5 -21 -3 -23 15 -19 17 5 22 2 22
-14 0 -17 -2 -18 -15 -8 -18 15 -30 7 -22 -15 9 -21 44 -19 56 3 13 24 3 60
-18 65 -14 4 -14 5 2 6 28 2 21 31 -8 31 -14 0 -25 -6 -25 -12z"/>
<path d="M9500 3006 c0 -9 7 -16 16 -16 11 0 14 -5 9 -17 -13 -36 -17 -73 -7
-73 5 0 16 19 24 43 26 73 26 72 -9 75 -25 2 -33 -1 -33 -12z"/>
<path d="M9583 3005 c-16 -17 -17 -35 -3 -35 6 0 10 -16 10 -35 0 -19 5 -35
10 -35 6 0 10 27 10 60 0 61 -5 70 -27 45z"/>
<path d="M9630 2994 c-19 -48 -4 -94 30 -94 26 0 33 33 21 113 -3 19 -42 5
-51 -19z m40 -53 c0 -6 -4 -13 -10 -16 -5 -3 -10 1 -10 9 0 9 5 16 10 16 6 0
10 -4 10 -9z"/>
<path d="M10730 3005 c0 -8 7 -15 16 -15 10 0 14 -6 10 -17 -17 -57 -18 -75
-7 -72 14 5 51 106 43 114 -13 12 -62 4 -62 -10z"/>
<path d="M10811 2998 c-10 -16 -10 -23 -2 -26 6 -2 11 -19 11 -38 0 -19 5 -34
10 -34 6 0 10 27 10 60 0 64 -7 73 -29 38z"/>
<path d="M10860 3005 c0 -8 7 -15 15 -15 12 0 13 -4 5 -19 -12 -23 -13 -71 -2
-71 4 0 14 21 22 48 8 26 16 53 18 60 2 8 -7 12 -27 12 -21 0 -31 -5 -31 -15z"/>
<path d="M13300 3005 c0 -8 7 -15 16 -15 16 0 16 -13 -2 -72 -4 -12 0 -18 10
-18 10 0 16 9 16 23 1 12 7 33 15 47 23 40 18 50 -20 50 -24 0 -35 -5 -35 -15z"/>
<path d="M13384 2998 c-14 -15 -16 -22 -6 -25 6 -3 12 -20 12 -39 0 -24 5 -34
15 -34 11 0 15 13 15 54 0 63 -9 74 -36 44z"/>
<path d="M13434 3006 c-3 -7 -4 -33 -2 -57 3 -39 6 -44 28 -44 22 0 25 5 28
43 3 45 -10 72 -35 72 -7 0 -16 -6 -19 -14z m36 -31 c0 -8 -4 -15 -10 -15 -5
0 -10 7 -10 15 0 8 5 15 10 15 6 0 10 -7 10 -15z m0 -39 c0 -3 -4 -8 -10 -11
-5 -3 -10 -1 -10 4 0 6 5 11 10 11 6 0 10 -2 10 -4z"/>
<path d="M14654 3009 c-3 -6 3 -13 15 -16 16 -4 19 -9 11 -23 -12 -22 -13 -70
-2 -70 4 0 13 21 20 46 10 37 15 44 26 35 11 -9 15 -9 19 1 2 7 8 10 12 6 4
-4 -2 -19 -14 -34 -30 -38 -27 -54 9 -54 17 0 30 5 30 10 0 6 -7 10 -15 10
-13 0 -13 3 -3 20 12 19 13 19 21 -10 17 -66 76 -15 61 52 -7 33 -28 46 -48
29 -9 -7 -17 -8 -20 -3 -8 13 -114 14 -122 1z m166 -55 c0 -21 -4 -33 -10 -29
-5 3 -10 19 -10 36 0 16 5 29 10 29 6 0 10 -16 10 -36z"/>
<path d="M12080 3005 c0 -8 7 -15 15 -15 15 0 15 -12 -2 -72 -3 -12 1 -18 11
-18 10 0 16 9 16 23 1 12 7 33 15 47 23 40 18 50 -20 50 -24 0 -35 -5 -35 -15z"/>
<path d="M12164 2999 c-14 -16 -15 -23 -6 -26 6 -3 12 -20 12 -39 0 -19 5 -34
10 -34 6 0 10 27 10 60 0 33 -2 60 -3 60 -2 0 -12 -10 -23 -21z"/>
<path d="M12215 2997 c-4 -13 -5 -39 -3 -58 2 -29 7 -34 28 -34 24 0 25 3 25
55 0 49 -2 55 -22 58 -17 2 -24 -3 -28 -21z m35 -62 c0 -8 -4 -15 -10 -15 -5
0 -10 7 -10 15 0 8 5 15 10 15 6 0 10 -7 10 -15z"/>
<path d="M2923 2698 c-5 -7 -34 -55 -63 -107 -40 -71 -51 -98 -43 -110 5 -9
33 -58 62 -108 l53 -93 123 0 123 0 61 106 c34 58 61 108 61 112 0 3 -26 52
-57 108 l-58 104 -126 0 c-90 0 -129 -4 -136 -12z m308 -100 l56 -101 -56 -98
-56 -99 -120 0 -120 1 -56 98 -57 99 45 78 c79 138 57 124 191 124 l117 0 56
-102z"/>
<path d="M8123 2668 c-5 -7 -34 -55 -63 -107 -40 -71 -51 -98 -43 -110 5 -9
33 -58 62 -108 l53 -93 123 0 123 0 61 106 c34 58 61 108 61 112 0 3 -26 52
-57 108 l-58 104 -126 0 c-90 0 -129 -4 -136 -12z m308 -100 l56 -101 -56 -98
-56 -99 -120 0 -120 1 -56 98 -57 99 45 78 c79 138 57 124 191 124 l117 0 56
-102z"/>
<path d="M16723 1705 c0 -27 2 -38 4 -22 2 15 2 37 0 50 -2 12 -4 0 -4 -28z"/>
</g>
</svg>
